<?xml version="1.0" encoding="UTF-8"?>
<svg fill="#FFFFFF" id="b" data-name="Warstwa 2" xmlns="http://www.w3.org/2000/svg" viewBox="0 0 93.54 93">
  <defs>
    <style>
      .e {
        fill:#FFFFFF;
      }
    </style>
  </defs>
  <g id="c" data-name="icon-pixarts-survival-series">
    <g id="d" data-name="icon-pixarts-survival-series_890">
      <path class="e" d="M15.15,87.75l2.01-.02c.4,0,.8,1.55.41,1.6l-1.78.21c-1.18.14-3.04.3-3.18-1.17-2.98.55-7.46-.54-7.61-2.13-.13-1.35.34-2.15,1.55-3.11l-2.29-1.39-.26,2.05-.18,3.02c-.85.05-4.12-1.63-3.79-3.32l2.3-11.5c.84-4.18,3.93-6.86,7.87-8.39l6.36-2.46c.2-.08.91-.15,1.11-.13.3.03.52.87.29,1.07l-1.07.92.98.28c.27.07-.07.94-.33,1.61l2.5,1.51-.5,1.41c-.11.31.95.44,1.23.37l-.51-6.41.4-2.27c3.19-1.51,6.7-2.67,9.67-4.84,1.89-1.38,1.56-5.16,1.06-7.12-2.73-2.75-4.22-5.78-5.08-9.61-3.63-2.73-5.22-7.29-4.06-11.86,1.51-1.1,1.84-2.81,1.51-4.71-.23-3.68-.33-7.03.81-10.66.85.16,2.1,1.4,1.9,2.12l-.27.99c-.04.15.54.43.58.28l.28-.86.44-1.33c.51-1.55,2.01,4.89,5.33,2.87l-.25-2.53c-1.2.22-2.3-.89-3.02-2.06l-2.41.09c-.7.02-1.09-2.32-.67-2.9C32.2-.67,46.3-2.23,54.44,3.17l-6.25,2.51,1.35.16c.3.04.87.39.76.64l-.58,1.28c.96-.59,1.77-1.27,2.41-1.25s1.53,2,1.07,2.18c-.32.58-.34.71-.16.78.21.08,1.11.32,1.13.13l.16-1.29c.07-.6.41-1.79.67-2.33s1.84-.8,2.47-.61c2.68,2.57,4.41,6.58,4.56,10.45l.34,8.52c.05,1.27,2.37,2.93,1.48,4.76.28,3.6-1.47,6.73-4.34,8.63-1.05,3.79-2.68,7.11-4.95,10.12-1.91,3.66.29,7.2,3.88,8.66l7.1,2.89.05,5.71-7.51.13c-2.1.04-5.33,1.85-5.42,4.19l-.33,7.94c-.11,2.7,1.84,5.78,4.84,5.87l8.45.25.02,7.47-11.07.98-4.54-1.13-1.04-.06c-.27-.01-.05,1.02.06,1.54l-4.4.25c-.31.02-1.19-.94-1.46-.79l-1.29.72-5.98-.29c-1.46-.07-2.43-.05-3.93-.22l-12.22-1.34,1.19-1.41c-.17.2-1.06-5.38-3.99-4.58l-1.84,3.13ZM55.34,32.11l-.36-1.5c-.05-.22-.98-.25-1.07-.03l-.5,1.21c-.15.36.03,1.28.28,1.58.2.24.92.3,1.17.11s.48-1.05.49-1.37ZM53.59,43.16l2.51-.45-2.57-1.75c-1.27.81-2.59,2.12-2.91,3.84l2.98-1.64ZM29.18,75.71c-2.1-.05-3.8.91-4.73,2.71,1.79-.51,3.27-1.24,4.73-2.71ZM5.49,80.13c-.7-1.15-1.69-2.36-2.72-3.35l.49,1.47c.09.27-.45,1-.69,1.49s.8,1.13,1.45,1.49c.45.25,1.75-.64,1.47-1.1ZM13.12,83.95l4.24-2.04-.31-.62-5.22,2.8c-.05,1.3,1.4,1.01,1.29-.14ZM34.61,87.2c1.49.86,3.63,2.42,5.16,1.03,1.02-.93-.36-2.94-1.45-3.31-.92-.31-2.77.71-3.57,1.3l-1.02-.07c-.17-.01-.32.37-.17.45l1.06.61Z"/>
      <path class="e" d="M79.83,91.93c-1.86,1.1-4.13,1-6.26,1.06-1.73.06-3.54-.46-3.54-2.52v-11.08s-11.5-.01-11.5-.01c-1.05,0-2.21-1.27-2.21-2.3v-5.72c-.01-.64,1.07-1.96,1.75-1.95l11.94.05.02-11.63c0-.69,1.24-1.99,1.97-1.95l5.24.24c.85.74,1.03.84,2.44,1.11l.25,12.14,11.26.04c1.18,0,2.31,1.29,2.32,2.42l.02,5.26c0,.78-1.27,2.32-2.04,2.31l-11.61-.1-.06,12.64ZM79.01,60.14c.11-.78-.39-1.86-1.01-2.06l-2.34,2.28.4,1.83c.03.15,2.73-.58,2.95-2.05ZM90.98,73.99l-2.74.3c-.46.05-1.14-.98-1.4-1.68-.04-.37-1.56.65-1.26,1.03l1.14,1.44c.56.71,1.74,1.24,2.85,1.47l1.42-2.55Z"/>
    </g>
  </g>
</svg>