<?xml version="1.0" encoding="UTF-8"?>
<svg fill="#FFFFFF" id="b" data-name="Warstwa 2" xmlns="http://www.w3.org/2000/svg" viewBox="0 0 105.02 101.34">
  <defs>
    <style>
      .e {
        fill:#FFFFFF;
      }
    </style>
  </defs>
  <g id="c" data-name="icon-pixarts-survival-series">
    <g id="d" data-name="icon-pixarts-survival-series_1022">
      <path class="e" d="M39.62,88.96l-2.3-2.68c-.58.65-.76,1.57-.53,2.65-2.05.16-3.16,2.26-3.61,3.93l-13.04,8.48,5.77-23.49c.66-.1,2.04-.46,1.83-.71l-1.32-1.55,2.84-11.62L0,39.2l2.53-.5c.56-.11,1.18,1.05,1.47,1.56.91-.88,2.09-1.78,3.42-1.87l30.72-2.08,8.35-21.5,2.09.94c.39.17.86-1.32.68-1.71-.21-.47-.75-.83-1.89-1.55L52.37,0l14.44,36.32,15.7,1.11c-.7,1.26-.74,2.15-.21,2.54,2.61,1.89,2.43-2.67,5.15-2.45l17.57,1.4-18.13,15.38-11.37,9.54,8.94,37.2-19.01-12.11c-1.07-.68.52-3.58,2.3-3.46l-1.51-2.69-2.18,5.4-11.74-7.43-12.69,8.21ZM55.93,20.12c.18.48.69,1.28,1.19,1.84.27.3,1.23.03,1.32-.38l.44-2.01-2.96.55ZM31.43,41.43c-.24.45,1.49,1.51,1.98,1.2s1.31-1.34,1.28-1.93c-.02-.5-.84-1.31-1.25-1.63l-2.01,2.36ZM42.86,41.56l-2.08-1.66c-.45-.36-1.77-.78-2.22-.64-.36,1.86.89,3.73,2.14,4.2l2.16-1.9ZM79.05,44.29c.53-.28.41-2-.11-2.04l-2.61-.16c-.57,1.2,1.6,2.8,2.72,2.2ZM24.18,54.32c.21-1.11-.88-3.3-1.82-3.83l-1.46,1.79c-.3.37.33,1.65.64,2.01l.98,1.14c.23.26,1.6-.75,1.67-1.12ZM75.64,71.8l-1.93-2.17c-.46-.52-2.02-1.09-2.6-.52-.05,1.59.88,3.09,2.05,4.34l2.48-1.65ZM33.17,74.26c.19-.44-.08-1.68-.53-1.69s-1.43.59-1.65,1,.35,1.64.71,1.93,1.26-.75,1.47-1.24Z"/>
      <path class="e" d="M82.26,18.49c-.76,1.01-2.73,1.93-3.26,1.18l.76-3.33,3.14-2.39,1.23.73c.28.17,0,1.31-.2,1.59l-1.67,2.23Z"/>
      <path class="e" d="M11.12,70.83c-.9.9-2.85,1.54-4.24,1.22.15-1.3,1.4-2.77,2.51-2.96l1.79-.3c.49-.08.31,1.68-.05,2.04Z"/>
      <path class="e" d="M92.44,77.57c-2.16.49-3.9-.85-4.73-2.84,1.78-.91,4.17.18,4.73,2.84Z"/>
      <path class="e" d="M29.41,21.87c-2.21.33-3.84-1.83-3.5-4.05,1.75.52,2.9,1.76,3.5,4.05Z"/>
      <path class="e" d="M53.89,94.2c-.53-.36-1.28-1.06-1.41-1.56-.16-.6.42-2.17.81-2.49,1.31,1.03,1.52,2.39.6,4.04Z"/>
    </g>
  </g>
</svg>