<?xml version="1.0" encoding="UTF-8"?>
<svg fill="#FFFFFF" id="b" data-name="Warstwa 2" xmlns="http://www.w3.org/2000/svg" viewBox="0 0 93.76 80.56">
  <defs>
    <style>
      .e {
        fill:#FFFFFF;
      }
    </style>
  </defs>
  <g id="c" data-name="icon-pixarts-survival-series">
    <g id="d" data-name="icon-pixarts-survival-series_1102">
      <path class="e" d="M51.24,53.74c-.3.69-.71,2.53-1.26,3.1l-1.3,1.34c-.29.3,1.04,1.12,1.32,1.42l2.04,7.3-5.16,13.66-5.26-13.77,5.19-25.15,2.57,11.66,1.46-2.54-2.74-14.66,9.88-.89c.49-.04,1.1-1.59,1.04-2.11l-9.31.5,3.96-4.03,3.95,2.38-1.4-2.7c.07-.51.78-2.64,1.46-3.29l4.84-4.65,2.17,7.56-4.64,4.56c.3,1.39.33,2.49.13,3.86l1.24-.1,1.58,2.95-.2,1.79c-.05.44.77,1.04,1.42,1.26l3.64-7.96c3.85-1.78,7.72-3.24,12.43-3.95l-21.78,26.96c.71-4.34,5.34-12.44,4.76-13.14l-.93-1.13-1.31,1.85-3.41,7.39-2.87-2.17c-.15.46-.35,1.14-.36,1.13l-.7-.58c-.49.87-1.23,1.46-2.45,2.15Z"/>
      <path class="e" d="M74.5,4.68c-1.48,1.24-3.35,3.23-5.21,3.55l-7.56,1.3c-.71.96-2.05,1.62-3.35.56-3.29-.3-8.41,1.34-11.31,1.01l-22.43-2.56-5.78-3.82L32.34.04l22.29-.04,1.25,1.01c1.01.82-3.61,1.39-5.3,4.85,1.71-.24,2.46-.8,3.64-1.66l3.35-.51c1.82-1.23,3.85-2.49,5.74-3.22l11.19,4.22Z"/>
      <path class="e" d="M32.96,19.8l5.23-2.49.7,3.62c.05.25-.06,1.02-.08,1.26s.99.01.9-.05l.26-2.24c.12-1.01.04-1.46-1.2-2.72l8.31-3.55,13.85,6.02-5.59,4.88c-1.03-.83-2.14-.94-2.87-.05s-.94,1.85-.1,3.25l-5.53,5.46-13.89-13.38Z"/>
      <path class="e" d="M31.54,41.69l1.28-.35c.21-.06.81.41.97.54l1.25-.91c-.53-.61-1.17-2.4-.53-2.77l.83-.48c.13-.08.13-.69-.02-.65l-1.27.38c-.43-.07-.09-2.28.5-2.24l11.03.89-5.57,26.9-8.62-20.54c.06-.34.38-2.07.15-.79Z"/>
      <polygon class="e" points="11.94 19.08 13.02 17.74 13.16 12.63 23.69 10.91 29.19 18.94 11.81 26.99 11.94 19.08"/>
      <path class="e" d="M78.2,20.67l-1.21-.81c-1.07-.71-1.57,4.16-3.61,3.18l-8.73-4.18,5.35-7.98,12.05,1.87-.2,6.07c-.02.49-1.02,1.37-1.36,1.64l-.95.76c-.28.22-1.04-.33-1.34-.53Z"/>
      <path class="e" d="M25.87,35.01l9.34,23.21L13.49,31.4c4.25.27,8.13,2,12.38,3.61Z"/>
      <path class="e" d="M65.4,54.88c-2.41,4.58-.08,5.57-2.18,8.15l-12.72,15.58c1.24-4.11,2.16-8.26,4.19-11.71l19.26-24.27c-.14,2.64-4.31,9.87-4.11,9.86l-.98.02c-1.01,1.02-1.81,1.66-3.46,2.36Z"/>
      <path class="e" d="M26.49,57.66c.52-5.07-3.89-7.66-3.56-8.27l.92-1.7,15.45,19.38,3.78,11.21-16.58-20.61Z"/>
      <polygon class="e" points="44.16 33.64 27.93 32.67 31.3 21.24 44.16 33.64"/>
      <path class="e" d="M84.34,34.45l.93.6c.1.06.11.15.16.43l-13,16.2c-.05-2.14,1.11-3.37,2.09-4.83l9.18-16.93,9.23-4.1-5.29,6.99-.43-1.05c-.1-.24-.65-.29-1-.3l1.12,1.71-2.98,1.3Z"/>
      <path class="e" d="M18.4,45.64l-1.67.33L1.49,26.45c3.18.87,6.09,2.07,8.52,3.78l8.39,15.4Z"/>
      <polygon class="e" points="25.79 32.26 13.8 28.53 28.95 21.38 25.79 32.26"/>
      <path class="e" d="M89.98,24.32l-5.76,2.77-.24-2.98c-.04-.53.98-1.1,1.61-1.46-1.55-1.23-1.38-2.35-1.31-4.04.07-1.66-.4-3.23.04-5.38l9.44,9.59-3.73,1.4-1.3-1.93c-.25-.36-1.48.28-1.85.55l3.1,1.48Z"/>
      <path class="e" d="M75.93,25.89c-2.79,2.78-3.09,6.21-5.63,5.88l-3.21-3.3c-1.12-1.84-1.66-4.56-2.29-7.05l6.72,2.94,1.79.4c.83.18,2.02.75,2.62,1.13Z"/>
      <polygon class="e" points="10.01 18.7 9.73 27.24 0 22.76 6.41 16.3 7.07 20.05 10.01 18.7"/>
      <polygon class="e" points="42.13 13.09 31.06 17.99 26.74 11.13 42.13 13.09"/>
      <path class="e" d="M62.65,17.9l-10.54-4.51c2.47-1.56,5.56-.8,8.21.04.45-.59,1.53-1.61,2.22-1.69l4.52-.52-4.41,6.67Z"/>
      <polygon class="e" points="21.15 9.04 12.86 10.22 16.79 6.03 21.15 9.04"/>
      <polygon class="e" points="81.12 10.19 72.84 8.98 76.86 6.09 81.12 10.19"/>
    </g>
  </g>
</svg>