<?xml version="1.0" encoding="UTF-8"?>
<svg fill="#FFFFFF" id="b" data-name="Warstwa 2" xmlns="http://www.w3.org/2000/svg" viewBox="0 0 79.93 100.6">
  <defs>
    <style>
      .e {
        fill:#FFFFFF;
      }
    </style>
  </defs>
  <g id="c" data-name="icon-pixarts-survival-series">
    <g id="d" data-name="icon-pixarts-survival-series_1101">
      <path class="e" d="M57.37,91.02c-10.52,7.41-24.43,12.58-36.36,7.61l.49-1.92c.09-.34-1.46-.25-1.48-.13l.63.86c.17.24-.43.77-.66.86-8.64-3.71-14.98-10.29-18.29-19.03-1.3-4.66-1.97-9.98-1.6-14.4l.24-1.13c.06-.27,1.22.32,1.18.59l-.79,5.09c2.27.96,1.68,4.39,3.92,6.56l-1.19-5.35c-.26-1.17-.98-3.8-.34-4.86l5.06-3.73-3.27.65c.63-2.66,1.11-4.67.8-7.43l-2.44,7.63c-2.06-1.65-2.21-3.78-1.66-5.87,1.38-5.23,3.38-10.1,6.41-14.49l2.46,1.61,1.19,10.47.4-5.34,3.18-1.41-3.24-.8.3-4.03-4.01-.89,5.03-6.64c3.03,4.15,4.86,4.47,8.97,5.71-5.55,6.46-11.63,15.73-11.53,23.42l2.01-4.09.82,3.25c.29-.4.86-1.35.81-1.78s-.83-.98-1.5-1.47c3.04-7.21,7.46-13.59,13.28-19.1,7.97-.14,15.15-3.6,19.5-10.28,8.93-2.69,17.96-1.45,25.74,3.65-4.49-6.06-11.63-6.71-18.7-7.63-1.09-.14-2.63-1.77-3.88-.49l2.19.64-3.62.59-.39-5.04-.14-1.75c-.04-.49,1.39-.99,1.95-.9l6.02,1.02.05,1.89c1.03.67,3,2.07,4.16,2.44l3.9,1.22c.75-2.12-4.51-1.18-6.17-4.93,8.76,1.67,15.23,7.99,19.44,15.31.98,1.71,1.17,3.33.79,5.09,1.08.82,1.42,1.75,1.66,3.12l.63,3.62-1.56.42c-.23.06.26.96.5.95l1.55-.02c.63,6.51-1.19,13.4-4.12,19.36-1.15.82-2.18,1.88-2.77,2.92l-.67,1.18c-.13.23-.82-.89-.79-.95,3.65-6.57,5.53-13.75,4.66-21.19-1-7.85-5.93-14.06-13.64-16.23-6.61-1.86-14.21-1.23-20.15,2.45-2.88,1.78-5.45,3.23-8.52,4.65-6.53,3.01-11.32,8.65-15.07,14.62-4.05,6.43-6.29,13.5-5.73,20.98.83,10.98,9.2,18.76,20.18,18.92,6.62.1,12.95-1.67,18.81-5.47-.81-.3-2.17-.36-2.8-.12-3.71,1.37-6.59,2.03-10.89,2.79l1.42-2.5c0-.36-.29-1.53.12-1.72l1.81-.85c-.33-.22-1.2-.72-1.03-1.02l.91-1.59c11.03-4.97,19.64-13.71,24.82-24.69.56-1.18.85-2.21,1.22-3.48,1.68-5.92,2.26-11.44.2-17.81,9.99,8.21,7.16,24.74-.65,34.75-1.78-2.19-1.85-4.48-2.49-7.43-.8,1.9-.51,3.54-.15,5.35l.86,4.34-6.28,8.76c4.54-2.92,7.75-6.67,11.14-11.21.4.41,1.03,1.28,1.35,1.92-4.06,5.45-8.68,10.1-14.17,13.96ZM9.38,78.67l-.44-7.94c-1.93,7.35-.65,15.41,4.44,20.59-2.14-4.37-3.75-8.13-4-12.65Z"/>
      <path class="e" d="M31.43,10.72l-.37,2.6c1.81,2.74,1.39,5.42-.52,7.97-.8,1.07-1.16,3.58-1.52,5.06l-4.28,1.38-1.89-4.42c-.54-1.26-3.76-1.78-4.63-.42-.81,1.27-1.02,2.86-1.44,4.93-3.03-.8-6.23-1.94-9.08-3.47l4.05-5.75c3.08-.26,3.39,3.16,6.2,4.35l-.63-3.27,3.68.31c2.59-1.68,5.02-2.85,7.94-3.86-6.26-1.28-7.05,3.47-14.06.38l-1.98-.87c-.83-.37-1.89-6.41,3.16-9.34,5.86-3.41,11.31-5.02,17.72-2.12l-3.06,2.52c-.88.72-3.04,1.12-4.01.7l-1.16-.51c-.27-.12-.05,1.35.23,1.41l5.22.5,2.19-2.32.89,1.73.93-3.53,6.3,2.22c.71.25,1.28,2.68,1.03,2.8-2.16-.06-3.05.2-4.27,1.5l-1.8-.99c.57,1.26,1.28,3.19,1.98,4.02l2.66,3.14-4.43,4.89-2.91-1.44c1.38-4.77,1.29-5.93-2.14-10.09Z"/>
      <path class="e" d="M25.38,37.75c.15.06.73-.34.64-.47-1.25-2.02-3.91-3.23-5.95-6.13-1.39-1.97-1.57-5.39.86-7.09l1.63,5.31c1.96,2.1,4.45,4.66,7.43,5.82,2.67,1.04,7.32-.71,8.59-3.32,2.41-4.95,3.59-10.1,4.97-15.29l-3.97-4.21c2.55-1.28,5.4.4,6.81,2.49l-4.06,13.94,2.41-1.41c-2.94,9.64-15.67,13.96-24.81,10.64-1.92-.7-3.53-1.96-4.33-3.8l6.74,2.33,3.04,1.19Z"/>
      <path class="e" d="M26.29,29.75l7.02-2.68,1.79,2.46c1.28-3.14,1.96-5.58,4.58-7.44-1.06,3.22-2.07,6.18-3.72,9.06-.69,1.21-4.09,2.14-5.36,1.58-1.51-.66-2.5-1.5-4.31-2.99Z"/>
      <path class="e" d="M10.29,12.2c1.24,3.87.48,6.61-2.49,9.23.46-3.41.98-6.14,2.49-9.23Z"/>
      <path class="e" d="M7.04,14.81l-1.7,5.9c-.93-1.11-1.72-2.51-1.59-3.55.18-1.5,1.5-2.84,3.3-2.35Z"/>
      <path class="e" d="M16.78,29.76l1.62,3.32c-2.66-1.28-4.24-2.28-6.58-4.21l4.95.88Z"/>
      <path class="e" d="M36.19,2.73l-5.09-1.48c.57-1.07,1.92-1.47,3.25-1.12.81.22,1.63,1.41,1.84,2.6Z"/>
      <path class="e" d="M35.05,23.59c.12.57-.86,1.83-1.4,1.75-.71-.11-1.77-.44-1.92-.96-.19-.63.35-2.44.8-2.42l2.52,1.63Z"/>
      <path class="e" d="M36.96,92.04c.61.48.27,2.43-.66,2.55-6.51.81-13.08-1.15-17.22-6.45,7.19,2.39,13.67,1.66,20.87-.75.02,2.14-1.83,3.49-2.99,4.65Z"/>
    </g>
  </g>
</svg>