<?xml version="1.0" encoding="UTF-8"?>
<svg fill="#FFFFFF" id="b" data-name="Warstwa 2" xmlns="http://www.w3.org/2000/svg" viewBox="0 0 101.27 109.34">
  <defs>
    <style>
      .e {
        fill:#FFFFFF;
      }
    </style>
  </defs>
  <g id="c" data-name="icon-pixarts-survival-series">
    <g id="d" data-name="icon-pixarts-survival-series_883">
      <path class="e" d="M30.28,104.3l-20.41-6.39c-.09-1.26.06-2.57.32-3.75l-.55-2.88.41-13.65c.04-1.34.9-2.99,1.18-4.73l-1.65.88.11-43.97,2.41,2.2c-.06-3.06-2.67-1.36-2.51-7.91l.24-9.61,6.35-2.61,2.41,2.21,1.14-.88c.21-.17-.78-.58-1.02-.7l-1.68-.87,14.41-5.88.85.91c.09.1.12.03.14-.12l.16-1.25,1.93,1.68-1.24-1.98L46.02,0l.05,19.81c0,3.11-2.74,6.4,0,9.53l.02,44.28-1.43,1.83c-.41.53,1.78,1.44,1.43,6.3l-.35,4.81c-.13,1.74.82,3.83.03,5.45l-3.31-12.34-.46.87,2.24,8.7c.28,1.09,1,2.39,1.76,3.36v16.74s-13.53-4.35-13.53-4.35l-2.52-11.89c-.78,2.65,1.31,5.58-.04,9.28l1.21.7c.32.19-.65,1.22-.85,1.22ZM40.56,52.33c-.26-.58-1.51-1.35-2.08-1.3-2.13.21-3.39,4.36-1.83,8.13.27.65,1.57,1.38,2.18,1.29,2.18-.31,3.22-4.75,1.72-8.12Z"/>
      <path class="e" d="M71.11,59.39l-.09,1.41c-.02.3-.95.79-1.27.79l-16.97.07v-8.58c1.09.23,1.77.04,1.98-.74.5-1.85-1.58-2.53-1.99-7.42l25.75-.05-.17-11.25,10.28,8.69c.03,1.16.9,1.86,2.06,1.82l10.58,9.01-22.81,19.32.04-10.82-5.75.03-1.63-2.29Z"/>
      <path class="e" d="M2.23,90.63l-.27-.97c1.04.23,1.4.44,1.46.3l.47-1.11c.18-.42.61-1.39.44-1.78-.21-.47-1.16-.89-1.84-1.3l.89-1.08c1.24-1.52-1.53-.08-3.35-1.08L0,8.56c0-.77.39-1.94.77-2.34.46-.48,1.98-.58,2.8-.57l18.63.19c-5.22,2.6-10.12,4.28-15.23,6.4l-.08,84.38c0,.23-.34,1.27-.52,1.14l-.86-.61c-1.65.43-3.32.61-5.31.55l-.09-5.99,2.11-1.1Z"/>
      <path class="e" d="M72.48,41.17l-6.65.25.08-29.2-16.28-.08.07-6.56,9.54.09,11.78-.13c.42.64,1.43,2.83,1.43,3.84l.02,31.78Z"/>
      <path class="e" d="M72.32,99.18l-22.07.04c-.51-.79-.32-2.86.4-2.88l15.2-.07-.06-30.95,6.8.06-.16,16.28-1.56-.23c-.34-.05-.62.69-.63,1.04s.43,1.4.72,1.18l1.58-1.17-.22,16.7Z"/>
    </g>
  </g>
</svg>