<?xml version="1.0" encoding="UTF-8"?>
<svg fill="#FFFFFF" id="b" data-name="Warstwa 2" xmlns="http://www.w3.org/2000/svg" viewBox="0 0 98.7 65.25">
  <defs>
    <style>
      .e {
        fill:#FFFFFF;
      }
    </style>
  </defs>
  <g id="c" data-name="icon-pixarts-survival-series">
    <g id="d" data-name="icon-pixarts-survival-series_891">
      <path class="e" d="M77.55,16.34l-2.95.18,1.48-1.77c.01-.32.03-.68-.12-.67-3.37.22-1.68,5.47-5.27,7.79-.61-.6-1.15-1.14-1.63-1.36-.56-.26-2.18.76-2.35,1.32l1.97,1.98-8.45,7.34-1.5-1.86c-.31-.38-1.29.22-1.85.25l-.8.04c-.21.01-.27.84-.06.87l.99.14.81,2.41-6.28,5.34c-.95.81-3.45.65-4.45-.21l-19.03-16.27,1.01-.9c.15-.13.05-.84-.12-.74l-1.29.77-3.51-2.3c1.1-.22,1.76-.02,2.63.47l1.09.61c.22.12.96-.53.82-.74-.19-.28-.7-.79-1.02-.97l-3.64-2.01-1.2.82c-.29.2-1.14-.39-1.45-.65L4.32,1.65C8.08.15,12.25.25,16.42.98l3.48.61c-.96,1.3-.42,1.34.34.7l2.84.02-.22,3.51,1.61-2,2.2,2.77c1.78-1.62,2.41-3.14,2.04-5.42l17.05.16,9.98-.45c3.46,3.83,5.57-.99,11.38-.86l-1.64,3.97c.56.23,1.22.43,1.18.68l-.17,1.2c-.68,4.7-4.76,3.53-6.2,10.02,1.98-1.82,3.78-3.28,6.22-4.34,1.81-.78,2.52-2.3,3.65-3.91l2.59-3.67c2.1-.87,3.77-2,5.61-3.38l16.75.63-17.56,15.13ZM41.92,8.2c.27-.14.37-1.32.07-1.25l-1.08.24-3.7,1.55c1.37.5,3.7,0,4.71-.54Z"/>
      <path class="e" d="M68.29,64.15l-4,.2-6.48.51c-3.28.26-6.24-.33-9.53.22-2.03.34-3.78.01-4.67-2.13l-6.12-.83c-4.03,2.82-11.08,4.69-13.53,1.33l1.31-4.45-6.09,3.85c-4.44,2.81-9.96,2.65-15.27,1.64l32.34-30.18,8.28,6.83c2.85,2.35,7.05,2.25,9.84-.05l8.16-6.73,32.04,29.89c-3.76,1.07-8.46,1.3-12.29-.74l-3.33-1.78c-1.36-.73-3.48-.62-4.94-.52-.64-.66-1.67-1.36-2.86-1.71-1.13-3.31-2.75-6.77-6.36-8.47l2.63,5.27.86,7.87ZM55.55,62.71l-2.74-1.18c-.34-.15-.65,1.29-.3,1.41l1.44.47c.41.13,1.73-.29,1.6-.69Z"/>
      <path class="e" d="M1.23,34.35c-2.83-3.87,3.22-4.28,1.37-8.45,1.21-.14,3.61-.08,4.1.76l.9,1.54c.18.3,1.29-.29,1.29-.39-.92-.73-1.19-1.2-1.81-2.61s-3.07-2.95-3.86-4.26c-.89-1.48-1.02-2.38-2.75-3.31l-.2-3.71c-.08-3.41-.2-6.14.55-10.1l32.68,28.02L.95,62.13l-.95-13.17.46-10.19,2.05.28c.51.07,1.12-1.43.82-1.84l-2.1-2.86Z"/>
      <path class="e" d="M91.45,39.44c3.16.26,3.71-4.84,5.6-4.41,2.11.47,2.35,4.72-.16,7.48-1.93,2.12-1.9,7.16.7,8.68l.67,2.95c.18,2.5.05,5.24-.44,8.01l-32.45-30.25L98.16,3.75l-.14,10.15-.1,7.49c1.03,3.14,1.45,6.79-1.68,8.95-1.65,1.14-3.09,2.12-2.6,4.75l-2.19,4.35ZM93.66,23.56c2.01-1.27,1.33-3.19,1.44-4.95.08-1.21.13-2.06-.39-2.71l-.91,4.12c.39,1.23.24,2.03-.15,3.54Z"/>
    </g>
  </g>
</svg>