<?xml version="1.0" encoding="UTF-8"?>
<svg fill="#FFFFFF" id="b" data-name="Warstwa 2" xmlns="http://www.w3.org/2000/svg" viewBox="0 0 103.17 92.98">
  <defs>
    <style>
      .e {
        fill:#FFFFFF;
      }
    </style>
  </defs>
  <g id="c" data-name="icon-pixarts-survival-series">
    <g id="d" data-name="icon-pixarts-survival-series_896">
      <path class="e" d="M81.61,67.57c-.15.4-.63,1.75-1.02,2.15-1.1,1.02-2.71,3.11-3.69,4.81-2.66.59-6.39.74-9.06.18-2.23-.47-2.82-.38-5.03.33s-6.5.46-9.13.3c-.6-.04-1.49-1.6-1.91-2.02-1.1-1.07-4.04.17-4.42,2.02l-7.36-.31-11.11,8.78c-.37-.21-1.08-.63-1.06-.59.03.06.09.6.15,1.15l-4.2,3.07c-1.75-.93-2.52-1.39-4.85-1.42l3,3.02-5.65,3.95,3.22-17.76-6.82-.23c-7.64-.26-12.14-7.4-12.6-14.62-.21-3.28.06-6.1,2.87-8.63l-.67-5.78c-1.31-2.03-1.62-3.48-1.61-5.85v-2.08c.01-.46,1.38-.82,1.67-1.22,1.14-1.57,1.87-4.16,1.31-6.21-.38-1.41-2.48-3.29-3.22-4.53l-.35-7.21C-.13,14.74,0,10.75,2.2,6.95c1.75.91,2.93,2.07,5.51,1.72l-3.89-3.95C6.49,1.78,10.66,0,14.73.1l1.98,5.35.64-5.24L42.62.01l6.44.63,7.59-.64,16.44.23c.83,2.22,1.68,3.31,3.45,4.89l-3.32,7.06c4.51-2.75,4.52-8.4,9.27-6.53l4.19-5.38c4.65-1.02,9.9,1.03,12.93,4.84,3.62,4.55,5.15,13.62.97,17.17.98,4.09-1.51,6.87-.26,7.99l1.94,1.74c.45.4-.18,2.14-.1,2.8l.7,5.75.24,8.57-3.76,2.92,3.81.05-.42,9.29c-.14,3.11-1.05,5.73-3.07,8.45l-5.35-2.68c.28,1.75,2.03,2.73,4.12,3.64-1.7,2.1-5.06,4.45-7.92,3.55-1.71-1.57-3.62-3.86-6.53-3.36l-2.39-3.41ZM56.79,27.05l3.14-3.69-3.8.91-.35-4.54c-.04-.57-.78-1.62-1.26-1.91s-2.1-.28-2.53.13l-4.32,4.11-1.09-2.74c-.76-1.9-4.67.22-7.52,3.82l-.49-4.16c-.08-.68-1.18-1.81-1.84-1.87s-2.29.31-2.78.85l-6.19,6.98-.86-7.92c-.09-.86-.71-2.05-1.33-2.38-4.41-2.38-11.83,13.05-9.22,13.43.46.07,1.42-.58,1.72-1.05l5.39-8.27.9,7.2c.13,1.07,1.57,2.59,2.54,2.66s2.79-.57,3.39-1.23l5.05-5.61.64,4.46c.11.76,2.16,1.96,2.86,1.54,1.64-.98,3.6-3.05,4.92-4.4.46,1.34.93,2.74,1.46,3.34s2.61.27,3.17-.33l4.15-4.46.69,4.51c.08.52,1.21,1.45,1.73,1.46.43.02,1.53-.46,1.84-.83ZM86.67,24.55c.56-.01,1.59-1.24,1.48-1.77s-1-1.24-1.56-1.35l-5.62-1.11c-6.25-1.24-8.85,4.18-12.26,1.1-.65-.58-3.36-.36-3.12.46,1.32,4.41,6.39,5.03,9.71,2.78,3.22-2.18,6.02-.02,11.37-.11ZM98.07,29.04c-2.48,2.03-2.92,5.28-.85,7.93,1.41-3.14,2.23-5.24.85-7.93ZM60.97,41.08l4.43-3.9,2.74,6.61c.35.84,1.95,2.03,2.83,2.06.8.03,2.5-.78,2.91-1.51l3.99-7.15,2.85,5.94c.24.5,1.28,1.24,1.82,1.34,2.53.48,5.15-5.52,4.58-8.71-2.14,1.16-2.72,2.44-3.98,4.37l-2.31-4.79c-.42-.87-1.92-2.07-2.81-2.02-.8.04-2.46.95-2.88,1.7l-3.99,7.06-2.55-5.96c-.89-2.08-3.67-3.15-5.49-1.56l-4.29,3.74c-1.21,1.06-3.01,1.52-4.38.64-4.67-3.01-10.59-.35-9.65,1.81.92,2.12,5.19-.45,6.93.68,3,1.95,6.31,2.25,9.26-.35ZM34.53,38.88l3.3,3.58-.86-4.39c-.22-.76-1.54-2.07-2.33-2.2-.7-.12-2.22.43-2.78.99l-4.09,4.1-1.79-3.89c-.35-.77-1.56-1.78-2.32-1.94-3.87-.81-10.44,8.56-7.33,8.94.5.06,1.68-.28,2.08-.72l4.31-4.82,1.38,3.17c.49,1.13,1.72,2.57,2.86,2.7.92.1,2.87-.6,3.52-1.27l4.04-4.24ZM37.59,54.48c4.29-3.02,4.94,4.03,9.32,4.67,4.27.62,6.24-4.37,8.97-4.76,1.26-.18,3.37.45,3.65,1.09-1.27.14-1.35.4-.87.68l1.71.4c.28.07.46-.93.27-1.15l-.66-.72c-1.1-1.2-3.13-2.65-4.57-2.67-4-.06-6.1,3.96-7.9,3.6-.63-.13-1.77-1.16-2.1-1.74-2.03-3.49-5.83-5.06-9.26-2.61l-4.03,2.88c-1.32.94-2.63.87-3.77-.38-2.96-3.27-7.9-1.17-12.16,1.37-.44.26-.75,1.62-.46,1.97s1.44,1.02,1.87.84l4.44-1.79c1.84-.74,3.41-.64,4.75.8,1.37,1.48,3.93,2.37,5.72,1.1l5.08-3.58ZM84.85,61.03c-2.12-2.06-4.14-3.52-6.57-4.32,1.83,2.03,4.1,3.77,6.57,4.32Z"/>
    </g>
  </g>
</svg>