<?xml version="1.0" encoding="UTF-8"?>
<svg fill="#FFFFFF" id="b" data-name="Warstwa 2" xmlns="http://www.w3.org/2000/svg" viewBox="0 0 103.95 110.44">
  <defs>
    <style>
      .e {
        fill:#FFFFFF;
      }
    </style>
  </defs>
  <g id="c" data-name="icon-pixarts-survival-series">
    <g id="d" data-name="icon-pixarts-survival-series_878">
      <path class="e" d="M46.87,58.5l-2.19-5.79c-1.09-2.89-4.19-3.93-6.73-2.93-2.72,1.08-3.89,4.41-2.55,7.25,1.48,3.13,4.65,4.48,8.54,4.61,1.92,8.91,2.72,17.77,3.16,27.03l-5.95.13c-7.05.16-2.86-7.23-11.53-17.51-4.45-5.27-7.45-11.23-7.88-18.06-.58-9.2,2.14-17.95,8.95-24.1.71,0,2.08.17,2.03.7l-.21,2.52.47,1.31c.11.3-.32.77-.75,1.65,1.11.19,2.35-.54,2.96-1.72l2.17-2.35c-1.21-.49-2.45-1.02-3.11-1.59l-1.45-1.27c-.31-.28.69-1.44,1.08-1.59l1.38-.5c.27-.1.21-.58.53-1.34l.95,1.83c.4-1.11.82-2.36,1.42-2.93.53-.51,2.08-.65,2.87-.69.83-.57,1.99-1.37,3.11-1.66,12.1-3.14,25.08,1.16,32.16,11.02-1.47.24-2.67.53-2.75,1.06-.3,1.92,1.59,1.97,1.45,4.13-.04.58.03,1.35.34,1.42l1.14.26c-.29-.93-.5-1.65-.3-2.07.24-.49,1.54-.58,2.63-.57,4.91,8.79,5.05,20.51-.77,29.24-1.05,2.37-2.13,4.28-4.72,5.05-.1,2.22-1.59,3.72-3.32,3.85.25,1.06.17,2.28-.18,3.4l-2.25,7.28c-.3.96-1.36,3.11-2.42,3.11l-8.18.03c.35-9.09,1.33-17.7,2.95-26.56l4.53-1.3c2.61-.75,4.41-2.98,4.75-5.69.32-2.59-1.18-4.96-3.52-5.61s-5.4.26-6.21,2.9l-1.97,6.4c-2.31.21-5.19-.15-7.39-.71-.53.64-2.93,1.18-3.25.34Z"/>
      <path class="e" d="M53.97,88.24c-.81.54-2.52.6-3.66.36-.52-8.98-1.5-17.39-2.98-26.57l9.53.13c-1.76,8.64-2.44,16.89-2.88,26.08Z"/>
      <path class="e" d="M66.02,95.03l-27.16,2.32c-1.92-1.65-1.49-4.31.25-5.66l25.07.06,1.78.68c.5.19.48,1.76.07,2.6Z"/>
      <path class="e" d="M59.77,108.79l-20.09,1.65c-.83-.38-1.87-1.23-2.09-1.87s.92-2.1,1.68-2.17l26.36-2.36c1.2.77,1.1,3.31.03,3.92-1.26.72-2.88.88-3.71-.38-.37.49-1.29,1.07-2.18,1.2Z"/>
      <path class="e" d="M65.86,101.35l-25.41,2.33c-.65.06-1.76.05-2.14-.28-.46-.39-.72-1.64-.53-2.22s1.47-1.14,2.22-1.21l25.63-2.31c.86.79.97,2.53.23,3.68Z"/>
      <path class="e" d="M11.41,53.65l-9.2-.16c-.98-.02-2.18-1.71-2.21-2.63-.03-1.19,1.27-2.57,2.69-2.55l9.08.07c1.05,0,2.34,1.58,2.33,2.5-.01,1.2-1.2,2.8-2.7,2.77Z"/>
      <path class="e" d="M83.33,24.03c-1.03,1.07-2.88,1.1-3.66.46-1.37-1.13-1.34-3-.19-4.15l5.86-5.82c.8-.79,2.3-.95,3.23-.52s1.68,2.81.88,3.64l-6.13,6.39Z"/>
      <path class="e" d="M24.24,20.3c1.08,1.12,1.43,2.8.41,4-.64.75-2.82.99-3.69.09l-6.33-6.54c-.66-.68-.32-3.02.42-3.58,1.07-.8,2.85-.52,3.8.47l5.38,5.56Z"/>
      <path class="e" d="M54.58,11.16c0,1.35-1.52,2.63-2.64,2.57-1.03-.05-2.55-1.38-2.54-2.51l.06-8.8c0-1.13,1.47-2.45,2.49-2.42s2.63,1.29,2.63,2.33v8.83Z"/>
      <path class="e" d="M101.84,53.53h-9.9c-1.06,0-2.25-2.1-2.07-3.05.24-1.24,1.57-2.17,2.97-2.17l8.51.02c1.08,0,2.42,1.21,2.59,2.14.16.88-1.05,3.06-2.1,3.06ZM97.58,52.33l1.03-3.19c-1.56.47-3.21,1.32-4.27,2.36l2.1-.31c.29-.04.8.77,1.14,1.14Z"/>
      <path class="e" d="M66.17,55.11c-1.03,2.68-3.11,3.29-5.48,3.21.79-3.95,2.3-7.06,4.55-5.88.6.31,1.2,1.96.93,2.67Z"/>
      <path class="e" d="M43.39,58.33c-2.73.07-4.55-.76-5.46-3.24-.27-.73.38-2.27,1.15-2.67.71-.37,2.37.24,2.66,1.1l1.65,4.81Z"/>
    </g>
  </g>
</svg>