<?xml version="1.0" encoding="UTF-8"?>
<svg fill="#FFFFFF" id="b" data-name="Warstwa 2" xmlns="http://www.w3.org/2000/svg" viewBox="0 0 73.1 87.18">
  <defs>
    <style>
      .e {
        fill:#FFFFFF;
      }
    </style>
  </defs>
  <g id="c" data-name="icon-pixarts-survival-series">
    <g id="d" data-name="icon-pixarts-survival-series_886">
      <path class="e" d="M72.89,69.17l.1,12.24c.03,3.32-2.83,5.88-6.09,5.57l.22-2.56-2.05-2.28-2.9,3.42c-.35.41-1.17,1.94-1.49,1.57-.38-.42-.72-1.08-1.27-2.17l-3.33,1.74c-1.33.7-4.35.55-6.06.21-2.59-.51-4.55-2.93-4.54-5.54l.07-16.46-.03-16,.05-13.61-.09-29.96c0-3.1,3-5.4,5.89-5.33l10.1.23c1.18.03,2.29.25,3.48,0,2.78-.58,6.03.04,7.3,2.83,1,2.18,1.12,6.03.27,8.01-2.58,1.57-4.54,4.94-3.3,7.15l3.74,1.71.04,14.83-.1,27.05-2.45,3.77,2.25.02-2.61,1.57,2.8,2ZM67.93,26.28c.45-.41,1.04-1.62.67-1.93l-1.42-1.21c-.55,1.07-.84,1.67-.96,2.19-.1.43,1.39,1.26,1.71.96Z"/>
      <path class="e" d="M25.24,65.01l-.05,3.44c.1-.09,2.42.95,2.45,1.59l.02,11.34c0,3.31-2.81,5.54-5.83,5.58l-14.52.18c-3.83.05-7.27-2.01-7.22-6.25l.18-16.72-.07-19.11c4.5-.99-.19-4.41,1.72-10.23l-1.67-2.56L0,6.76C.14,3.01,2.32-.01,6.53.11c.3.24.9,1.71.6,2.18-.35.54-1.81.74-2.45.69l-1.35-.1c-.25-.02-.46.64-.27.81l1.06.98c.81-.53,1.87-1.07,2.88-1.01.8.04,1.14,1.64,1.08,2.78l1.48-1.88c.34-.44,1.93.6,2.23.87L13.29.05l9.14.02c2.57,0,5.19,2.42,5.2,5.18l.06,24.93.02,16.69c0,2.38-.71,3.43-2.65,5.8l2.57-1.01.09,12.92-2.48.43ZM6,16.26c3.69-2.14,6.62-4.57,9.24-7.47-3.48,2.1-6.52,4.63-9.24,7.47ZM23.76,61.73c1.23-2.15,1.06-4.41.19-6.73l-1.93,3.57c-.55,1.02.54,3.45,1.74,3.16Z"/>
    </g>
  </g>
</svg>