<?xml version="1.0" encoding="UTF-8"?>
<svg fill="#FFFFFF" id="b" data-name="Warstwa 2" xmlns="http://www.w3.org/2000/svg" viewBox="0 0 83.25 94.09">
  <defs>
    <style>
      .e {
        fill:#FFFFFF;
      }
    </style>
  </defs>
  <g id="c" data-name="icon-pixarts-survival-series">
    <g id="d" data-name="icon-pixarts-survival-series_885">
      <path class="e" d="M59.65,63.82l-3.83,2.29-26.07,15.52-5.02-1.57,1.72-4.47-3.28,4.48-5.58-1.74-1.24-.32c-.25-.06-.63.56-.78.79l7.39,1.83-2.87,6.37-11.05,6.51c-1.76,1.04-4.6.57-6.15-.51-4.21-2.93-2.55-17.07-2.63-25.09l-.13-12.13c1.25-1.08,2.25-2.24,2.58-4.06.23-1.28-1.18-3.11-2.4-4.29l.04-9.59-.17-11.43-.09-6.34.17-11.66,1.21-.53c.23-.1.71-.64.49-.76s-1.29-.53-1.37-.77C.06,4.98,1.22,2.27,2.48,1.33,4.05.14,6.86-.54,8.73.54l11.77,6.8,6.24,3.76-.39,2.66c-.08.53,1.49.99,1.87,1.37l2.1,4.04.9-1.34c.16-.23.35-.26,1.01-.58l-1.19-.93c-.36-.28-.1-1.35.21-2.65l11.17,6.41,27.91,16.14,1.85,4.4.44.12-.37-3.51,9.05,5.2c1.49.86,2.07,3.43,1.95,5.1-.11,1.48-1.22,3.59-2.8,4.51l-10.51,6.16c-.42-1.16-.84-2.07-1.31-2.3l.62,1.57c.15.38-1,.68-1.38.86l-3.84,1.86-1.46-2.89c-2.31,4.87-7.41,4.03-2.9,6.52ZM43.8,44.53c3.39-3.06,5.83-6.79,8.3-11.03-3.09,3.23-5.83,6.8-8.3,11.03ZM31.69,61.81l.69.02,4.47-6.51c.21-.31,1.46-.62,1.46-.93v-1.33c1.95-2.76,4.39-5.01,5.41-8.49-2.7,2.81-4.57,5.98-6.48,8.84-1.03,1.54-3.49,1.92-3.02,2.19l1.04.6-3.56,5.62Z"/>
      <polygon class="e" points="28.02 82.33 22.11 85.85 23.89 80.94 28.02 82.33"/>
    </g>
  </g>
</svg>