<?xml version="1.0" encoding="UTF-8"?>
<svg fill="#FFFFFF" id="b" data-name="Warstwa 2" xmlns="http://www.w3.org/2000/svg" viewBox="0 0 103.83 98.31">
  <defs>
    <style>
      .e {
        fill:#FFFFFF;
      }
    </style>
  </defs>
  <g id="c" data-name="icon-pixarts-survival-series">
    <g id="d" data-name="icon-pixarts-survival-series_964">
      <path class="e" d="M59.54,96.5l-.76,1.77-20.37-.04,1.48-17.09c3.35-1.9,6.64-2.69,9.15-5.81l-9.08,5.03.71-9.28,3-8.86.85-11.12,1.01,1c.47-1.3,1.26-2.67,2.28-4.17,0-.88-1.63-1.69-2.86-1.22l1.34-19.83-10.53,2.49,8.33-15.45,1.86,1.68c.22-1.08-.03-1.91-.93-3.09L51.9,0l10.38,18.96c-.21.63-.57,1.72-.56,2.16,0,.53,1.5.88,2.27,1.03l4.09,7.21-10.54-2.34,1.14,13.76c.25,2.97-2.55,5.23-1.29,5.67l1.62.57,1.06,14.5c.05.73.66,2.35.22,2.73l-2.29,1.99c.76-.25,1.59-.68,2.84-1.43l1.01,2.83-5.04,2.76.47.65,5.03-2.79c.7,2.17,1.14,4.31,1.3,6.53l1.64,23.46c-.9,0-2.46-.21-2.63-.38.61-1.23.18-1.91-.4-2.29-1.08-.72-2.31.05-2.69.93ZM48.19,73.96l.11-1.03-7.48,4.58.35.41,7.02-3.96Z"/>
      <path class="e" d="M17.88,97.69l-5.09.55-12.79.03,6.36-24.87c.23-.91,1.34-2.56,2.18-2.75,1.04-.23,2.73-.06,4.36-.02l-2.38-1.51,6.86-5.71,2.44-16.22-8.72,1.58,7.38-13.07c1.98,1.1,3.04,1.55,4.94,1.49l-4.31-2.72,5.98-10.19,10.6,19.7-2.03.84,1.76.97c.35.19.24,1.01.29,1.7l1.52.04c.32,0,.67.8.78,1.35l-8.25-1.63.25,16.01-6.2,8.26-1.32,15.65c-.43.27-1.09.66-.95.83s.79.92.78,1.14l-.71,8.8c-1.18.51-2.92.56-3.71-.25ZM9.74,94.66c2.4-.41,4.69-1.36,6.15-3.69l-6.15,3.69Z"/>
      <path class="e" d="M101.03,88.06l2.8,10.2-3.71-.05-.39-1.33c-.05-.16-.64.02-.59.18l.3,1.08-17.03.15c-1.44-4.72,2.31-7.7,2.87-12.45l-3.56,4.46-1.65-18.32-5.28-7.66c-.57-.82-1.13-2.25-.91-3.31.17-.79,1.36-1.43,2.43-2.15l-2.38.5.21-12.02-8.67,1.55,13.12-24.5c1.23,1.6,2.12,3.21,2.78,4.9-2.45,1.89-.82,4.34.83,6.65l.52-4.56,5.55,9.49,4.64,8-8.97-1.68,2.46,16.1,7.56,6.49c-.27.81-.03,1.97.81.68.34.12,1.94,1.27,2.38,1.87l3.16,12.2-2.56,1.24,3.29,2.27ZM82.87,51.37c.64.27.42.18-.38-.16l-5.05,3.93c2.96.01,3.66-1.15,5.43-3.78ZM91.06,85.37c1.05-2.76,2.6-5.2,2.44-8.23l-3.23,7.97-.37.91c-.08.2.72.48.8.28l.36-.94Z"/>
    </g>
  </g>
</svg>
