<?xml version="1.0" encoding="UTF-8"?>
<svg fill="#FFFFFF" id="b" data-name="Warstwa 2" xmlns="http://www.w3.org/2000/svg" viewBox="0 0 104.3 80.97">
  <defs>
    <style>
      .e {
        fill:#FFFFFF;
      }
    </style>
  </defs>
  <g id="c" data-name="icon-pixarts-survival-series">
    <g id="d" data-name="icon-pixarts-survival-series_858">
      <path class="e" d="M8.28,25.49c.6-.31,1.48-.47,1.65-.86.22-.49.8-1.83.78-1.8l-1.27-.79c-.16-.1.13-.67.32-.73l1.7-.6-3-1.11-.19-16.33L27.02.29c6.49-1.03,18.98,1.75,23.42,7.1l.05,65.26c-13.31-8.47-26.54-4.51-42.09-1.12l-.12-46.04ZM26.93,23.22c2.48,1.5,3.92,2.32,6.14,3.11l-5.43-4.14,4.3-6.45-.75-.32-5.04,5.92c-2.21-1.35-4.2-2.79-7.03-3.85l6.41,4.99c-2.57,3.43-5.01,6.9-6.9,10.92l8.31-10.2ZM43.66,48.37l-2.38-2.41.94,4.61,1.43-2.2ZM14.74,66.26c.41-.82.55-1.22.74-1.1l.91.63-.29-2.71-2.44-2.2-1.59,3.99-.42,1.06c-.06.16.71.34.86.25.25-.15.88-.73,1.13-.58l1.1.68Z"/>
      <path class="e" d="M95.78,71.46l-14.75-3.27-.62-1.41c-.11-.26-.95.73-1.17,1.04l-7.59-.17c-6.48-.15-12.52,1.57-17.98,4.95l.02-65.09c4.12-4.86,10.45-5.78,10.05-5.03l.61-1.14c4.13-.76,8.51-1.81,12.84-1.1l18.72,3.06-.07,50.71c0,.95-2.61,1.4-3.25,1.12l.45,2.73c.07.41.29,1.32.67,1.29l2.21-.18-.14,12.5ZM94.79,8.7l-1.81-2.13c-.63-.36-1.97.69-2.23,1.56-.2.66.08,1.74.4,2.82.17.57,1.51,1.52,1.87,1.1.91-1.06,1.91-3.18,1.77-3.35ZM74.76,39.08l8.23,4.79-2.18-9.41,7.31-6.46-9.61-.91-3.84-9.09-3.92,9.1-9.56,1,7.17,6.57-2.07,9.21,8.46-4.81Z"/>
      <path class="e" d="M104.21,11.76v5.38c-1.7.37-2.44.9-2.86,1.85l1.69.27c.3.05.54-.35.55-.58-1.21-.64-.73-1.32.69-1.14l.03,58.88c0,1.73-1.36,3.28-3.06,3.21l-26.97-1.23-12.06-.55c-6.55,5.04-13.61,3-20.18.55l-30.31.58-.68-2.3c-.15-.5-1.8-.2-2.15.18-.15.16.14,1.05-.07,1.04l-1.69-.15,1.12,1.57-5.72.32c-.88.05-2.45-1.65-2.44-2.48l.03-8.53,1.65.14c.33.03.61-.79.7-1.14l.27-1.14c.07-.28-1.09-.48-1.31-.29l-1.27,1.07L0,11.38c0-1.98,2.9-2.7,4.5-1.97l.07,64.02c0,.96.92,2.24,1.91,2.19l32.06-1.63c3.31-.17,5.68.44,8.7,1.9,2.72,1.31,7.01,1.24,9.76.02,2.81-1.24,5.12-2.07,8.12-1.92l19.64,1,13.09.57c.71.03,1.94-1.27,1.94-2.02l.08-20.29,2.12,2.65.87-4.37-3.04,1,.02-35.57,2.2.09c-.6-1.55-.8-2.04-2.1-2.66l-.11-4.91c.49-.19,2.08-.28,2.83-.09s1.55,1.59,1.55,2.36Z"/>
    </g>
  </g>
</svg>