<?xml version="1.0" encoding="UTF-8"?>
<svg fill="#FFFFFF" id="b" data-name="Warstwa 2" xmlns="http://www.w3.org/2000/svg" viewBox="0 0 98.76 100.16">
  <defs>
    <style>
      .e {
        fill:#FFFFFF;
      }
    </style>
  </defs>
  <g id="c" data-name="icon-pixarts-survival-series">
    <g id="d" data-name="icon-pixarts-survival-series_998">
      <path class="e" d="M64.68,97.9l-7.16,1.72.24-3.82-5.6,4.27c-13.82.88-27.01-4.26-37.28-14.33l-9.5,8.59-1.13-9.61c1.85-.97,2.9-3.28,1.47-4.65-.35,1.22-.69,2.04-1.87,2.3L.82,58.41l34.8,7.61-9.75,9.1c11.35,11.21,28.79,12.88,42.2,4.1,9.25-6.05,15.09-15.57,15.64-26.86l6.97,1.33,1,3.29,1.32-2.79,5.77,1.34c-.39,7.01-2.87,13.14-6.22,19.44l-1.94-2.11-2.21,3.11,2.85,1.12c-5.92,9.53-14.82,16.36-25.57,20.32l1.54-4.22c.11-.3-.94-1.22-1.18-1l-1.39,1.24c-.34.3-1.02,1.16-1.17,1.59-.18.51.3,1.18,1.21,2.88Z"/>
      <path class="e" d="M63.46,33.68l9.69-9c-11.99-11.19-29.45-12.72-43.16-3.45-8.73,5.9-14.15,15.5-14.73,26.21l-4.24-.73-1.3-1.15-2.15.5-7.57-1.46C1.29,30.66,8.31,18.78,19.1,10.26l2.6,4.57.86-3.11c1.42-.01,2.61-.37,3.16-1.15-1.71-.77-2.49-1.12-3.84-2.22,5.84-3.57,11.39-6.06,17.99-7.3-.07,1.79.68,3.38,1.68,3.51,1.39-1.21,1.92-2.56,1.79-4.19,8.94-1.03,17.88.1,26.01,3.9l1.12,2.96,1.12-1.91c4.41,2.15,8.42,5.11,12.43,8.8l9.52-8.57,1.18,9.98,3.41,26.02-15.73-3.71-3.09-.73.23-2.37-2.19,2.1-5.1-1.05c-.24-.05-.57-1.47-.78-1.34l-1.35.84-6.66-1.59ZM74.67,12.61l-3.04-3.91.51,4.37,1.9.42c.28.06.46-.41.63-.88ZM90.92,18.86c.99.55,1.82.85,2.29.71.39-.12.47-1.24.39-1.64s-.97-1.12-1.22-.82l-1.45,1.75Z"/>
    </g>
  </g>
</svg>