<?xml version="1.0" encoding="UTF-8"?>
<svg fill="#FFFFFF" id="b" data-name="Warstwa 2" xmlns="http://www.w3.org/2000/svg" viewBox="0 0 100.97 100.82">
  <defs>
    <style>
      .e {
        fill:#FFFFFF;
      }
    </style>
  </defs>
  <g id="c" data-name="icon-pixarts-survival-series">
    <g id="d" data-name="icon-pixarts-survival-series_884">
      <path class="e" d="M97.26,97.96l-1.5,2.76c-.51-.25-.89-.39-.92-.53l-.19-.91c-.38.4-1.36,1.5-1.83,1.47l-4.31-.26-.07-50.27c0-2.32-1.78-4.65-4.35-4.65H16.88c-2.44,0-4.39,2.5-4.39,4.69l-.04,50.37-8.53-.18c-2.51-.05-3.93-2.81-3.89-5.1l.28-14.51c1.17-2.96,3.99-5.26,4.37-8.72L.19,77.42l-.08-9.26.84-4.17c-.43-1.09-.92-2.47-.92-3.8L0,6.12c0-1.9.55-3.47,1.52-4.7l.64,1.13c.14.24.56.43.83.57l.08-2.69L12.46.08l-.02,31.54c0,2.52,1.88,4.54,4.48,4.54l56.11-.02c2.84,0,5.16-2.65,5.16-5.42l-.05-27.98h2.63c.63,0,.93-1.76.93-2.75l9.84.08,9.43,9.33v10.81c-.01,1.33-1,3.21-1.69,4.43.16.02,1.62,1.11,1.62,1.58v10.36s-2.2,1.8-2.2,1.8c.89.93,2.16,2.49,2.17,3.86l.1,29.5c0,1.45-.68,2.86-1.48,3.81-1.12,1.34.24,3.32,1.28,4.39l.18,14.92c.03,2.14-2.09,4.78-2.62,4.65-.32-.07-.61-.69-1.07-1.58ZM9.13,11.47l-3-6.42-2.92,6.48c2.9.73.54,3.82,2.36,4.35,3.64,1.07.5-3.28,3.56-4.41ZM86.55,14.56l-1.3-1.84c-.1,1,.09,2.46.57,2.5l1.66.14c.34.03,1-.63,1.06-.96s-.67-.76-.94-.57l-1.05.73ZM96.9,39.23c.1-.2-.09-.27-.35-.25l-1.14.12c-1.18-2.69-1.69-5.7-3.81-8.17l2.79,8.68,3.64,8.55c-.11-4.69-2.89-5.6-1.12-8.93ZM9.37,94.44l-.12-4.89H3.55s.06,4.93.06,4.93l5.76-.04ZM97.21,94.55l-.08-5.03-5.75.1.21,4.9,5.62.03Z"/>
      <path class="e" d="M75.87,96.91l-5.13,2.76-3.48-.76.07,1.24c.02.28-.99.56-1.33.56l-50.7-.05v-49.92c0-1.45,1.44-2.48,2.79-2.47h65.31c1.48,0,2.51,1.49,2.51,2.91l.04,49.35-6.4.27-3.12-1.63.99-1.28c.23-.3-1.17-1.2-1.55-.99ZM31.14,75.99l-3.11,5.06,4.54-5.15,45.47-.07c.61,0,1.57-.84,1.56-1.32s-.97-1.33-1.55-1.33l-43.05-.02,7.4-10.36,35.65-.04c.55,0,1.54-.82,1.53-1.3s-.99-1.31-1.5-1.31h-33.27s3.18-4.65,3.18-4.65l-.36-.31-3.98,4.96-20.82.06c-.46,0-1.35.79-1.35,1.24s.92,1.33,1.39,1.33h18.59s-5.05,6.67-5.05,6.67l-7.24-.38-.38.59,6.81.49-1.94,3.06-10.76-.02c-.54,0-1.44.87-1.45,1.33s.84,1.37,1.37,1.38l8.3.1ZM65.54,84.87l-3.92-5.69c.36,2.43,1.48,3.72,2.85,5.93-.01.75.98.53,1.07-.24ZM78.33,89.05c.57-.34,1.22-1.05,1.25-1.51s-.93-1.04-1.58-1.18l-55.51.04c-.44.22-1.26,1.23-.96,1.54l1.08,1.14,55.71-.02Z"/>
      <path class="e" d="M75.34.12l.05,30.24c0,1.83-1.58,3.03-3.36,3.03l-40.58-.02c-2.15,0-3.39-1.78-3.38-3.73L28.11,0c1.02.58.92.7,1.42,1.68l.83-1.65,4.42.33c1.35.1,2.82.02,4.24-.27l36.33.02ZM68.83,29.9l-.09-24.94-9.81-.21c-.43,0-1.43.1-1.56.46l-.49,1.34.12,23.45,11.84-.1ZM44.95,27.3l.52-.43-2.34-6.27,6.17-6.02-6.64,5-3.29-8.06-.57.4,3.13,8.57c-3.25,2.68-5.78,4.72-8.02,7.41l4-2.72,4.32-3.93,2.73,6.05Z"/>
    </g>
  </g>
</svg>