<?xml version="1.0" encoding="UTF-8"?>
<svg fill="#FFFFFF" id="b" data-name="Warstwa 2" xmlns="http://www.w3.org/2000/svg" viewBox="0 0 105.76 105.37">
  <defs>
    <style>
      .e {
        fill:#FFFFFF;
      }
    </style>
  </defs>
  <g id="c" data-name="icon-pixarts-survival-series">
    <g id="d" data-name="icon-pixarts-survival-series_984">
      <path class="e" d="M60.11,94.95l-1.44,8.38c-.1.6-.43,1.32-.75,1.65-.4.41-2.29.61-2.39.05l-.48-2.59-3.92-.29c-.52.15-1.33,1.77-1.61,2.76l-1.47.22c-.44.07-.86-1.12-.94-1.56l-1.49-8.77-2.19-.48c-.04-1.12-.28-2.65-.58-2.85l-1.53,1.98c-.37.49-1.96-.22-3.02-.82l-7.1,8.2-8.99-5.12,1.01-4.13c.09-.38.55-1.27.74-1.57s1.32.16,1.37.19l.02-4.74-2.3-2.41,3-1.1c.84-.64.37-2.9-.66-3.56l-2.37,4.76-3.04-3.26-9.88,3.61-5.41-9.32,7.9-6.77-1.98-7.44-7.9-1.79.17-3.34c.03-.54-.14-1.72-.38-2.17-.27-.52-1.31-.57-2.51-.43l.27-4.91,10.32-2.03,1.95-7.48-7.8-6.74,5.29-9.45,9.84,3.44,5.58-5.36-3.43-9.98,9.23-5.28,6.8,7.93,7.58-2.01L47.38.13l10.85-.13,1.9,10.3,7.54,2.15,6.65-7.97,4.71,2.41-2.25,3.67,3.93-2.1c.81-.43,2.56.98,2.91,2.23l-2.59,1.53c-1.84,1.08-3.22,2.25-2.42,5.34l-1.37-.99c-.28-.2-1.49.44-1.67.68l2.41,1.8,3.63-4.17-1.45,4.81,1.13,1.27-2.26,4.28c-.09.18-.14,1.04,0,1.15l.58.43c.87.66.33-2.74,2.47-5.29l3.77,3.7,9.6-3.58,5.5,9.32-7.87,6.92,2.11,7.4,8.64,1.6c.62.11,1.52.77,1.67,1.3.16.57-.11,2.1-.45,2.21l-3.53.59.87,3.25,3.37-1.24-.69,4.94-9.94,1.96-2.01,7.52,7.89,6.81-5.4,9.14-9.72-3.37-5.67,5.34,3.45,10.04-9.3,5.5-6.55-8.05-7.7,2.11ZM76.62,45.25c-2.46-8.04-8.57-13.79-15.24-16.11-8.56-2.98-16.83-1.38-23.56,3.68-10.28,7.74-12.66,21.85-6.27,32.53,6.48,10.82,19.88,15.04,31.39,9.94,11.33-5.01,17.47-17.67,13.68-30.04Z"/>
    </g>
  </g>
</svg>