<?xml version="1.0" encoding="UTF-8"?>
<svg fill="#FFFFFF" id="b" data-name="Warstwa 2" xmlns="http://www.w3.org/2000/svg" viewBox="0 0 106.06 93.9">
  <defs>
    <style>
      .e {
        fill:#FFFFFF;
      }
    </style>
  </defs>
  <g id="c" data-name="icon-pixarts-survival-series">
    <g id="d" data-name="icon-pixarts-survival-series_993">
      <path class="e" d="M83.6,69.18c-.18-.27-.99.5-1.07.87l-.84,4.2-14.66,4.47c-7.11,1.54-14.01,1.82-21.39.83-.9-.12-2.34.62-2.95,1.3-3.42,3.84-7.32,6.77-11.83,8.82-.33-1.62-1.33-2.22-2.33-1.94l-.04,3.02-10.79,3.13c-.52.15-2.12-.39-2.41-.82-.35-.52.13-1.7.59-2.38l4.45-6.51,2.03-.81c.48-.19-.24-1.52-.5-1.98l1.54-8.16C10.26,66.71-.71,54.12.04,39.32c.19-3.84,1.28-7.22,2.07-10.99l3.93-.41c.99-.1,1.73-.86,1.44-2.23-.16-.75-1.05-1.17-2.91-1.35C8.71,14.91,20.81,6.81,31.05,3.54,38,1.49,44.86-.16,52.06.01c.53.49,1.45,1.34,1.87,1.15l1.84-.84,1.84,1.2c.41.27,1.41-.86,1.94-1.27,6.34.64,13.4,2.14,19.43,4.7l3.74,2.08c.86.48.47,3.28.24,3.79l2.41,1.89c1.9,1.49,3.17-2.68,5.79-.88,7.36,5.07,14.15,15.4,14.9,24.31-2.88,2.1-.36,4.02-2.21,5.08-.54.31-1.37-.42-1.76-1.38l-1.13,1.71,1.68.63c.4.15.47.96.58,1.47l2.74,1.8c-.95,6.91-4.33,13.19-9.36,17.78l-1.87-.19c-.46-.05-.18,1.47.07,2.19l-5.86,4.86-3.62.96c-.48.13-1.36-1.35-1.71-1.88ZM31.61,15.2c.84-.75,1.56-1.57,1.89-2.31.24-.54-.94-1.36-2.05-1.74l.16,4.05ZM29.56,14.74c-.16-.52-.93-1.41-1.39-1.65-.35-.19-1.3.18-1.35.58-.13,1.02,2.15,2,2.73,1.07ZM79.66,13.51c-1.6-.4-3.11.5-3.55,1.82-.2.59.17,1.89.62,2.48,2.81-.89,3.89-4.06,2.93-4.3ZM87.78,16.47c-1.28-.15-2.79-.05-3.97.2.73,1.51,1.95,2.51,3.52,2.5.77,0,1.18-2.59.45-2.7ZM30.23,56.73l-4.03,2.85,1.32,1c.43.32,2.81-1.15,2.71-3.85ZM22.12,59.47c-1.01-.78-2.82-.43-3.72.39s-1.27,2-1.08,3.14c2.34-.32,4.02-1.36,4.8-3.53ZM68.89,70.93l-3.48-1.78c.11.86.53,2.23,1.01,2.84.42.53,2.27-.38,2.47-1.05ZM64.09,74.77l-.92-1.92c-.26-.54-1.75-.89-2.32-.69-.49.17-1.15,1.5-.74,1.82.85.67,2.4.85,3.98.8Z"/>
    </g>
  </g>
</svg>