<?xml version="1.0" encoding="UTF-8"?>
<svg fill="#FFFFFF" id="b" data-name="Warstwa 2" xmlns="http://www.w3.org/2000/svg" viewBox="0 0 71.08 105.78">
  <defs>
    <style>
      .e {
        fill:#FFFFFF;
      }
    </style>
  </defs>
  <g id="c" data-name="icon-pixarts-survival-series">
    <g id="d" data-name="icon-pixarts-survival-series_881">
      <path class="e" d="M66.06,100.54c-.05.09-.6,1.57-.73,2.19-.14.71.94,1.79,1.73,2.75l-6.23-.25-1.2-5.03-2.71,1.9c.27,1.06.58,2.19.37,2.7-.24.59-1.56.93-2.37.93l-44.38.03c-1.48,0-2.31-.38-3.44-1.45-1.31,1.58-5.16,2.3-6.49,0-.87-1.51-.65-4.59-.34-6.29.36-2.02,2.14-2.61,4.16-2.09,1.48-15.41,2.92-22.12,13.66-32.86l7.27-7.27c1.66-1.66,1.57-4.39-.19-6.14l-7.74-7.72C7.6,32.14,5.84,23.59,4.42,9.96c-2.11.6-4.17-.43-4.22-2.49L.09,2.41C.06,1.07,2.01.04,3.42.04L41.05,0c1.81,2.63,2.31.08,7.14.12l4.69.03L67.94,0c.88,0,2.9,1.11,2.9,2.02l.02,4.9c.01,2.49-2.36,3.27-4.22,3.33l-2.26,13.75c-1.07,6.5-4.66,11.85-9.3,16.39l-8.84,8.66c-2.19,2.14-2.24,5.27-.14,7.33l7.07,6.95c10.26,10.08,12.01,17.93,13.24,32.27,1.16.07,2.83.36,3.42.95,1.63,1.66,1.79,5.98-.37,8.25l-1.16-2.02-2.25-2.24ZM23.27,97.1c.7-.54,2.22-1.53,2.93-1.53l36.42-.02c-.81-13.28-3.28-21.59-13.16-30.5-5.11-4.61-11.36-10.02-7.54-16.25,1.54-2.51,3.7-4.32,5.78-6.36l4.51-4.42c3.96-3.88,7.35-8.25,8.25-13.79l2.29-14.01-5.84-.02,3.46-6.08-.72-.44-1.97,2.8c-.84.93-1.16,1.39-1.03,3.75l-48.23.06c.33,6.69,1.42,13.63,4.68,19.96,2.03,3.95,5.16,7.1,8.28,10.22l6.76,6.76c3.35,3.35,2.88,8.54-.52,11.91l-9.29,9.18c-7.45,7.36-9.41,17.23-9.87,27.33l10.66-.05,2.34,2.2.45-2.04c.06-.28.76.36.91.61l.44.72ZM10.59,6.97l-1.5-.86c-.3-.17.26-1.22.66-2.1l-3.07.85c1.06,1.68,2.69,2.75,3.9,2.11Z"/>
      <path class="e" d="M58.44,92.34H12.77c1.21-4.15,3.85-7.75,7.31-10.27l11.02-8.04c3.03-2.21,2.87-4.35,4.44-5,.92-.38,1.11,2.54,4.48,4.96l8.77,6.29c4.26,3.05,7.69,7.01,9.65,12.06Z"/>
      <path class="e" d="M34.85,54.89l1.78,2.06-2.28.02c.22-4.37-.33-8.41-3.39-11.54l-6.18-6.32c-3.07-3.14-6.08-6.15-8.48-9.94,9.71-4.5,16.96,3.16,26.01,3.15,4,0,7.53-.99,11.74-1.77-5.21,8.03-15.37,12.97-16.95,21.27-.31,1.62-.11,2.18-2.25,3.07Z"/>
    </g>
  </g>
</svg>