<?xml version="1.0" encoding="UTF-8"?>
<svg fill="#FFFFFF" id="b" data-name="Warstwa 2" xmlns="http://www.w3.org/2000/svg" viewBox="0 0 81.63 107.94">
  <defs>
    <style>
      .e {
        fill:#FFFFFF;
      }
    </style>
  </defs>
  <g id="c" data-name="icon-pixarts-survival-series">
    <g id="d" data-name="icon-pixarts-survival-series_997">
      <path class="e" d="M74.72,38.04l-2.27,2.93.84,3.9,1.88-.49-1.35,13.99c-1.89-.7-2.61-.95-3.96.22l3.84,1.63-3.5,38.02-.84-.81c-.11-.11-.44-.13-.6-.15-.23-.03-.22.92-.05,1.09l1.27,1.31c.13,4.53-3.62,8.3-8.09,8.12.12-1.04.15-1.94-.19-2.31-1.39-1.52-2.39,3.35-6.94,2.3-1-.23-2.3.06-3.4.07l-30.97.04c-.38-3.19-.56-5.47-2.28-8.19l.27,8.1c-4.02-.83-6.39-3.78-6.76-7.77l-5.86-63.47,2.11-2.08-2.43-2-.6-5.65,12.82.09,2.02,1.22-1.22-1.27,3.77.03-.29,1.33,1.54-1.38c.43-.39,2.45.29,2.12.67.05,1.49,1,1.02.87-.52l9.6-.06,1.97,2.68,1.94-2.75h22.71s-1.99,2.98-1.99,2.98c-.23-.3-.62-.8-.6-.76.02.03-.52.51-.5.47s.09.12.43.72l-3.25,4.55c-1.58,2.22-3.65,4.07-4.49,6.73l7.22-8.93,4.27-5.78,13.02.05-.89,8.68c-.08.82-.54,1.63-1.18,2.46ZM28.48,94.44l-1.35-18.83c-.05-.7,1.5-1.09,2.13-.78l6.45-7.3-3.76,2.62-4.95,4.11-2.59-36.13c-.11-1.51-1.77-2.51-2.92-2.67-1.03-.14-3.64.8-3.54,2.19l2.57,37.91c.06.89-.58,2-1.18,2.52l-5.15,4.51c3.02-.37,3.95-3.07,6.48-4.39l1.24,16.86c.15,2.01,1.67,3.39,3.53,3.28,1.97-.12,3.2-1.61,3.04-3.92ZM46.04,88.52l.77-1.26c.18-.3-.62-1-.88-1.27l-1.89-1.93v-45.89c0-1.82-2.04-2.85-3.45-2.74-1.17.1-3.03,1.03-3.03,2.63l-.02,56.49c0,2.07.86,3.25,2.8,3.76,1.17.31,3.6-.72,3.63-2.39l.19-9.97c.58.11,1.8.62,1.82,1.04l.06,1.52ZM59.67,95.72l4.09-56.21c.16-2.16-.95-3.6-2.76-3.97-1.47-.3-3.51.53-3.66,2.49l-4.25,56.99c-.14,1.92,1.54,3.14,3.14,3.33,1.2.14,3.3-.65,3.44-2.62ZM27.06,66.6l.61.21,4.68-5.49-.32-.85-4.97,6.13ZM64.94,104.17l-3.17-2.38-.25,2.72,3.42-.35ZM57.02,106.37c.07-.41-.2-1.43-.38-1.8-.14-.3-1.09-.38-1.31-.18-.32.85-.35,1.93,0,2.29.3.3,1.61.11,1.67-.3Z"/>
      <path class="e" d="M79.06,14.27c2.29,2.19,2.92,5.34,2.39,8.87l-14.73-.05,2.07-3.09c-2.11-1.6-.17,3.17-5.98,3.16l-62.44-.03c-1.05-3.64.1-8.29,3.96-10.19,1.99-.98,5.13-.8,7.11-.57l1.56,3.83c.76-.98,1.14-1.43.93-1.76l-1.31-2.12,11.97-.08c.04-2.46.09-5.31.96-7.5C26.84,1.48,30.05-.03,33.25,0l16.65.15c2.95.03,5.91,2.9,6.53,5.62.5,2.22.62,4.26.78,6.47l7.07.09c.54,0,3.49,3.61,2.96,1.33l-.33-1.41h7.28s-4.07,5.31-4.07,5.31c2.32,1.15,3.15-3.51,5.55-3.2.65.08,1.11,1.17,1.82,2.52l1.56-2.62ZM51.6,12.29l-.07-4.29c-.03-1.49-1.71-2.63-3.14-2.63l-15.16-.03c-1.49,0-3.13,1.12-3.12,2.7l.04,4.22,21.47.04Z"/>
    </g>
  </g>
</svg>