<?xml version="1.0" encoding="UTF-8"?>
<svg fill="#FFFFFF" id="b" data-name="Warstwa 2" xmlns="http://www.w3.org/2000/svg" viewBox="0 0 86.15 86.38">
  <defs>
    <style>
      .e {
        fill:#FFFFFF;
      }
    </style>
  </defs>
  <g id="c" data-name="icon-pixarts-survival-series">
    <g id="d" data-name="icon-pixarts-survival-series_922">
      <path class="e" d="M73.85,44l.14,14.94c.04,3.76-2.93,7.13-6.99,7.13l-47.46.06c-4.96,0-7.52-3.53-7.52-8.1V25.81s3.69-2.62,3.69-2.62l-.56-4.69c-.13-1.05-1.94-2.45-3.12-3.19l.21-8.88c.11-4.54,4.88-7.18,8.93-6.25l1.6,3.39-.59,3.29c1.23-.12,2.28-1.01,2.82-1.84.45-.69.12-2.55.01-3.71-.07-.75,1.8-1.24,2.75-1.24l39.29-.06c3.53,0,6.89,2.96,6.88,6.63l-.08,33.39v3.95ZM66.84,9.47l.57-2.47c-1.39-.98-3.51-1.55-4.48.35l3.91,2.12ZM36.99,53.99c-.29.32-.14,2.09.06,2.21l12.29.02-.19-25.63c5.09,1.26,8.93,2.41,14.06,2.89-1.99-3.17-4.35-4.74-6.34-7.37l-2.4-3.18c-1.67-2.22-6.41-.79-3.53-3.9l-7.93-8.99-13.14,14.84c.02,1.6-.85,2.84-2.46,2.92-1.67,1.79-2.89,3-4.3,5.7,4.91-.7,8.75-1.69,13.74-2.86l.02,10.77c0,2.18-.01,3.96-.57,6.11l2.24,2.55c-.07.44-.29,1.24-.07,1.46l1.14,1.12-2.61,1.33ZM66.73,61.21c.45-.68-.72-2.62-1.68-2.33-.57.17-.9,1.63-.48,2.04s1.86.75,2.16.29Z"/>
      <path class="e" d="M31.76,83.7l-1.7,2.11c-.46.57-3.29-.46-2.77-.98l1.37-1.39c.29-.3.05-1.28-.36-1.34l-3.7-.54-2.03.56c.16,1.74,4.11,1.87,3.26,2.75l-1.33,1.37-15.57.13-4.24-.76,10.13-16.9,3.68.46h47.56c3.28,0,6.02-.62,8.16-2.69,2.33-2.25,2.94-4.99,2.94-8.46l.04-51.66,6.62,5.94c2.15,1.93,3.38,7.7,1.17,9.46,3.99,5.02-4.75,4.61-3.46,8.67l1.57,1.03c.42.27-.16,1.56-.5,2.06-1.68,2.48,1.81,3.4,2.3,4.57s-2.11,3.82,1.13,7.97l-.08,33.02c0,4.12-3.3,7.19-7.35,7.17l-45.46-.19-1.39-2.4Z"/>
      <path class="e" d="M.1,78.45l.25-9.81c.07-2.96.79-5.63-.21-8.56L0,19.89c-.01-3.63.77-6.44,3.55-8.87l5.36-4.69.02,53.74c0,2.52,1.22,4.53,3.08,6.43L1.99,83.52c-1.14-1.43-1.94-3.21-1.9-5.07Z"/>
    </g>
  </g>
</svg>