<?xml version="1.0" encoding="UTF-8"?>
<svg fill="#FFFFFF" id="b" data-name="Warstwa 2" xmlns="http://www.w3.org/2000/svg" viewBox="0 0 101.98 101.7">
  <defs>
    <style>
      .e {
        fill:#FFFFFF;
      }
    </style>
  </defs>
  <g id="c" data-name="icon-pixarts-survival-series">
    <g id="d" data-name="icon-pixarts-survival-series_961">
      <path class="e" d="M89.55,100.94c-3.12-4.82-.59-9.81-3.13-13.33.05,3.39.1,5.7-1.02,9.39l-9.51-8.94-6.92-6.92,3.05-.93c-1.1-1.01-2.51-1.05-4.2-.62-4.37-3.18-7.77-5.54-6.35-10.58l-5.62-5.67c-3.45,2.46-6.87,4.22-10.91,5.15-4.83,1.12-9.41,1.92-14.56,1.11-5.05-.8-9.82-2.01-13.75-5.14l5.5-.77,1.21-.05c.27-.01.42-.67.43-.93.02-.35-1.24-.92-1.6-.82l-6.67,1.82-3.29-2.28c-.85-.59-2.04-2.75-1.53-3.41l2.82-2.38c-1.47.79-1.71,1.04-3.55,1.31l-.25,2.11C2.41,51.22-1.56,40.28.58,29.72c1.43-.33,3.12-1.23,3.41-2.31.45-1.62-.25-2.91-1.74-4.43l2.59-5.88,1.12.03c.26,0,0-.97-.12-1.37C12.13,6.39,22.49.54,33.91,0c.42.07,1.19.18,1.21.42l.12,1.03L37.41.02c5.23.63,10.27,2.15,14.7,4.5l-1.72,2.93,2.25-2.64,3.05,2.06c-1.51,1.77-2.88,3.27-3.8,5.55,1.75-1.59,2.77-3.19,4.25-5.22,6.81,5.11,11.71,12.56,13.18,21.24l-5.26,3.16c2.18-.44,3.03-.85,5.42-1.87.44,1.08.42,3.1,0,4.34,1.89,6.86-1.84,15.52-6.06,21.93l5.56,5.5c2.35-.29,4.37-.22,6.07,1.46l9.91,9.79c-.93,4.22,2.13,8.32,5.99,9.23l-.79-3.78,8.12,7.56c2.67,2.48,5.35,5.77,2.44,9.13l-3.65,4.21c-1.75,2.02-5.01,3.63-7.51,1.87ZM62.46,37.12c1.96-.89,3.56-1.84,5.06-3.17l-5.28,2.12c.51-10.57-5.13-19.29-13.54-24.59l1.61-3.13c-.82.92-1.35,1.73-2,2.88-11.07-5.85-24.95-3.91-33.37,5.66-6.21,7.06-8.58,15.9-6.08,25.43,1.98,7.55,7.78,14.47,15.83,17.83l-1.16,1.89c.7-.39,1.36-.84,2.02-1.38l8.84,1.68c.48.09,1,.23.93.51l-.24,1.06,1.48-1.67c8.26-.54,15.38-4.77,20.64-11.13,2.82-3.41,4.45-9.37,5.25-14.02ZM48.22,62.57l.76.22,4.64-5.49-.51-.46-4.89,5.73Z"/>
      <path class="e" d="M46.75,20.06c-7.27-5.5-16.75-5.41-23.72.49-.61.24-1.81.43-2.26.12-.53-.38-.52-1.81-.24-2.66,8.61-7.12,20.76-7.22,29.21.22,0,.77-.28,2.06-.68,2.4-.49.42-1.66-.06-2.3-.56Z"/>
    </g>
  </g>
</svg>