<svg xmlns="http://www.w3.org/2000/svg" width="3840" height="10" viewBox="0 0 3840 10">
  <path
    fill="none"
    stroke="#fff"
    stroke-width="1"
    stroke-linecap="butt"
    stroke-linejoin="round"
    d="M0 5 L22 5 M33.5 5 L88 5 M107.3 5 L131 5 M136.95 5 L188 5 M193 5 L201 5 L206 5 M212.2 5 L213.8 5 L228 5 M232 5 L277 5 M296.4 5 L318 5 M324.2 5 L401 5 M451 5 L478 5 M490.6 5 L511 5 M515 5 L572 5 L579.4 5 M588.2 5 L593 5 L661 5 M668.7 5 L672 5 M708 5 L720 5 M720 5 L748.13 5 M793.64 5 L844.24 5 M864.2 5 L877.95 5 L887.06 3.05 L902.65 3.44 L919.58 5 M951.63 5 L1019.05 5 M1061.97 5 L1107.1 5 M1138.61 5 L1171.87 5 M1183.53 5 L1204.26 5 M1239.83 5 L1280.19 5 M1299.04 5 L1338.98 5 M1372.29 5 L1399.58 5 M1430.18 5 L1437.53 5 L1441.98 7.91 L1446.27 6.72 L1454.72 5 M1461.94 5 L1486.26 5 M1501.14 5 L1571.45 5 M1585.47 5 L1644.25 5 M1652.97 5 L1715.72 5 M1741.63 5 L1771.37 5 M1812.26 5 L1844.5 5 M1862.27 5 L1915.73 5 M1956.73 5 L1988.72 5 M2002.72 5 L2060.32 5 M2093.42 5 L2125.71 5 M2152.95 5 L2190.77 5 M2231.93 5 L2257.23 5 M2267.27 5 L2317.84 5 M2351.51 5 L2382.34 5 M2413.24 5 L2453.02 5 M2473.43 5 L2498.63 5 M2528.85 5 L2562.95 5 M2599.22 5 L2638.16 5 M2647.85 5 L2702.15 5 M2714.06 5 L2751.19 5 M2779.14 5 L2806.18 5 M2816.55 5 L2884.57 5 M2896.87 5 L2962.96 5 M2971.25 5 L3042.71 5 M3091.48 5 L3119.43 5 M3126.69 5 L3169.02 5 M3200.85 5 L3249.47 5 M3259.81 5 L3305.88 5 M3342.07 5 L3365.25 5 M3408.81 5 L3469.8 5 M3506.82 5 L3537.97 5 M3585.15 5 L3629.19 5 M3673.96 5 L3742.31 5 M3779 5 L3828.24 5 M3828.24 5 L3840 5 M24.7 2.6 L29.4 2.9 M131.85 3.4 L135.8 2.9 M207.4 6.95 L211 6.4 M280.8 1.7 L289.6 2.45 M319.4 7.42 L322.1 7.28 M406.9 2.65 L412.6 2.05 M481.2 6.8 L487.5 7.75 M580.5 2.9 L586.2 3.5 M95.2 8.1 L104.5 7.55 M662.45 6.3 L666.2 7.25 M681.25 2.27 L686.03 2.37 M751.87 8.14 L763 8.24 M847.66 7.12 L858.43 7.07 M1208.87 3.06 L1213.52 3.15 M1283.44 2.87 L1291.99 2.75 M1344.32 2.2 L1357.01 2.14 M1456.3 2.03 L1460.52 1.92 M1573.61 7.11 L1578.24 6.9 M1646.32 6.8 L1651.77 6.92 M1778.61 2.41 L1786.85 2.17 M1848.2 2.68 L1853.31 2.58 M1991.03 7.14 L1997.98 6.94 M2129.02 2.21 L2140.5 2.08 M2259.62 7.32 L2265.48 7.26 M2321.73 6.82 L2334.25 6.99 M2456.16 7.74 L2464.07 7.96 M2566.9 2.51 L2576.29 2.39 M2704.97 7.49 L2710.87 7.37 M2808.25 1.84 L2814.58 1.97 M2964.53 2.74 L2969.78 2.64 M3121.23 2.97 L3125.45 3.01 M3632.17 7.9 L3642.14 7.95"
  />
  <path fill="none" stroke="#fff" stroke-width="1" stroke-linecap="butt" d="M418.6 4.96 L421.4 5.08"/>
  <path fill="none" stroke="#fff" stroke-width="1" stroke-linecap="butt" d="M429.2 5.06 L431.5 4.92"/>
  <path fill="none" stroke="#fff" stroke-width="1" stroke-linecap="butt" d="M440.1 5 L441.2 5.04"/>
  <path fill="none" stroke="#fff" stroke-width="1" stroke-linecap="butt" d="M679.6 4.9 L684 5.1"/>
  <path fill="none" stroke="#fff" stroke-width="1" stroke-linecap="butt" d="M694.8 5 L696.1 4.94"/>
  <path fill="none" stroke="#fff" stroke-width="1" stroke-linecap="butt" d="M705.2 5.08 L706.4 5"/>
  <path fill="none" stroke="#fff" stroke-width="1" stroke-linecap="butt" d="M923.78 4.88 L926.77 4.89"/>
  <path fill="none" stroke="#fff" stroke-width="1" stroke-linecap="butt" d="M931.37 5 L935.93 4.89"/>
  <path fill="none" stroke="#fff" stroke-width="1" stroke-linecap="butt" d="M944.08 4.9 L948.92 4.85"/>
  <path fill="none" stroke="#fff" stroke-width="1" stroke-linecap="butt" d="M1127 5.09 L1130.05 4.98"/>
  <path fill="none" stroke="#fff" stroke-width="1" stroke-linecap="butt" d="M1135.06 4.9 L1137.61 5.07"/>
  <path fill="none" stroke="#fff" stroke-width="1" stroke-linecap="butt" d="M1403.28 5.01 L1406.12 5"/>
  <path fill="none" stroke="#fff" stroke-width="1" stroke-linecap="butt" d="M1413.96 4.94 L1419.92 4.81"/>
  <path fill="none" stroke="#fff" stroke-width="1" stroke-linecap="butt" d="M1426.03 5.07 L1429.18 5.24"/>
  <path fill="none" stroke="#fff" stroke-width="1" stroke-linecap="butt" d="M1728.51 4.9 L1732.01 5.01"/>
  <path fill="none" stroke="#fff" stroke-width="1" stroke-linecap="butt" d="M2194.66 5.1 L2196.96 4.96"/>
  <path fill="none" stroke="#fff" stroke-width="1" stroke-linecap="butt" d="M2210.44 4.92 L2215.06 5.07"/>
  <path fill="none" stroke="#fff" stroke-width="1" stroke-linecap="butt" d="M2386.04 4.9 L2388.24 4.76"/>
  <path fill="none" stroke="#fff" stroke-width="1" stroke-linecap="butt" d="M2405.1 4.93 L2410.02 4.87"/>
  <path fill="none" stroke="#fff" stroke-width="1" stroke-linecap="butt" d="M2515.43 4.93 L2520.08 4.79"/>
  <path fill="none" stroke="#fff" stroke-width="1" stroke-linecap="butt" d="M2524.85 4.87 L2527.85 4.94"/>
  <path fill="none" stroke="#fff" stroke-width="1" stroke-linecap="butt" d="M2758.53 4.93 L2763.85 5.05"/>
  <path fill="none" stroke="#fff" stroke-width="1" stroke-linecap="butt" d="M3179.05 5.01 L3185.37 5.01"/>
  <path fill="none" stroke="#fff" stroke-width="1" stroke-linecap="butt" d="M3190.84 4.87 L3193.3 5.04"/>
  <path fill="none" stroke="#fff" stroke-width="1" stroke-linecap="butt" d="M3322.61 5.03 L3328.24 5.1"/>
  <path fill="none" stroke="#fff" stroke-width="1" stroke-linecap="butt" d="M3472.76 5 L3477.16 4.87"/>
  <path fill="none" stroke="#fff" stroke-width="1" stroke-linecap="butt" d="M3490.2 5.13 L3493.65 5.31"/>
  <path fill="none" stroke="#fff" stroke-width="1" stroke-linecap="butt" d="M3548.24 5.04 L3551.74 5.2"/>
  <path fill="none" stroke="#fff" stroke-width="1" stroke-linecap="butt" d="M3558.75 5.07 L3561.84 5.15"/>
  <path fill="none" stroke="#fff" stroke-width="1" stroke-linecap="butt" d="M3576.99 4.95 L3582.58 4.95"/>
  <path fill="none" stroke="#fff" stroke-width="1" stroke-linecap="butt" d="M3746.99 5.08 L3749.27 5.23"/>
  <path fill="none" stroke="#fff" stroke-width="1" stroke-linecap="butt" d="M3754.09 5.14 L3758.32 5.16"/>
  <path fill="none" stroke="#fff" stroke-width="1" stroke-linecap="butt" d="M3765.45 5.02 L3770.99 4.89"/>
  <path fill="none" stroke="#fff" stroke-width="1" stroke-linecap="round" d="M424.9 5"/>
  <path fill="none" stroke="#fff" stroke-width="1" stroke-linecap="round" d="M435.4 5"/>
  <path fill="none" stroke="#fff" stroke-width="1" stroke-linecap="round" d="M446.8 5.05"/>
  <path fill="none" stroke="#fff" stroke-width="1" stroke-linecap="round" d="M675.2 5"/>
  <path fill="none" stroke="#fff" stroke-width="1" stroke-linecap="round" d="M689.4 5.04"/>
  <path fill="none" stroke="#fff" stroke-width="1" stroke-linecap="round" d="M701.7 4.97"/>
  <path fill="none" stroke="#fff" stroke-width="1" stroke-linecap="round" d="M513.1 5"/>
  <path fill="none" stroke="#fff" stroke-width="1" stroke-linecap="round" d="M1111.72 4.99"/>
  <path fill="none" stroke="#fff" stroke-width="1" stroke-linecap="round" d="M1119.74 4.98"/>
  <path fill="none" stroke="#fff" stroke-width="1" stroke-linecap="round" d="M1179.47 5.07"/>
  <path fill="none" stroke="#fff" stroke-width="1" stroke-linecap="round" d="M1496.5 5.02"/>
  <path fill="none" stroke="#fff" stroke-width="1" stroke-linecap="round" d="M1932.38 4.98"/>
  <path fill="none" stroke="#fff" stroke-width="1" stroke-linecap="round" d="M2076.38 5.04"/>
  <path fill="none" stroke="#fff" stroke-width="1" stroke-linecap="round" d="M2204.3 4.99"/>
  <path fill="none" stroke="#fff" stroke-width="1" stroke-linecap="round" d="M2223.28 4.97"/>
  <path fill="none" stroke="#fff" stroke-width="1" stroke-linecap="round" d="M2395.77 4.93"/>
  <path fill="none" stroke="#fff" stroke-width="1" stroke-linecap="round" d="M2502.5 5.05"/>
  <path fill="none" stroke="#fff" stroke-width="1" stroke-linecap="round" d="M2509.29 5.01"/>
  <path fill="none" stroke="#fff" stroke-width="1" stroke-linecap="round" d="M2644.85 4.94"/>
  <path fill="none" stroke="#fff" stroke-width="1" stroke-linecap="round" d="M3172.58 5.01"/>
  <path fill="none" stroke="#fff" stroke-width="1" stroke-linecap="round" d="M3309.11 4.96"/>
  <path fill="none" stroke="#fff" stroke-width="1" stroke-linecap="round" d="M3316.3 5.02"/>
  <path fill="none" stroke="#fff" stroke-width="1" stroke-linecap="round" d="M3337.25 5.05"/>
  <path fill="none" stroke="#fff" stroke-width="1" stroke-linecap="round" d="M3383.1 4.95"/>
  <path fill="none" stroke="#fff" stroke-width="1" stroke-linecap="round" d="M3481.97 5.04"/>
  <path fill="none" stroke="#fff" stroke-width="1" stroke-linecap="round" d="M3500.67 5.05"/>
  <path fill="none" stroke="#fff" stroke-width="1" stroke-linecap="round" d="M3541.97 4.96"/>
  <path fill="none" stroke="#fff" stroke-width="1" stroke-linecap="round" d="M3567.63 4.99"/>
</svg>
