<svg xmlns="http://www.w3.org/2000/svg" width="10" height="3840" viewBox="0 0 10 3840">
  <path
    fill="none"
    stroke="#fff"
    stroke-width="1"
    stroke-linecap="butt"
    stroke-linejoin="round"
    d="M5 24 L5 80.4 M5.68 84.73 L5.68 92.56 M6.61 97.35 L6.61 102.49 M7.29 108.2 L7.29 146.74 M7.29 169.9 L7.29 175.67 L6.27 232.47 M5.87 254.62 L5 302.87 M5 326.79 L5 367.21 M6.52 390.22 L6.52 447.85 L5 447.85 L5 455.85 M5 477.08 L5 500.5 M5 524.04 L5 552.13 M5 576.4 L5 621.93 M3.44 625.13 L3.44 659.82 M3.44 682.16 L3.44 733.67 M6.24 736.87 L6.24 740.68 M6.24 745.42 L6.24 748.48 M6.24 755.51 L6.24 760.45 M6.24 765.56 L6.24 799.87 L6.24 837.6 M5 840.8 L5 878.53 M5 902.94 L5 923.74 M3.4 926.94 L3.4 947.74 L3.4 1023.03 M5 1026.23 L5 1101.52 M5 1106.77 L5 1110.35 M5 1124.6 L5 1167.94 M6.66 1171.14 L6.66 1214.48 L6.66 1244.07 M6.66 1267.32 L6.66 1327.06 M5 1330.26 L5 1442.83 M5 1465.73 L5 1476.58 M6.87 1479.54 L6.87 1490.4 L6.87 1507.82 M5 1511.02 L5 1528.43 M5 1550.51 L5 1581.5 M5 1589.43 L5 1593.6 M5 1601.44 L5 1603.62 M5 1610.91 L5 1624.61 M1.98 1627.81 L1.98 1641.51 L1.98 1652.98 M5 1656.11 L5 1667.59 M5 1692.02 L5 1700.54 M3.43 1702.87 L3.43 1711.39 L3.43 1729.01 M5 1732.21 L5 1748.21 M5 1752.83 L5 1761.98 M5 1771.26 L5 1778.64 M5 1785.78 L5 1790.18 M5 1797.08 L5 1855.68 M5 1877.69 L5 1896.88 M5 1901.28 L5 1910.96 M5 1917.07 L5 1923.73 M5 1930.38 L5 1933.93 M5 1940.38 L5 1950.26 M5 1956.92 L5 1962.93 M6.74 1964.57 L6.74 1970.59 L6.74 1983.98 M5 1987.18 L5 2000.57 M5 2023.55 L2.75 2141.01 L2.75 2216.2 M8.07 2219.4 L8.07 2294.6 L8.07 2390.75 M5 2393.95 L5 2446.46 M5 2453.71 L5 2459.02 M5 2465.68 L5 2472.36 M5 2480.58 L5 2482.75 M5 2486.97 L5 2494.01 M5 2498.6 L5 2506.7 M5 2512.5 L5 2524.19 M1.7 2527.37 L1.7 2539.06 L1.7 2556.37 M5 2559.57 L5 2576.89 M5 2601.66 L5 2610.67 M2.24 2613.12 L2.24 2622.13 L2.24 2630.68 M5 2633.01 L5 2641.56 M5 2646.21 L5 2655.93 M5 2663.01 L5 2668.29 M5 2674.06 L5 2691.19 M3.15 2694.39 L3.15 2720.82 L3.15 2737.44 M5 2740.64 L5 2757.26 M5 2779.8 L5 2786.76 M3.58 2788.65 L3.58 2795.61 L3.58 2811.44 M5 2814.64 L5 2830.47 M5 2853.55 L5 2891.3 M3.54 2894.5 L3.54 2901.48 M3.54 2925.66 L3.54 2932.24 L5 2986.7 M5 3010.23 L5 3021.3 M3.26 3024.32 L3.26 3035.39 L5 3060.75 M5 3083.9 L5 3118.51 M5 3142.06 L5 3177.82 M2.52 3181.02 L2.52 3195.98 M2.52 3219.84 L2.52 3275.31 M5 3298.11 L5 3357.59 M5 3381.57 L5 3442.83 M5 3465.94 L5 3507.44 M5 3531.78 L5 3590.74 M1.71 3593.94 L1.71 3652.9 L1.71 3704.77 M6.19 3707.97 L6.19 3759.84 L5 3840"
  />
  <path fill="none" stroke="#fff" stroke-width="1" stroke-linecap="butt" d="M5.24 12.11 L5.26 16"/>
  <path fill="none" stroke="#fff" stroke-width="1" stroke-linecap="butt" d="M4.75 508.33 L4.89 514"/>
  <path fill="none" stroke="#fff" stroke-width="1" stroke-linecap="round" d="M4.49 312.41 L4.49 312.43"/>
  <path fill="none" stroke="#fff" stroke-width="1" stroke-linecap="round" d="M4.37 566.8 L4.37 566.82"/>
  <path fill="none" stroke="#fff" stroke-width="1" stroke-linecap="round" d="M5.19 1452.29 L5.19 1452.31"/>
</svg>
