<svg xmlns="http://www.w3.org/2000/svg" width="10" height="3840" viewBox="0 0 10 3840">
  <path
    fill="none"
    stroke="#fff"
    stroke-width="1"
    stroke-linecap="butt"
    stroke-linejoin="round"
    d="M5 0 L5 239.09 M5 316.91 L5 458.15 M5 507.18 L5 535.27 M5 551.55 L5 790.14 M5 818.49 L5 1098.51 M5 1128.8 L5 1179.91 M5 1190.25 L5 1454.4 M5 1528.36 L5 1563.92 M5 1563.92 L5 1622.72 M5 1640.76 L5 1697.44 M5 1734.12 L5 1791.93 M5 1804.04 L5 1937.95 M5 1956.35 L5 2000 M5 2076.91 L5 2243.53 M5 2257.01 L5 2357.51 M5 2469.91 L5 2565.78 M5 2598.88 L5 2736.39 M5 2736.39 L5 2787.07 M5 2787.07 L5 2822.84 M5 2852.97 L5 2974.64 M5 3016.57 L5 3118.38 M5 3150.27 L5 3420.04 M5 3462.39 L5 3582.28 M5 3635.55 L5 3683.67 M5 3772.29 L5 3840"
  />
</svg>
