<svg xmlns="http://www.w3.org/2000/svg" fill="none" viewBox="0 0 139 48" class="customer-logo">
<title>The Hustle logo</title>
  <g class="the-hustle">
    <path class="path-fill logo-fill" fill="#192733" d="M25.194 9.382h5.097c.394 0 .717.32.717.71v10.417c0 .39.323.708.718.708h3.123c.19 0 .372-.075.506-.208a.706.706 0 0 0 .21-.5V10.091c0-.39.324-.709.72-.709h5.13c.396 0 .72.32.72.71V37.87a.708.708 0 0 1-.212.501.724.724 0 0 1-.507.209h-5.132a.724.724 0 0 1-.507-.208.707.707 0 0 1-.211-.501v-11.34a.707.707 0 0 0-.21-.5.724.724 0 0 0-.508-.208h-3.122a.724.724 0 0 0-.507.208.707.707 0 0 0-.211.5V37.87a.706.706 0 0 1-.21.501.723.723 0 0 1-.507.209h-5.097a.724.724 0 0 1-.507-.208.707.707 0 0 1-.211-.501v-27.78c0-.39.323-.71.718-.71Zm26.414 28.596a5.929 5.929 0 0 1-2.727-3.154c-.539-1.382-.79-3.153-.79-5.28V10.092c0-.39.324-.709.718-.709h5.025c.394 0 .717.32.717.71v20.409a6.764 6.764 0 0 0 .467 2.8c.323.708.933 1.027 1.83 1.027.898 0 1.544-.354 1.83-1.027.324-.886.503-1.843.467-2.8v-20.41c0-.39.323-.709.718-.709h5.025c.394 0 .717.32.717.71v19.452c0 2.127-.25 3.899-.789 5.28-.503 1.347-1.472 2.445-2.728 3.154-1.292.708-3.015 1.063-5.24 1.063-2.26 0-3.983-.355-5.24-1.064Zm20.996-1.17c-1.292-1.382-2.01-3.507-2.19-6.378-.035-.39.252-.709.611-.78l4.127-.602a.727.727 0 0 1 .825.567v.072c.072 1.417.287 2.48.646 3.188a1.997 1.997 0 0 0 1.903 1.205c1.112 0 1.65-.709 1.65-2.126a5.142 5.142 0 0 0-.789-2.906 11.519 11.519 0 0 0-2.477-2.621l-2.547-2.197a13.236 13.236 0 0 1-2.944-3.367 8.396 8.396 0 0 1-1.04-4.252c0-2.445.754-4.359 2.225-5.67 1.472-1.31 3.517-1.983 6.101-1.983 2.8 0 4.702.814 5.706 2.41.934 1.593 1.507 3.366 1.58 5.172a.709.709 0 0 1-.16.521.726.726 0 0 1-.486.259l-4.164.496c-.394.036-.753-.213-.825-.603v-.07c-.036-.85-.144-1.665-.395-2.48a1.466 1.466 0 0 0-.596-.763 1.494 1.494 0 0 0-.947-.23c-.539 0-1.041.283-1.293.745a2.886 2.886 0 0 0-.43 1.523 4.327 4.327 0 0 0 .682 2.48c.61.85 1.364 1.63 2.153 2.303l2.441 2.126a14.813 14.813 0 0 1 3.41 3.899A9.572 9.572 0 0 1 86.6 31.6a7.713 7.713 0 0 1-.97 3.755 7.227 7.227 0 0 1-2.727 2.658 8.57 8.57 0 0 1-4.055.992c-2.764 0-4.846-.709-6.245-2.197Zm20.098-22.642h-3.015a.725.725 0 0 1-.507-.208.707.707 0 0 1-.21-.5V10.09c0-.39.322-.709.717-.709h13.997c.395 0 .718.32.718.71v3.366a.71.71 0 0 1-.211.5.726.726 0 0 1-.507.208h-2.943a.725.725 0 0 0-.507.208.703.703 0 0 0-.211.501v22.997a.708.708 0 0 1-.211.5.724.724 0 0 1-.507.208h-5.167a.725.725 0 0 1-.507-.208.707.707 0 0 1-.212-.5V14.91c.037-.426-.287-.745-.717-.745Zm16.688-4.784h5.06c.395 0 .718.32.718.71v23.422c0 .389.323.708.718.708h5.311c.396 0 .719.319.719.709v2.94a.707.707 0 0 1-.212.501.723.723 0 0 1-.507.208h-11.843a.726.726 0 0 1-.507-.208.705.705 0 0 1-.21-.5v-27.78c.036-.39.359-.71.753-.71Zm16.365 0h11.844c.395 0 .718.32.718.71v2.975a.703.703 0 0 1-.211.501.725.725 0 0 1-.507.208h-5.312a.721.721 0 0 0-.506.208.703.703 0 0 0-.211.501v5.811c0 .39.323.71.717.71h3.697c.395 0 .718.318.718.707v3.048a.703.703 0 0 1-.211.5.723.723 0 0 1-.507.209h-3.697a.721.721 0 0 0-.506.208.705.705 0 0 0-.211.5v7.336c0 .389.323.708.717.708h5.384c.395 0 .718.319.718.709v2.94a.71.71 0 0 1-.211.501.726.726 0 0 1-.507.208h-11.916a.722.722 0 0 1-.506-.208.706.706 0 0 1-.211-.5v-27.78c0-.39.323-.71.717-.71ZM1.937 38.013c-.358-.567-.501-1.24-.466-1.913v-8.078c0-.107-.071-.177-.18-.177H.18c-.108 0-.179-.071-.179-.177v-.603c0-.107.071-.177.18-.177h1.112c.108 0 .18-.07.18-.177V23.45c0-.107.071-.177.18-.177H2.8c.108 0 .18.07.18.177v3.26c0 .106.072.177.18.177h1.614c.108 0 .18.07.18.177v.603c0 .106-.072.177-.18.177H3.158c-.107 0-.18.07-.18.177v7.937c-.04.414.035.83.216 1.206.215.247.503.389.826.318.215 0 .43-.036.646-.07.107 0 .179.034.215.14v.816c0 .07-.072.177-.143.177-.367.07-.74.106-1.114.106-.825.035-1.4-.177-1.686-.638h-.001ZM6.209 22.21h1.148c.108 0 .18.07.18.177v4.464c0 .107.072.177.18.177.035 0 .07 0 .107-.035a2.957 2.957 0 0 1 2.655-.46c1.042.282 1.759 1.275 1.759 2.94v8.895c0 .105-.072.177-.18.177h-1.147c-.108 0-.18-.07-.18-.177v-8.86c0-.955-.502-1.523-1.328-1.558-.754-.036-1.148.07-1.758.886a.593.593 0 0 0-.108.354c0 1.24 0 7.973-.036 9.142 0 .107-.072.177-.18.177H6.173c-.108 0-.18-.07-.18-.177V22.351c.036-.07.144-.141.216-.141Zm8.864 16.051a2.741 2.741 0 0 1-1.04-1.417 8.519 8.519 0 0 1-.323-2.693v-2.976a8.518 8.518 0 0 1 .323-2.693c.18-.568.538-1.099 1.04-1.418a3.325 3.325 0 0 1 1.83-.425 3.049 3.049 0 0 1 1.903.532c.467.39.79.956.933 1.523.18.921.288 1.843.251 2.764v.886c0 .106-.071.177-.179.177h-4.415c-.107 0-.179.07-.179.177v1.843c0 1.098.144 1.913.395 2.338.287.462.79.71 1.292.674a1.369 1.369 0 0 0 1.184-.497c.287-.318.43-.92.43-1.735v-.603c0-.106.073-.177.18-.177h1.077c.108 0 .18.07.18.177v.46c0 1.134-.251 1.985-.718 2.587-.467.603-1.257.921-2.369.921-.61.072-1.256-.105-1.795-.425Zm3.266-6.555c.108 0 .18-.071.18-.177v-.78c0-.566-.036-1.098-.108-1.665-.036-.354-.216-.673-.466-.957a1.388 1.388 0 0 0-1.041-.354 1.37 1.37 0 0 0-1.543 1.17v.035c-.108.637-.18 1.275-.144 1.913v.603c0 .106.072.177.18.177l2.942.035Z" />
  </g>
</svg>
