<?xml version="1.0" encoding="UTF-8"?>
<svg fill="#FFFFFF" id="b" data-name="Warstwa 2" xmlns="http://www.w3.org/2000/svg" viewBox="0 0 106.73 105.25">
  <defs>
    <style>
      .e {
        fill:#FFFFFF;
      }
    </style>
  </defs>
  <g id="c" data-name="icon-pixarts-survival-series">
    <g id="d" data-name="icon-pixarts-survival-series_1211">
      <path class="e" d="M4.2,87.66l-1.97-.23c-1.69-2.84-2.54-6.31-2.11-9.66.33-2.6,1.89-3.92,3.87-5.41l32.76-24.6,5.67-4.68c5.63-.12,10.07,2.64,13.79,6.64-.32,1.58-.74,3.54-1.5,4.75l-4.45,7.06c3.27-2.65,5.16-6,7.4-10.14,1.01,1.31,1.97,2.89,2.58,4.53l-16.2,17.73c-1.6.05-3.56-.54-5.45-1.12,1.54,2.12,2.59,3.71,2.67,6.19l-3.73,1.81c-.13.06-.84-.2-.98-.21-.21-.03-.74.2-.56.32s.94,1.02.81,1.19l-5.63,7.21c.7,3.1.58,5.67-1.36,7.98s-4.75,3.76-8,2.77c-6.63-2.02-12.33-7.09-15.03-13.35-1.48-3.43-.55-6.56,2.22-8.62,1.33-.99,2.66-1.34,4.41-.49,6.21,3.05,13.66,10.97,11.31,15.41-2.12,4.01-8.51.96-12.05-4.07-1.25-1.77-1.42-4.52,1.08-5.45.98-.36,3.01,1.49,2.91,2.43l-2.07.38c-1.51.28,1.82,4.84,6.86,6.83l1.37-3.67c-4.47-9.48-15.08-11.1-14.55-7.23l.43,3.13c2.06,7.06,11.28,14.78,17.65,11.74.05.33.12.84.09.83-.05-.01.27-.03.42-.05s.5-.25.57-.38l.99-1.95c.71-8.09-4.87-13.51-11.18-18.65l3.91-4.69c-2.54.77-4.55,1.9-6.69,3.08-2-.53-4.85-1.52-7.04-1.21-3.65.52-5.99,3.92-4.98,7.23l1.97,6.45.31.2c2.1,4.1,4.79,7.47,8.78,10.55l-.48.88c-1.05,1.91-6.62-4.61-9.15-8.41l.34-2.63.03-.4ZM28.96,63.29c-3.8.39-7.46,1.51-10.41,3.6,3.9-.89,7.06-2.04,10.41-3.6Z"/>
      <path class="e" d="M94.47,25.05c-1.51,1.65-2.93,2.08-4.63,1.15,0,3.06-1.68,4.71-3.55,6.12-6.09,4.6-11.57,9.87-17.15,15.23l-4.05-4.75c.77-3.01,1.26-5.87.83-9.19l-2.23,7.79c-3.8-3.56-7.86-6.29-12.43-7.75L77.32,1.06c2.33-1.46,5.43-1.23,8.02-.39l-2.26,4.44,3.62,1.05-.63-2.84c-.13-.57,1.2-2.02,1.79-1.91,3.29.63,6.55,3.15,8.87,5.83l-1.84,2.36,3.76.45c1.19,1.87,3.55,5.57,2.62,8.1-1.11,3.01-4.69,4.59-6.81,6.9ZM71.14,17.9l2.47.88c-.82-2.23.39-3.28,2.14-4.87l-3.6,1.36-.94-2.87c-.58,1.13-.42,2.04-.08,3.58l-1.69.84-.44,3.46,2.15-2.39ZM90.75,24.37l.63-2.94c-.53-.5-1.33-.23-1.95.38-.37.36-.16,1.3.15,2.52l-2.53,1,.03.92,3.66-1.87Z"/>
      <path class="e" d="M35.07,93.99l-1.28-4.23,5.84-6.89c.96-1.13,2.32-1.76,4.1-1.85-.71-2.18.38-3.64,1.81-5.22l15.85-17.53c3.5,7.57.36,8.85-2.15,11.99l-23.01,28.9c-.22-2.24-.62-3.39-1.17-5.18Z"/>
      <path class="e" d="M83,47.04l-9.74,8.75-2.9-5.96,15.91-14.27c.43-.39,1.3-1.48,1.79-1.34l2.56.73c-.24-5.91,2.49-4.85,4.61-6.8l11.4-10.48c.42,7.52-.61,11.34-6.69,15.37-.35-.8-.64-1.57-.37-1.77l1.38-1.03-.5-3.57-2.17,3.51c-.22.35-.89,1.37-.55,1.58l2.14,1.35-16.88,13.94ZM81.09,47.52l-1.03-2.79-.71,1.17c-.11.18-.34.18-.91.34l.59,1.68c.14.39,2.02-.11,2.05-.4Z"/>
      <path class="e" d="M62.11,43.08c5.28,4.4,12.12,14.33,7.47,18.46l-1.09-4.67c-1.38-5.9-5.55-10.17-9.79-14.42,1.3-.45,2.53-.11,3.42.63Z"/>
      <path class="e" d="M14.97,101.81l.92-1.69c3.06,1.41,5.67,2.55,8.76,2.97,4.52.62,7.99-2.11,9.05-6.7,1.38,1.77,1.15,4.13-.03,5.67-3.94,5.17-12.1,3.32-18.71-.25Z"/>
      <path class="e" d="M54.9,45.17c-4.62-2.15-8.71-5.15-13.97-3.56,1.33-7.24,15.34-.28,19.75,6.25l-5.78-2.69Z"/>
      <path class="e" d="M64.75,66.46c.34-3.41-.17-6.44-1.4-9.55l.59-.86c.54-.79-3.25-2.97-4.47-6.39,3.5,1.07,5,3.45,6.26,6.25,1.88,4.18,2.74,8.93-.98,10.54Z"/>
      <path class="e" d="M67.35,78.13l-1.59,2.14-.38-11.73,2.32-1.29c1.67,4.63,1.4,8.96.73,13.39l-1.08-2.51Z"/>
      <path class="e" d="M76.4,68.67c.44,1.15.86,2.33,1.02,3.96-2.57-3.34-4.32-5.72-8.24-7.72,1.25-3.52,7.25.05,9.35,4.56l-2.13-.79Z"/>
      <path class="e" d="M50.83,38.02l-5.13-1.3c1.03-3.17,7.45-1.08,10.95,2.27-2.22-.08-3.91-.49-5.82-.98Z"/>
    </g>
  </g>
</svg>