<?xml version="1.0" encoding="UTF-8"?>
<svg fill="#FFFFFF" id="b" data-name="Warstwa 2" xmlns="http://www.w3.org/2000/svg" viewBox="0 0 97.01 75.7">
  <defs>
    <style>
      .e {
        fill:#FFFFFF;
      }
    </style>
  </defs>
  <g id="c" data-name="icon-pixarts-survival-arsenal">
    <g id="d" data-name="icon-pixarts-survival-arsenal_179">
      <path class="e" d="M63.91,51.75l-8.39-.64,1.02-7.53c-3.04,1.46-4.12,3.42-5.39,6.43l-6.35.26c-1.54-2.49-2.88-4.02-5.56-5.32.08,2.43.59,4.03,1.39,6.32l-4.96.51c-1.28.13-3.35-.03-4.29-1.26-.73-.94-.97-2.67-.68-4.1l-1.8,1.9-1.06-1.13-2.45,2.05-6.84-.26c-1.2-.05-3.3-1.7-4.59-2.2l2.02-4.06c.08-.15.07-.8.04-.97-.04-.25-1.15-.59-1.36-.44l-4.16,2.96-3.66-1.27-.78-5.22c.66-.67.69-1.36.2-2.22l1.19-4.24-2.3.25c-.42.05-.76-1.32-.88-1.68L0,8.41l7.41,10.28c-.94,1.38-1.47,3.97-.96,5.12l1.84.96,1,2.31,2.03-1.92c1.96,1.96,3.8,4.26,5.3,6.66l-.6,3.46c-.09.5.08,1.8.16,1.86l2.16-2.97,6.87,8.57c2.34-2.53,3.95-5.03,6.61-6.31,4.51-2.17,1.92-4.52,3.54-5.49l4.21,2.22,3.43,2.23-2.42-3.42c-1.87-.29-4.29-2.69-3.66-4.69.75-2.36,1.91-4.37,3.48-6.38l-.34,3.6,5.15-4.26-2.63.88-.75-5.36L48.36,0l3.88,9.33-4.7,2.95v.55s1.56-.7,1.56-.7l2.69,2.87c1.3-1.44-.09-2.21-1.18-2.88.18-.28,1.89-.5,2.08-.18-.13,2.07.79,2.78,1.98,3.85l3.24,6.75-1.42,2.67c-.13.24-.42,1.08-.63.95l-1.26-.75c-2.25-.23,1.44,1.12.45,5.47l1.31-1.72,2.4.46-.29-2.06c-.07-.48,1-1.14,1.38-1.23l2.47,4.45c-.85,1.83-.82,2.84-.85,4.69s-1.15,3.97-.15,6.05c.57-2.74,1.15-5.07,2.43-7.48l8.15,8.7,3.62-4.49c.24.24,1.16.74,1.49.62l3.77-1.37c-1.57-1.26-2.27-2.37-1.59-3.9,1.23-2.78,3.75-4.46,5.96-6.4l2.28-3.9c2,2.33-.96,3.44-.42,5.31,2.53-2.17,3.54-6.98,2.39-9.86l7.62-10.53-4.45,22.83c-1.25-1.2-2.14-3.8-2.05-2.43l.07,1.06-.09,1.69.33.77c.11.25-.49.79-.78,1.14.6.24,1.85,1.33,1.72,2.02l-1.46,7.55c-.91.74-3.15,1.54-4,1.02l-4.98-3.02c-.42,2.67.6,3.5,1.97,5.61l-5,3.05c-4.92-1.11-9.49.19-14.38,2.24ZM45.02,38.56c1.34-.72,2.7-1.38,3.11-2.9l-9.05,5.36.09.68,5.86-3.13Z"/>
      <path class="e" d="M68.85,27.21l-6.51-1.11c-.86-.15-1.98-2.3-1.94-2.71l5.32.71c1.49-1.36,3.23-2.79,4.11-4.22l3.27-5.3,2.68.73c-.53-.96-.77-1.12-1.97-1.72l4.51-6.58.56,8.69c-1.27-.22-2.05-.27-2.53.09-.86.65-.8,1.58-.37,2.31.64,1.09,1.59.8,2.9,0,.43,3.31,1.07,6.46,2.39,9.46-1.43,2.1-4.21,1.32-6.4.58-4.34-1.45-1.85-4.11-5.44-5.4l-.58,4.45Z"/>
      <path class="e" d="M34.94,25.93l-7.08,1.28-.34-4.49c-2.62.85-2.01,2.87-3.33,4.27-1.81,1.93-7.69,2.66-8.18.64-.39-1.59,1.44-2.45,1.4-5.61.39.15,1.39.58,1.51.27l.56-1.49-2.14.22,1.25-13.8,5.93,8.24-2.04,2.32c-.11.12-.38.68-.22.69l1.02.08,1.55.14c.36.03.49,1.06.56,1.77,2.21-.06,3.94,1.23,5.36,3.31,1.44.31,3.39.04,5.51-.29l-1.32,2.45Z"/>
      <path class="e" d="M28.84,60.08c.49-1.66-3.78.93-4.55.71l-6.54-1.87c-.52-1.68-.81-2.54-2.12-3.6l-1.24,2.6c.02.25-1.83-.37-1.93-.96l-.51-2.99,5.94.28c4.48,3.41,9.84,3.38,15.17,2.88l7.64,2.12-1.12,4.17c-4.05-.4-7.56-.93-11.17-1.87l.43-1.46Z"/>
      <path class="e" d="M69.16,59.56l-2.75.11.25,2.45-8.65,1.29-1.58-4.39,7.95-2.12c5.46.9,10.57.3,15.22-2.7l5.48-.25-.45,3.3c-.04.28-.99.8-1.27.81-.76.02-.68-3.35-1.68-3.06-1.86.53-1.44,4.22-3.11,4.59l-5.48,1.21.49-2.31-2.53-.07c-.5-.01-1.12.38-1.89,1.13Z"/>
      <path class="e" d="M64.69,68.19c-8.43,1.56-13.37,6.45-20.58,3.66,4.03-1.27,7.02-.41,12.45-2.92,3.46-1.6,6.97-2.77,10.91-1.85-.83.51-1.93.96-2.78,1.12Z"/>
      <path class="e" d="M49.82,69.58c-7.62.47-12.64,4.98-18.26,1.24l4.8-.27c6.16-.35,11.18-4.19,17.7-1.87-1.31.51-2.73.81-4.24.91Z"/>
      <path class="e" d="M57.39,57.2c-.45.16-1.22.13-1.48.1-.34-.05-.77-.89-.78-1.1,7.97-1.14,14.81-7.1,21.62-5.18l-8.58,2.39-10.79,3.79Z"/>
      <path class="e" d="M31.52,55.49c-4.07.53-8,.46-11.48-1.9l8.05.61,11.56-1.34c1-.12,2.14.45,2.43,1.26l-10.55,1.37Z"/>
      <polygon class="e" points="43.39 63.51 45.53 60.18 51.92 59.94 55.38 63.56 43.39 63.51"/>
      <path class="e" d="M31.15,52.86l-8.99-.5h-10.06c-.52.01-1.52-1.26-1.44-1.68l8.24.22c4.28.12,8.54-.42,12.24,1.97Z"/>
      <path class="e" d="M71.08,55.72l-.26-1.42c3.94-.72,7.03-2.38,10.2-4.61,1.5-1.05,3.17-2.27,5.25-1.31l-7.52,4.57c-2.3,1.4-4.67,2.14-7.67,2.77Z"/>
      <path class="e" d="M33.34,69.46l-7.96.6c-.49.04-1.51-1.18-1.29-1.4l6.78-.63c3.42-.32,6.78-1.07,9.85.76l-7.37.67Z"/>
      <path class="e" d="M68.03,70.01c-3,1.71-6.33,2.36-9.76,1.41,1.56-.85,3.26-1.2,5.2-1.59,5.87-1.17,8.59-5.18,10.52-3.21l-5.96,3.39Z"/>
      <path class="e" d="M13.77,65.16l-7.06-6.08c-.93-.81-2.28-1.55-1.29-3.31l8.49,7.19c.37.31.09,1.74-.14,2.2Z"/>
      <path class="e" d="M83.79,65.07s-.4-.98-.49-1.39c-.12-.5.7-1.45,1.11-1.8l7.09-6.03c.5,1.25.05,2.39-.8,3.03-2.69,1.69-4.56,3.38-6.92,6.19Z"/>
      <path class="e" d="M86.42,55.75l.74-4.4c1.51-4.31-3.05-4.18-3.51-7.34,1.68.92,3.71,2.33,4.28,4.05.81,2.47.68,5.5-1.51,7.69Z"/>
      <path class="e" d="M55.67,61.32c-1.47-.77-2.74-2.4-3.35-4.16l-1.75-5.04.94-.18,4.15,9.38Z"/>
      <path class="e" d="M46.18,58.91c-2.44-3.21-3.66-6.63-4.8-10.39,2.87,2.69,4.5,6.33,4.8,10.39Z"/>
      <path class="e" d="M9.56,49.89l1.1,6.22c-1.81-2.34-2.8-5.66-1.45-8.48.7-1.46,2.74-2.7,4.29-3.62-.29,1.4-1.18,2.24-2.48,2.84-.86.51-1.63,2.03-1.46,3.03Z"/>
      <path class="e" d="M26.37,61.73c-.63,3.72-4.81,2.51-5.56,8.96-1.63-2.93.52-5.38,2.63-6.88l2.93-2.08Z"/>
      <path class="e" d="M76.91,70.12c-.68-1.59-1.19-3.6-2.19-4.43-1.39-1.15-2.23-1.45-2.66-3.59l3.85,2.71c.94,1.51,2.06,3.26,1,5.32Z"/>
      <path class="e" d="M27.25,31.85c1.17-1.88,2.05-1.55,3.72-2.21l-2.16-.48,5.27-1.36-1.66,2.71-5.18,1.34Z"/>
      <path class="e" d="M66.27,29.23c-.65.38,3.21.91,3.26,2.61l-4.68-1.45c-.68-.21-1.47-1.62-1.86-2.37l4.25.65-.97.57Z"/>
      <path class="e" d="M11.19,64.68c-2.81-.17-5.72-1.5-6.02-4.98l6.02,4.98Z"/>
      <path class="e" d="M61.4,53.2c-3.12,1.55-7.75,1.18-7.07.39,1.1-1.3,4.33-1.02,7.07-.39Z"/>
      <path class="e" d="M48.02,52.16c1.09-1.33,3.2,3.08,2.94,6.46-1.59-1.65-2.07-4.24-2.94-6.46Z"/>
      <path class="e" d="M48.47,58.74c-1.59-2.04-2.35-4.4-2.8-7.08,2.01,1.54,3,4.17,2.8,7.08Z"/>
      <path class="e" d="M73.75,75.7l1-7.85c1.63,2.6,1.15,5.51-1,7.85Z"/>
      <path class="e" d="M40.42,57.5l-5.06-1.22c2.38-.58,4.15-.48,6.77-.31l-.15.9c-.05.32-1.17.72-1.56.63Z"/>
      <path class="e" d="M23.89,75.47c-1.5-1.13-2.4-5.64-1.15-7.37.73,2.68,1.04,4.6,1.15,7.37Z"/>
      <path class="e" d="M91.54,60.53c-.94,2.63-2.97,3.54-5.37,3.83,1.44-1.81,3.22-3.52,5.37-3.83Z"/>
      <path class="e" d="M16.88,69.32c-1.07-2.27,0-5.07,2.19-6.5l-2.19,6.5Z"/>
      <path class="e" d="M91.39,50.97c-.19-2.06-.78-3.85-1.83-6.18,2.19,1,3.28,3.9,1.83,6.18Z"/>
      <path class="e" d="M18.85,69.74c-1.19-1.93-.02-5.25,2.38-6.35l-2.38,6.35Z"/>
      <path class="e" d="M53.3,52.92l-1.07-1.46c-.28-.38.23-1.49.52-1.9l1.84-2.57-1.3,5.94Z"/>
      <path class="e" d="M94.09,44.78l-1.16-1c-.27-.23.09-1.35.34-1.64l2.44-2.76-1.63,5.4Z"/>
      <path class="e" d="M80.75,68.93l-2.2-6.07c2.06,1.09,3.07,3.58,2.2,6.07Z"/>
      <path class="e" d="M78.88,69.49l-2.4-6.21c2.17.93,3.16,3.78,2.4,6.21Z"/>
      <path class="e" d="M16.23,49.89c-1.88.05-3.31-.32-5.36-1.01l1.1-1.43,4.26,2.44Z"/>
      <path class="e" d="M89.72,51.63l-1.73-6.28c1.9,1.18,2.89,3.96,1.73,6.28Z"/>
      <path class="e" d="M78.16,30.33c-1.25,1.37-2.13,2.39-2.74,3.63l-.4.8c-.07.15-.56.11-.53-.06l.19-1c.37-1.94,1.49-3.62,3.48-3.37Z"/>
      <path class="e" d="M7.27,51.67c-1.15-2.08-.59-4.89,1.64-6.24l-1.64,6.24Z"/>
      <path class="e" d="M21.9,35.06c-1.11-2.11-1.85-3.42-3.42-5.1,2.25.13,4.26,2.42,3.42,5.1Z"/>
      <path class="e" d="M41.76,61.91l1.61-5.05c1.45,2.16.2,4.29-1.61,5.05Z"/>
      <path class="e" d="M1.66,39.81c3.51,2.61,2.46,5.18,1.83,4.6-.21-.19-.89-.78-.96-1.06l-.87-3.54Z"/>
      <path class="e" d="M7.3,45.05c-.98,2.09-1.36,3.65-1.66,5.8-1.41-2.18-.42-5.3,1.66-5.8Z"/>
      <polygon class="e" points="15.12 68.47 10.93 71.3 13.72 67.33 15.12 68.47"/>
    </g>
  </g>
</svg>