<?xml version="1.0" encoding="UTF-8"?>
<svg fill="#FFFFFF" id="b" data-name="Warstwa 2" xmlns="http://www.w3.org/2000/svg" viewBox="0 0 83.18 102.67">
  <defs>
    <style>
      .e {
        fill:#FFFFFF;
      }
    </style>
  </defs>
  <g id="c" data-name="icon-pixarts-survival-arsenal">
    <g id="d" data-name="icon-pixarts-survival-arsenal_92">
      <path class="e" d="M31.04,88.25l-1.82-.4c-.5-.11-.76-1.6-.83-1.95-2.57.42-1.4-2.37-3.99-2.25-9.33-7.89-14.64-19.97-15.71-32.19l-2.01-22.94,2.58.68-2.61-2.37-.19-11.17,16.45-3.37.51,1.06c.1.21.63.02.76-.17l.9-1.41,1.15,6.67.52.32.08-7.39,14.7-4.16,18.92,5.06,16.17,3.35-.24,17.73-2.44,1.43,2.31.06c-1.19,16.51-1.95,32.59-13.66,45.32l-8.1,7.56-1.84-2.82.41,3.95-11.27,6.65-10.05-5.71c-.18-.1-.54-.37-.56-.51l-.15-1.02ZM18.74,68.89c1.03-1.23,1.37-2.3,2.17-3.48l3.5-5.14,2.45-3.62,2.23-3.07c.68-.93,1.35-2.17,1.87-3.25,2.71-3.11,5.13-6.55,6.65-10.49l5.23-6.43c3.78-6,7.9-11.36,12.3-17.04l-4.21,2.82-6.8,6.29-6.25,6.72-4.88,5.86c-1.02,1.22-2.71,3.04-3.27,4.39l-1.82,4.42-2.3,4.66c-.98,1.99-2.02,3.57-2.85,5.6-1.61,3.92-3.38,7.41-4.02,11.75ZM24.86,79.71l2.78-4.31c.57-2.66,2.15-4.7,4.34-6.37,3.16-6.75,7.13-12.88,12.69-17.88-.41-1.97,1.11-2.95,1.71-4.24.96-2.08,1.66-4.08,3.31-5.68l3-2.92c.83-2.04,1.95-3.61,3.09-5.43l2.54-4.05,2.58-3.36,6.43-7.77-4.92,3.22-7.2,6.29c-2.35,2.05-4.09,4.97-6.68,6.73-1.26.86-1.5,1.56-2.35,2.9l-4.3,6.8c-1.02,1.61-3.6,3.16-4.34,4.73l-3.93,8.33-2.63,5.85c-1.28.52-1.72,1.67-1.48,3.06l-3.48,9.2-1.15,4.89ZM24.22,42.88l3.07-4.52,8.29-13.04,3.13-4.95c-9.03,5.81-15.57,15.72-19.8,25.47-1.28,3.06-2.65,5.76-2.96,9.23l8.28-12.18ZM39.29,75.44c1.94-5.22,6.59-8.08,7.82-12.53.72-1.4,2.54-3.9,3.83-4.85,1.37-1.01,2.13-1.35,2.71-2.69l2.31-5.38c.93-2.17,3.15-4.26,4.3-6.55l1.83-1.42c.71-1.68,1.46-3.58,2.48-4.95l6.16-8.28c-2.64,1-3.84,2.55-5.68,4.09l-4.14,4.2-5.07,6.15-3.15,3.34-3.04,4.41c-3.11,4.52-5.65,8.99-7.92,13.94l-1.47,3.21-2.14,5.27-1.82,6.26,2.99-4.23ZM19.68,34.39c-1.41-2.06-2.81-3.37-4.65-4.64.74,2.38,2.28,4.03,4.65,4.64ZM55.72,67.06l2.41-3.05,2.76-5.08,4.76-7.81,4.78-7.82c-3.64,2.51-6.38,5.43-9.03,8.78-2.6,3.29-5.39,6.54-7.16,10.39l-1.33,2.9c-1.78,3.87-3.26,7.62-4.03,12.18l6.83-10.48Z"/>
      <path class="e" d="M72.92,76.85c-4.74,8.39-12.78,15.2-20.59,20.18l-1.5.02c-.31,0-.52,1.35-.84,1.5l-8.47,4.12c-6.2-2.67-11.73-5.96-16.72-10.07.22-1.02-.18-1.83-.67-2.48.22-.73.65-2.49.23-3.05-1.39.45-1.77,1.71-2.11,3.5-12.56-10.78-18.25-22.2-19.91-38.91l3.43-.26-2.1-2.37c-.05-.45,1.76-.88,2.53-.59,1.61,12.45,3.89,22.55,12.4,32.19,3.43,3.89,7.25,7.37,11.45,10.5l.67,1.25,1.83.45,9.08,4.72c11.49-4.95,20.99-12.94,27.82-23.05.39.38.6.72.72.65l.99-.57s.16.77-.06.86l-1.64.69c-.06,1.28,1.94,1.14,3.47.7Z"/>
      <path class="e" d="M80.5,30.27c.02.81-1.2,1.8-2.12,1.86l.3-17.93-3.42-.98c-11.36-2.07-22.25-4.52-33.38-8.18l-13.56,3.7c-.65.18-2.01.16-2.6.41l-1.65.69c-.34.14-.73-1.4-.61-1.74l1.08-3.15L41.33,0l14.45,4.29.65,1.11c.15.25.77-.33,1.13-.67l25.62,5.24v16.27c0,.66-.61,1.91-.92,2.69l-1.14-1.94c-.45.76-.67,1.59-.63,3.27Z"/>
      <path class="e" d="M73.94,71.85c.56,1.56,1.08,3.13-.9,4.08l.46-5.1-2.23.74c1.67-4.74,3.53-9.29,4.47-14.51,1.42-7.86,2.02-15.26,2.64-23.35l4.25,1.11-.64,7.17c-1,11.16-1.7,20.38-6.69,30.88l-1.36-1.02Z"/>
      <path class="e" d="M22.53,10.21l-16.35,3.38c-.78.16-1.69,1.16-1.68,1.99l.23,9.97c-1.63-.74-2.88-1.19-4.67-1.06l-.07-14.58,14.7-2.84,1.3.79,3.68,1.83,1.86-2.48.99,2.99Z"/>
      <path class="e" d="M3.33,47.9l-.67.94c-.14.2-.46-.8-.45-1.06.03-.97-.69-2.68-.84-3.66C.39,37.67.22,31.7.03,25.03c1.78.5,3.37,1.18,4.63,1.96l1.11,17.51-2.45,3.4Z"/>
    </g>
  </g>
</svg>