<?xml version="1.0" encoding="UTF-8"?>
<svg fill="#FFFFFF" id="b" data-name="Warstwa 2" xmlns="http://www.w3.org/2000/svg" viewBox="0 0 101.2 70.46">
  <defs>
    <style>
      .e {
        fill:#FFFFFF;
      }
    </style>
  </defs>
  <g id="c" data-name="icon-pixarts-survival-series">
    <g id="d" data-name="icon-pixarts-survival-series_978">
      <path class="e" d="M72.54,23.04l-4.22,5.65-7.83-2.66,3.14,2.36c-.93,1.25.68,3.63-1.81,5.05-1.23.69-2.04,1.69-2.8,2.88l-2.15.16,1.57,1.97c-17.02,2.52-34.32-3.47-48.39-14.61,7.7-4.77,15.96-8.05,24.68-10.47l1.05.83c.22.17.56-.68.75-1.13,19.13-4.29,37.99.22,55.1,10.75l-2.74,2.22c-.89-1.52-1.24-.61-.8.56l-9.21,5.6-.99-1.85c-.19-.34-1.18.25-1.45.53s-.03.89.36,2c-5.08,2.71-10.48,4.29-16.43,5.28-2.82-3.87,5.56-2.69,4.59-9.08l9,2.82-4.05-2.81,2.66-6.04Z"/>
      <path class="e" d="M47.91,49.52l-7.68-.71c-.79,3.27-1.87,5.92-3.79,8.72l-2.87-2.99,1.06-7-6.76-2.45-2.84,3.32c-1.7-1.53-2.41-2.13-3.83-2.8l1.05-3.06-5.84-3.77-4.34,2.61c-3.59,2.16-7.58,3.49-12.08,3.12,4.72-2.04,8.88-5.11,11.71-9.34l-7.07-6.28c.82-.91,2.33-1.75,2.9-1.35,16.29,11.62,30.32,17.61,50.84,15.79l-.86,1.94,3.44,1.81-.76-4.07,4.91-.87c-1.48,6.16,2.39,8.8-1.59,12.3l-2.19-5.74-7.4.74-1.28,10.77-3.56-.15-1.17-10.54Z"/>
      <path class="e" d="M32.49,3.78c.68,1.05,1.5,2.7,2,4.45l-16.31,5.13-.94-1.12c-.12-.15-.83.18-.73.34l.85,1.28-4.68,2.1c-3.13,1.4-5.99,3.46-9.03,4.46C13.28,10.39,25.64,4.3,38.48,1.29l.36,1.39c.05.2.79.54.79.33v-1.89c20.41-4.18,43.25,3.61,58.17,19.14-6.46-2.88-11.99-5.96-18.35-8.31-13.91-5.14-28.42-6.59-43.03-3.94l-.25-1.56,3.19-2.87-3.01.37c-1.14.14-2.34.1-3.87-.17Z"/>
      <path class="e" d="M80.73,48.05l-2.21,2.35-4.22-4.84c-1.64-1.88-3,1.19-7.14,1.69-.47-1.99.35-3.08,2.25-3.53l-.95-2.61,7.08-2.53c.58.98.99,1.06.79-.25,6.35-3.05,12.38-6.77,18.12-11.04.85.01,2.06.86,2.66,1.61l-7.09,6.1,4.86,5.92c-.21.86-2.03,2.31-2.76,1.86l-6.58-4.1-6.14,3.93c2.01,5.81,5.49,9.22,9.42,13.63-3.2-.44-5.79-2.25-8.01-4.05.82-1.53,1.48-2.92-.07-4.14Z"/>
      <path class="e" d="M71.88,64.54c-3.27-1.47-5.24-4.7-7.57-8.2.77-1.61,2.07-3.23,3.31-4.33l4.26,12.53Z"/>
      <path class="e" d="M19.44,50.61l1.04,1.95c-2.32,1.62-4.51,3.04-7.49,3.72l7.61-9.47,3.4,1.9c-.17.57-.89,1.78-1.35,2.12s-1.35.11-3.21-.21Z"/>
      <path class="e" d="M35.23,59.36c-1.41,1.94-3.02,4.13-5.66,5.5l3.75-9.08,1.91,3.58Z"/>
      <path class="e" d="M52.6,61.54l-1.6,8.92-1.77-8.08c.63-.63,1.84-.88,3.38-.83Z"/>
      <polygon class="e" points="101.2 44.66 95.19 43.95 97.67 42.43 101.2 44.66"/>
    </g>
  </g>
</svg>