<?xml version="1.0" encoding="UTF-8"?>
<svg fill="#FFFFFF" id="b" data-name="Warstwa 2" xmlns="http://www.w3.org/2000/svg" viewBox="0 0 112.46 111.96">
  <defs>
    <style>
      .e {
        fill:#FFFFFF;
      }
    </style>
  </defs>
  <g id="c" data-name="icon-pixarts-survival-series">
    <g id="d" data-name="icon-pixarts-survival-series_844">
      <path class="e" d="M79.11,43.86l-38.87,39.21-.35-9.6,45.86-46.75c4.72-4.81,9.05-9.2,13.09-14.83-4.73,3.65-8.88,7.69-13.26,12.06l-25.73,25.65c-.14-.42-.42-1.57-.61-1.43l-1.05.77c-.25.18.37.87.86,1.38l-21.05,21.34-9.3-.52,51.48-52.51,1.12,3.38c.71-1.3.83-3.01.76-4.66C88.9,7.5,98.58,3.64,110.54.08c-2.81,11.66-6.75,20.21-15.57,27.78l-1.12-3.11-3.52,4.63c-.38.5-.16,1.37.25,2.25-.54,1.57-2.55,2.99-4.3,3.73-1.41.6-2.66.22-3.37-1.16l2.5.31-.45-1.43c-.12-.39-1.74-.04-1.96.3l-2.98,4.82,1.37.27c.33.07,1.2.85.91,1.01l-1.33.75c-.15,1.09-.67,2.43-1.86,3.63ZM76.97,41.45c.53-.14,1.69-1.2,1.44-1.65l-.76-1.39c-.45.72-.71,1.25-.97,1.26l-1.17.03c-.39,0-1.05.62-1.18.98s.38,1.39.76,1.28l1.88-.51ZM43.29,62.41l2.17-2.25c0-.32-.29-1.29-.49-1.1l-.69.66-1.92,1.82.94.86ZM51.24,68.02l3.89-5.85-.66-.63-2.27,2.56c-1.53.67-3.13,1.75-3.53,2.84.8.42,1.95.86,1.83,1.25l-.63,2.09c.72-.24,1.84-1.38,1.36-2.26Z"/>
      <path class="e" d="M13.91,12.95c4.73,5.91,9.93,11.19,15.32,16.75l17.81,18.4-5,4.86-15.45-15.66,1.69-2.01c-1.65-.73-4.43-1.27-5.69-2.48l-7.61-7.28c-4.07-3.89-7.81-8.06-9.54-13.47L1.56,0c7.07,2.21,13.48,4.42,19.45,8.31,4.64,3.03,8.22,7.52,11.82,11.73.26,3.78,1.4,6.69,3.58,9.99l-.37-1.8c-.16-.78-.32-1.66-.13-2.21.21-.64,2.11-.64,2.85-.34l15.15,15.35-5.15,5.21L17.34,15.06c-.93-.92-1.83-1.55-3.44-2.11Z"/>
      <path class="e" d="M81.8,82.99l.55-.75c.15-.21.81.92.72.87-4.9,4.87-9.74,8.62-15.85,12.08l-4.24-4.98c13.02-4.9,22.48-14.17,27.72-27.42l5.08,4.29c-2.85,5.29-6.62,9.83-10.66,14.05-.82-.52-1.79-.79-2.68-.71-.67.06-1.33.98-1.75,1.58l1.1.99Z"/>
      <path class="e" d="M37.26,85.96l-2.67-2.83-.96,1.22-.8-1.7c-.15-.32-1.05-.33-1.21-.02l-1.02,1.87c-4.42-3.86-8.34-8.35-11.6-13.24.48-.19,1.45-.44,1.46-.2v.89c.59-.2.93-.26,1.02-.42l.47-.86.77-1.41c.21-.38-1.07-1.26-1.25-1.17l-2.56,3.08-2.5-4.27,5.06-4.04c5.19,12.68,14.38,22.2,27.64,27.21-1.07,1.84-2.28,3.28-3.91,5.06l-3.49-2.12,3.18-2.64c-.26-.56-.88-1.51-1.25-1.31l-2.31,1.27c.04.19-.82-.35-.67-.6l.89-1.5-1.71-1.39c-.5-.41-2.21.02-2.3.65-.07.51-.42,2.21-.87,1.97-.82-.42-1.98-1.49-2.34-1.96,1.08.01,3.49-.98,2.96-1.53Z"/>
      <polygon class="e" points="74.35 71.87 65.07 62.55 70.08 57.52 83.47 71.37 74.35 71.87"/>
      <path class="e" d="M71.87,82.89l-13.41-13.68,4.79-5.03,8.97,9.1c.19,3.16.26,5.67-.35,9.62ZM69.88,74.29l-2.31-1.1c-.31-.15-.14-1-.14-1.27l-3-2.03,1.03,2.61c-.02.26-.22.97-.04,1.15l.96.92c.45.43,1.5.9,2.12.9.48,0,1.52-.93,1.38-1.18Z"/>
      <path class="e" d="M102.95,111.36c-1.38,1.15-3.15.21-4.05-1.05s-1.15-2.54-.1-3.58l5.16-5.15,4.5-4.3c1.98,1.27,2.99,2.42,3.99,4.3-3.04,3.75-5.96,6.8-9.51,9.77ZM106.35,106c.41-.97.66-1.86.3-2.12-.29-.21-1.26-.54-1.65-.56-.54-.03-1.68.9-1.74,1.45s.41,1.47.83,1.83,2.04-.09,2.25-.59Z"/>
      <path class="e" d="M8.36,110.44l.73-1.43c.19-.37-.64-1.39-.59-1.8l.29-2.56c.08-.67-1.79-1.56-2.49-1.37-1.08.29-1.21,2.08-.94,4.03-1.85-1.33-4.01-3.44-5.34-5.75-.26-1.76,2-3.86,3.9-4.27l6.64,6.81c1.23,1.26,3.04,2.39,3.54,4.28.28,1.06-1.54,3.35-2.71,3.57-.79.15-2.54-.96-3.03-1.5Z"/>
      <path class="e" d="M17.89,94.88c.77-.18,1.16-.19,1.14-.43l-.22-2.27-1.11,1.67-1.36-5.62,1.7.65c.35.14.41-.89.4-1.9,2.15.26,3.56,1.73,3.92,4.04l.7,4.52-3.81,3.75-1.35-4.39Z"/>
      <polygon class="e" points="97.24 90.27 86.83 93.24 84.09 90.29 94.35 86.93 97.24 90.27"/>
      <polygon class="e" points="92.15 98.38 88.81 95.21 98.79 91.93 101.89 94.98 92.15 98.38"/>
      <path class="e" d="M14.16,103.8c-1.23-2.48-1.71-4.11-1.94-6.69l-1.41-2.68,3.76-4.14,2.41,9.67-2.17.34c-.4.06.12,1.12.79,1.85l-1.45,1.64Z"/>
      <path class="e" d="M97.95,104.28l-4.12-4.23,9.01-2.91c.33-.11,1.43.63,1.38.72l-6.27,6.42Z"/>
      <polygon class="e" points="92.55 85.28 81.54 88.48 88.59 81.2 92.55 85.28"/>
      <polygon class="e" points="81.28 74.24 74.86 80.75 74.74 74.01 81.28 74.24"/>
      <polygon class="e" points="37.3 73.91 37.45 80.74 30.91 74.28 37.3 73.91"/>
      <path class="e" d="M27.74,85.54l-4.09,1.27c-.77-1.93-2.06-3.22-.17-5.84l4.26,4.57Z"/>
      <path class="e" d="M27.75,90.89l-2.81,2.63-.84-5.17,1.5,1.99.97-1.04c.18-.19.65-.34.86-.19.29.2.57,1.53.31,1.77Z"/>
      <path class="e" d="M10.94,100.83l-3.28-2.93,1.77-2.11c.78,1.91,1,2.43,1.5,5.04Z"/>
    </g>
  </g>
</svg>