<?xml version="1.0" encoding="UTF-8"?>
<svg fill="#FFFFFF" id="b" data-name="Warstwa 2" xmlns="http://www.w3.org/2000/svg" viewBox="0 0 88.17 103.96">
  <defs>
    <style>
      .e {
        fill:#FFFFFF;
      }
    </style>
  </defs>
  <g id="c" data-name="icon-pixarts-survival-series">
    <g id="d" data-name="icon-pixarts-survival-series_1124">
      <path class="e" d="M70.91,72.08l.12,1.2-1.8-1.2c-.35-.23-1.55.25-1.52.37l1.79,2.43-2.1-.78,1.74,1.66c-1.04,1.28-2.61,2.68-4.55,3.73l-1.63,3.03-22.72-.15.67-7.04c-1.67,2.5-2.9,4.98-5.08,6.66-1.34.5-4.44.27-5.66.06.05-.77-.27-2.3-.67-2.2l-2.59,2.39-19.17-.21,4.19-50.72,3.79,2.13c1.01-.33,1.59-2.74.85-3.19-1.26.7-2.08,1.32-2.77,1.05-1.05-.41-1.61-1.93-1.52-3.06L14.55.37l7.89.07.28,2.02c.52-.56,2.31-1.9,3.51-1.9l35.18.13,1.08,2.18c.19.39,1.58-.45,1.82-.86.86-1.43,3.5-2.35,4.88-.59.96,1.23,2.29,2.47,3.43,3.45l-.19,1.6c-.04.33.85.63,1.19.63l4.25-.08-.1,4.39,5.35,4.19-1.27,19.06c-3.36-.69-6.66-1.4-9.29.22-3.07,1.9-4.43,5.09-3.65,8.27.78,3.17,3.7,4.94,7.35,5.41l4.54.59-1.33,16.83c-.06.81-.98,1.83-1.68,2.41l-3.63,3.04-3.26.63ZM26.75,10.99c.5,1.17,1.91,2.11,3.48,2.28,2.09.22,3.96-1.01,3.97-2.89l-2.1-1.14.21,1.48c.04.28-1.2.53-1.47.41-.63-.29-1.61-1.26-1.65-1.89s.55-1.99.99-2.54l9.57-.15,3.26-.97,1.13-1.74-2.65.65-6.78-.18c-1.74-.05-4.28-.2-5.57.77-1.09.82-1.87,1.08-3.06.9.1-.51.34-1.4.04-1.33l-1.27.27-1.95.41-1.18-1.26-3.98.11-.41,8.27,2.84-1.87c-.54-1.5-.62-2.47-.11-4.17l4.02.28c-.45.99-.95,1.77-1.4,1.68l-1.45-.3v3.17s3.27.48,3.27.48l1.47.32c.16.04.15-.43.14-.58l-.12-.33c-.65-.77-1.53-2.88-1.32-4.1.11-.66,2.21-.91,2.69-.56-.61,1.56-.87,2.72-.8,4.12l.17.4ZM66.15,11.09l-1.15-2.72c-.7.46-1.66,1.64-1.69,2.4s.88,2.15,1.6,2.45c2.74,1.17,5.52-.38,6.17-3.03.59-2.4-1-5.5-3.96-5.55l-12.72-.22c1.5,2.63,7.2,3.41,10.93,1.81l2.07,1.16c.61.34,1.1,1.73,1.13,2.41s-2.07,1.99-2.37,1.3ZM77.11,9.59l-1.9.81-.06-.62,2.11-2.02-4.2.98-1.69,3.3,4.49-.82c.41-.08,1.13-1.32,1.26-1.64ZM71.27,56.53L46.8,11.37l-29.03,44.26,26,.8,27.5.1ZM20.14,15.86c.81-.58,2.76-.67,3.6-.23.11.55.09,1.97-.39,2.14l-2.14.77c-.5.18.25,1.69.78,1.73s1.83-.08,2.45-.35c2.25-.99,1.86-4.87.18-6.19-2.08-1.65-4.61-1.47-6.46.66-.64.74-1.64,2.2-1.71,3.12l-.88,11.45,1.54.4,1.61-4.91c1.31-4.01-1.01-6.86,1.41-8.6ZM76.12,24.51l2.47,5.49.95-10.97c.25-2.86-.73-5.41-3.7-5.96-2.27-.42-5.1.86-5.56,3.58-.2,1.15.21,2.86.98,3.47.62.48,2.19.83,3.07.55.59-.19.83-2.31.47-2.22-1.06-.06-1.56-.08-1.96-.32s.09-1.84.49-2.09c.84-.5,2.49-.37,3.01.28,2.06,2.61-1.22,5.92-.21,8.17ZM69.43,16.76l-.11-1.38c-.02-.23-.7-.57-.93-.56-.81.02-1.74,1.83-1.42,2.62l2.45-.68ZM62.54,23.79l-2.59-2.31-.79,3.28,3.38-.97ZM70.5,27.08c-1.66-.55-3.33-.78-5.01-.45-.97.19-1.96,2.35-2.11,3.32,1.23-.25,2.28-.6,2.59-.87-.55-.74-1.09-1.49-.74-1.59,2.5-.74,4.18.91,5.27-.42ZM20.62,33.67l3.99-1.87,2.36-1.1-1.92-2c.04.36.1,1.94-.36,2.02l-2,.37c-1.31,1.18-3.1,2.35-5.06,2.81l-.75,2.68c1.4-1.42,2.2-2.18,3.75-2.91ZM19.25,64.26c.59.19.8,1.63.39,2.1-.34.38-1.73.72-2.27.58-4.4-1.1-.42-7.09-1.43-9.56l-2.05-5.02-1.2,12.02c-.28,2.81,1.96,5.22,4.49,5.39s4.98-1.5,5.11-4.52c.04-.91-.92-2.94-1.79-3.25s-2.57.17-3.47.55c1.02,1.15,1.36,1.43,2.22,1.7ZM71.06,64.03l-1.32-1.56c-2.06.57-3.37,2.16-3.33,4.14.03,1.52,1.33,3.28,3.04,3.9,1.83.67,3.59,0,4.92-1.25,1.05-.99,1.72-2.73,1.79-4.38l.51-11.61c-1.07,1.54-2.54,3.63-2.66,5.03l-.69,7.66c-.08.87-1.29,1.9-2.01,2.03-.87.16-2.41-.69-2.6-1.67l2.35-2.28ZM32.93,61.56l-2.82-2.85c-.22-.22-.94-.19-1.3-.05-.22.09-.18.77.04.8l1.07.17c.31,1.12,1.75,2.34,3.01,1.91ZM23.28,68.06c1.59-.49,2.5-.85,2.45-1.33-.04-.4-.54-1.41-.61-1.24l-1.87.96c-.37.19-.11,2.15.03,1.61ZM65.3,68.84c.75-1.91-1.01-3.24-2.03-2.72-.33.34-.47,1.63,0,1.84l2.03.88ZM23.62,73.57c-.19-.5.75-1.95,1.38-1.9.78.06,1.88,1.43,2.68,2.28.79-.22,1.25-2.04.85-2.9-.37-.79-1.39-1.72-2.37-1.95-2.9-.67-5.84,2-5.37,4.93.39,2.47,3.13,4.39,5.58,4.42l10.14.14c-3.36-4.61-11.08-.36-12.89-5.03ZM50.51,78.76l10.18.16c3.01.05,6.38-2.18,6.19-5.34-.13-2.08-2-3.79-3.65-4.01s-3.71.96-4.08,2.72c-.08.37.16,1.87.53,1.85l1.42-.07c.35-.02.12-1.33.28-1.73.27-.66,2.32.09,2.54.84.17.6-.11,1.55-.73,2.37-.95,1.26-3.3,1.28-4.89.69-2.16-.8-5.92.78-7.79,2.52ZM15.54,76.94l-.02-1.68c0-.23-.64-.22-1.5-.31l.25-2.7c.05-.53-.05-1.87-.54-1.99l-1.46-.34-.69,8.39,9.73-.07c-1.58-2.03-3.83-2.98-5.78-1.31ZM20.31,70.86l-3.35.94.15-.94c.02-.13-.63-.35-.38-.22l-1.72,3.22,3.58,1.56,1.73-4.55Z"/>
      <path class="e" d="M76.3,93.23l-46.34-.4c-.28.15-1.34-1.34-.97-1.46l4.07-1.26c-6.96-.8-13.48-.75-20.37-.39l-.8,1.11,4.91.19.05,1.77-6.93-.18-.83-4.79,14.35.33,5.02.06,28.1.54,16.89-.05,1.2.1c.32.03-.29,1.45-.4,1.37l-29.34.19c9.71,1.26,19.05,1.05,28.79,1.02.99,0,2.18-.67,2.6,1.85Z"/>
      <path class="e" d="M4.69,50.27l-1.5,1.74,1.8-24.3,2.92-.25-.11-.62-2.6.26c.17-3.3,1.72-6.39,5.52-7.13l-3.71,42.65-4.79,1.27.63-8.46c.15-2.06,2.58-2.62,2.35-3.43l-.51-1.73Z"/>
      <path class="e" d="M86.29,55.73c-.99-4.06-1.22-7.94-5.39-9.17l-5-.46c-2.73-.25-4.64-1.74-4.99-4.21-.3-2.1.98-4.87,3.68-5.53,2.19-.54,5.93-.24,8.16.78,6.08,2.78,5.36,11.46,3.54,18.59ZM74.99,37.98c-2.12,1.01-2.62,2.98-1.77,4.46.62,1.09,2.6,1.81,3.75,1.34,1.68-.69,2.51-2.33,1.83-3.97-.47-1.14-2.61-2.41-3.81-1.83ZM85.37,48.28l-.24-5.53-.71,1.56c-.13.28-.62.53-.92.68l1.86,3.29Z"/>
      <path class="e" d="M74.86,87.34l-29.34-.45-33.45-.17-2.92.38c-.64.08-1.54-1.45-1.52-2.39l66,.72c.84,0,1.59.19,1.22,1.91Z"/>
      <path class="e" d="M82.91,89.75l-.65,8.84-8.68-.05.86-1.15c.09-.12.12-.24-.01-.34l-1.39-1.11,6.57-.2.92-9.68.75-4.64,2-27.76,1.8,4.65-1.6,23.56-1.12,1.37c-.15.18,1.71,1.75.42,5.62l-1.34-.15c-.27-.03-.18.48.04,1.89-.56.42-.12.16,1.44-.84Z"/>
      <path class="e" d="M15.5,97.47c-3.15-1.68-4.56,1.16-7.28.22.29-.86.41-1.19.38-1.17-.02.02-.52-.33-.57-.39-.04-.05-.11.51-.25,1.25-4.08.48-8.1-6.57-7.75-9.4l1.55-12.21c.29-2.29,2.6-4.13,4.69-4.49l-.5,11.2c-3.16,2.07-4.42,6.09-1.86,9.5,1.28,1.71,4.01,3.93,6.27,3.67l5.83-.67-.52,2.48Z"/>
      <polygon class="e" points="61.68 98.37 28.83 97.78 28.82 95.33 63.24 95.66 61.68 98.37"/>
      <polygon class="e" points="25.44 103.96 21.64 100.72 16.95 103.86 19.05 91.58 26.57 91.61 25.44 103.96"/>
      <path class="e" d="M71.67,79.07l3.42,1.22.48-2.05c.12-.54-.84-1.37-1.52-2.11l1.48-1.92c.83-1.58,1.48-3.29,3.68-4.4l-.49,11.64c-.03.63-1.28,1.61-1.9,1.59l-12.02-.33c.92-2.79,4.53-4.47,6.87-3.64Z"/>
      <path class="e" d="M80.25,4.65c.42-.08,1.85-.62,1.59-.89s-.88-.84-1.2-1.04l-1.04-.63c-.2-.12-.81.45-.7.65l.82,1.47c-3.22.49-6.91-.02-8.6-4.21l12.93.08-.79,13.41c-3.19-1.83-3.62-5.57-3.02-8.84Z"/>
      <path class="e" d="M86.58,36.63c-.88.11-2.13-1.28-2.06-2.43l1.4-22.66c.86.06,1.83.21,1.99.57s.28,1.27.25,1.71l-1.58,22.81Z"/>
      <path class="e" d="M11.31,11.46l-5.13,1.64.85-7.85c.29-2.63,2.99-4.55,5.2-4.48l-.92,10.69Z"/>
      <path class="e" d="M6.72,69.17c-3.08.37-5.27,1.89-6.3,4.44-1.66-4.72,1.89-8.38,6.47-8.77l-.17,4.33Z"/>
      <path class="e" d="M10.9,17.9c-3.39.32-5.13,2-6.55,4.47-.98-4.6,2.08-8.16,6.73-8.55l-.18,4.08Z"/>
      <polygon class="e" points="72.53 98.53 66 98.51 65.3 95.74 72.55 95.73 72.53 98.53"/>
      <path class="e" d="M45.28,50.03l-.95,3.7-2.91.03.93-3.26h-.53s-.98,3.14-.98,3.14l-2.86.06,1.94-4.24-.69-.08-2.96,4.28c-1.2.03-3.18-.21-4-.43,2.03-2.29,3.36-3.21,4.27-5.83l-6.58,6.13-4.78-.15c.6-.76,1.32-1.73,1.79-2.07l6.59-4.85-.82-.27-9.03,5.25c1.24-2.38,2.59-4.16,4.09-5.84l3.8-1.98-3.21.06,2.34-2.81c4.3,4.97,9.5,8.04,15.82,7.64,5.44-.34,9.72-3.41,13.48-7.26l1.81,3.57-2.49-.62-.37.55,4.24,2.36,3.28,6.1c-3.67-.66-6.19-5.57-10.76-6.35l7.69,7.1-5.76-.08c-1.67-2.35-2.84-4.28-5.17-5.54.9,2.29,2.1,3.8,3.36,5.32l-4.05.13-1.77-3.86-1.14.17,1.46,3.73-4.33-.03-.71-3.79Z"/>
      <path class="e" d="M54.47,42.88c-7.28,5.88-16.53,3.46-22.16-4.03l4.52-3.89c3.73-3.21,9.5-3.83,14.14-1.72,3.1,1.41,5.45,3.84,7.76,6.2l-4.26,3.44ZM42.96,44c2.67,1.21,5.35.11,6.95-1.71s2.08-4.51.63-6.67c-1.59-2.39-5.11-2.61-7.34-1.67,1.13,1,1.96,2.17,1.79,2.95-.21.97-1.86,1.85-2.76,1.46s-1.21-1.76-1.08-3.11c-1.62.44-2.12,2.9-1.83,4.45.36,1.89,1.67,3.41,3.63,4.3Z"/>
      <path class="e" d="M55.26,32.51l-1.69-.53c-.38-.12-.32-1.03-.31-1.08-1.02.04-2.09-.11-2.93-.45-4.96-1.98-9.69-.43-14.38,1.85l2.05-3.19c.3-.47,1.88-.72,2.07-.7-.18-1.34.35-2.88,1.14-3.93.71,1.6.99,2.34,1.98,3.34-.48-4.35-1.66-5.48,2.28-9.5l.14,9.18.88.03.92-9.45,2.78,5.17-1.59,4.7.8.12,1.46-3.19c1.26.75,1.52,2.61.9,3.95l1.63.04,1.87,3.65Z"/>
    </g>
  </g>
</svg>