<?xml version="1.0" encoding="UTF-8"?>
<svg fill="#FFFFFF" id="b" data-name="Warstwa 2" xmlns="http://www.w3.org/2000/svg" viewBox="0 0 101.88 99.05">
  <defs>
    <style>
      .e {
        fill:#FFFFFF;
      }
    </style>
  </defs>
  <g id="c" data-name="icon-pixarts-survival-series">
    <g id="d" data-name="icon-pixarts-survival-series_1017">
      <path class="e" d="M30.27,93.62c-.96.6-1.56,1.98-2.22,3.32-1.1,1.85-4.54.71-6.33.54-4.79-.44-8.09-3.56-8.04-8.44l.18-16.37,1.68-1.37,1.96-3.19c-.47-.48-1.87-.42-3.47.01l.83-25.04,7.36,7.12c1.53,1.48,4.05,2.54,6.15,2.54h8.32s0-2.65,0-2.65l-7.88-.02c-1.83,0-3.99-.93-5.24-2.25l-9.79-10.3c-1.94-2.04-3.02-4.16-3.02-7.07l.03-26.09c0-1.47,2.51-3.98,3.99-4.01l10.02-.17,1.96,3.73,1.29,6.75c1.08-3.59,1.28-6.54,1.18-10.33.63.09,2.03.3,1.85.27.31,1.69.25,1.64.92,3.27l1.06-3.26,21.87,1.15,16.51-1.24,15.07-.53.13,5.29c2.39-.93,1.43-2.41,1.35-4.3,1.72.31,3.2,2.19,3.2,4.46l-.03,9.63-.94,1.57.97,1.55.08,12.17c.02,2.33-.78,4.54-2.23,6.06l-10.54,11.06c-1.5,1.58-3.74,2.64-5.92,2.62l-7.3-.05-.03,2.68h7.77c2.78,0,5.26-1.06,7.2-3.08l6.77-7.03.43,17.82-1.95,1.22c-.99.62-2.02.76-3.78,1.1,1.06,2.45,4.04.63,4.83,3.47l1.19,1.65.45,13.17-.32,9.27c-.14,4.2-3.86,7.45-8.21,7.6l-31.57,1.09-8.97-.94-7.3-.18-1.53-4.31ZM14.9,2.74c-1.52.3-1.68,4.13-.39,5.64.66.77,1.85-2.03.39-5.64ZM88.26,12.17l-.03-4.09c0-.4-1.56-.53-1.62-.14-.15.97-.08,3.3.05,4.51.04.41,1.6.16,1.6-.28ZM77.23,14.12c.26-2.24.3-3.27-.92-4.22-.75-.58-1.93-.85-3.59-.94l.87,4.01c.55.75,2.86,1.14,3.65,1.15ZM14.88,16.18c1.13-2.12,1.02-4.43-.32-5.81-1.13,1.66-1.53,4.54.32,5.81ZM72.52,15.14l-2.17-3.95-2.76.04-.78,3.13c.21.91,1.96,2.16,3.04,2.8.35.79.58.81.5,0l2.17-2.01ZM88.22,17.69l-.14-2.03c-.02-.3-1.25-.16-1.51-.04l.09,5.02c1.12-.33,1.71-.64,1.68-1.06l-.13-1.89ZM75.3,20.16c1.22-1.29,1.09-2.01.45-2.82-.49-.62-2.26-.22-2.12.38l1.67,2.44ZM15.44,21.99c.23-1.46.78-3.31-1.43-3.81l-.23,4.66c-.01.29,1.38.94,1.43.65l.23-1.5ZM88.29,27.68l-.1-4.36c-.2-.13-1.65-.08-1.65.23l.06,4.4c0,.45,1.69.2,1.68-.27ZM15.52,27.87l-.2-1.63c-.03-.28-1.03-.14-1.42-.05l.1,4.97c2.01-.49,1.69-1.91,1.52-3.29ZM87.41,30.45l-2.28,3.19-.44,1.02c-.11.24.42.88.69.83,1.58-.25,3.6-3.64,2.03-5.04ZM18.35,35.75c-.46-1.11-2.27-3.01-3.73-3.22-.22,1.62.93,2.72,2.06,3.59l.94.73c.19.14.82-.88.73-1.1ZM80.89,40.72l2.68-2.74c.25-.26-.69-1.47-.87-1.39l-2.77,2.69c-.2.19-.31.99-.27,1.26s1.04.37,1.23.18ZM23.86,41.17l-3.7-3.59c-.33.22-.72,1.61-.34,1.99l2.81,2.81,1.22-1.21ZM76.04,45.74l2.1-2.13c.22-.23.15-1.29-.16-1.35-.23-.05-.96-.03-1.12.14l-2.4,2.44c-.22.22-.29,1.45.02,1.44s1.3-.27,1.57-.54ZM28.03,44.92l-1.82-1.23c-.29-.2-.93-.38-1.23-.44s-.5,1.37-.25,1.55l3.06,2.25c.25.18,1.42-.09,1.56-.36s.11-.97-.16-1.12l-1.15-.65ZM36.21,45.49l-4.23.18c.1,1.97,1.75,1.8,2.82,1.62l1.43-.24c.31-.05.28-1.57-.02-1.56ZM72.08,45.52l-4.5-.02c-.36,0-.68,1.56-.32,1.58l1.85.1c1,.05,3.05.59,2.97-1.66ZM28.85,82.29l-2.04-1.62c-.7,1-.12,2.37.71,2.68l1.48.55c.29.11.14-1.38-.15-1.62ZM82.28,85.52c.23-.97.28-2.64-.16-2.59l-1.35.17c-.26,1.04-.52,1.8-.19,2.08.42.37,1.6.75,1.7.33ZM78.33,89.73c.65-1.42,1.17-2.73.53-3.21-.74-.56-2.33-1.1-2.86-.66-1.13.95-1.13,4.61-.01,5.07.98.4,1.9-.23,2.35-1.2ZM24.53,87.31c-.58.11-1.15,1.67-.82,2.15s1.51,1.12,1.94.73c.56-.52,1.15-1.53.95-2.07-.17-.47-1.49-.91-2.06-.8Z"/>
      <path class="e" d="M100.16,81.36c0,4.59-5.18,7.18-9.23,7.21l-.97-29.7,10.22,8.33v14.16Z"/>
      <path class="e" d="M3.84,85.84l.7-1.65c.16-.37-.29-1.35-.69-1.35h-1.65c-.44-.01-.8-1.38-.79-1.86l.17-13.81,10.14-8.24-.79,29.62c-2.64-.19-5.04-1.13-7.1-2.71Z"/>
      <path class="e" d="M12.04,54.48c-3.64,3.91-7.2,7.26-12.03,10.53-.13-5.9.91-14.8,5.46-15.37l6.66-.83-.09,5.67Z"/>
      <path class="e" d="M101.88,64.9c-4.29-1.98-11.81-9.63-11.87-10.43l-.43-5.63,6.39.63c5.53,1.64,5.48,8.51,5.91,15.43Z"/>
      <path class="e" d="M58.86,55.32l-15.63.04.03-7.4c.01-4.1,3.46-7,7.1-7.33,4.02-.36,7.46,2.1,8.38,6.34l.11,8.35ZM56.85,52.79v-2.69s-11.72-.03-11.72-.03v2.66s11.72.05,11.72.05Z"/>
      <path class="e" d="M53.7,73.65l-5.26.04.86-5.84c-2.13-1.4-2.14-3.88-1.01-5.29,1.49-1.86,4.12-1.71,5.44-.06,1.3,1.61,1.03,4.12-1.05,5.44l1.01,5.72Z"/>
    </g>
  </g>
</svg>