<?xml version="1.0" encoding="UTF-8"?>
<svg fill="#FFFFFF" id="b" data-name="Warstwa 2" xmlns="http://www.w3.org/2000/svg" viewBox="0 0 100.45 91.74">
  <defs>
    <style>
      .e {
        fill:#FFFFFF;
      }
    </style>
  </defs>
  <g id="c" data-name="icon-pixarts-survival-series">
    <g id="d" data-name="icon-pixarts-survival-series_1384">
      <path class="e" d="M73.39,83.65c-3.44,2.43-7.63,4.23-11.23,6.38-3.37,2.01-5.68,2-9.39,1.19l-16.26-3.58c-4.15-.91-9.06.09-12.93-1.53-4.46-3.07-8.52-6.32-13.21-9.04l-.74-1.95-1.66.12c-1.21.09.48-2.9.3-3.31l-.84-1.86,2.39,1.01c.55.23,2.17-2.23,1.65-3.52-.18-.45-1.33-1.16-1.85-1.04-1.48.35-3.58,2.74-3.23,4.21l.78,3.2-1.34-2.42-1.49-2.37-3.34-5.4c-1.2-1.94-1.18-3.71-.67-5.97l2.93-13.14c1.08-3.17,4.53-5.37,5.89-8.44,1.77-4.01,3.47-7.92,5.73-11.72l9.37-4.31c.21-.1.98,1.13.7,1.51l-1.14,1.58-1.85,2.57c2.59.13,3.35-1.41,4.07-3.33.6-1.62.97-3,.6-4.42l3.99-6.82L49.25,1.36c5.52-2.92,9.27-.63,15.37,1.97l-3.12,3.81,7.56-2.57c3.77.23,7.57,1.93,11.21,3.6l1.68,7.41c.73-2.59.21-4.53-.45-7.19,2.21.84,4.14,1.81,5.95,3.26,2.87,6.42,5.06,12.72,7.05,19.44,3.3,4.15,5.3,8.68,5.95,14.09l-3.15,9.76-2.98-4.68-2.58-3c-3.13-3.64-.44-5.25-1.62-8.06-2.06,1.66-3.11,3.25-4.22,5.11l3.09,3.14c.51.52,1.04,1.56,1.46,2.38l2.59,3.13-.83.82c-.17.17.03.72.13.96.09.23.73-.58.88-.83l1.28,3.24,2.42-1.2c-.21,1.47-.59,2.56-1.07,3.99-.86,2.57-.78,6.27-2.18,8.5-1.91,3.04-4.22,5.76-6.78,8.26-2.17,2.13-5.54,3.28-8.15,4.56l-2.46-2.03c-1.49.89-2.46,2.67-2.89,4.39ZM58.54,8.36l-.5.84c-.95,1.62-1.76,3.18-2.19,5.08,5.17-4.55,3.41-7.17,2.68-5.93ZM54.09,81.06l-1.24,2.31,2.97-2.52,2.33,7.43-.56-7.96,2.25-.53-1.99-1.83,1.09-1.24-2.4-.62c.09-3.24-1.58-7.41-.54-10.53l4.04-12.06c.57-1.71,2.68-3.92,3.85-5.33l1.81,1.75.26,1.76c.06.43,1.52.67,1.51.41l-1.31-6.41,5.02-5.67c1.16.04,2.52.83,3.02,1.77l1.2-1.16,3.96,4.35c-2.14-8.33-4.6-16.58,1.52-22.24l2.93,2.93-1.59-4.49c-.71-2.01,2.28-3.72,1.9-6.27l-7.3,9.71-21.71,10.85,4.19-13.11c-1.83,2.55-2.7,5.11-3.82,8l-2.4,6.23-5.42,3.07.71.19,4.08-1.68-2.56,7.86.73-.1,3.61-8.67,20.23-9.08c-.31,4.07-1.96,7.82-5.01,10.81-4.08,4-7.51,8.18-10.8,12.93l-5.96,3.73.53.51,4.41-1.54c-.96,4.45-2.29,8.06-3.87,11.76l-8.27-5.39,6.4-5.15c-5.21.33-6.73,4.79-9.12,5.49l10.07,7.36,2.33,9.14-3.18,3.53,2.08-.29ZM42.85,20.71l1.69.59c-.2-2.19-1.51-3.46-2.99-3.1l-.43,2.55c-.07.4-.05,1.14.15,1.43s1.13.12,1.23-.22l.36-1.24ZM17.67,36.8c4.74-.98,11.17-6.38,12.02-5.38l1.05,1.24c.24.28,1.29-.95,1.04-1.22l-1.05-1.17,5.48-3.47-.38-.41-6.33,3.04-1.02-1.63c-.2-.32-1.39.11-1.74.26l-1.89.79c-.41.17-.16,1.52.08,1.67.95-.53,1.81-.95,2.82-.34-3.7,2.36-7.04,4.07-10.09,6.62ZM21.42,75.72l.33-2.02c.03-.18.74.26.92.31l1.35.39c.31.09.77-1.02.82-1.42l1.36-9.99,13.48-1.88c.33.08,1.46.22,1.38-.08l-.3-1.04c-4.51-.8-10.12-.94-14.72-.21l-3.58-2.65,8.84-7.74c-4.25,1.69-7.76,4.05-11.51,6.15-3.22-1.82-6.02-3.1-9.27-4.3l-4.6-3.87c.99,2.56,3.17,3.99,4.17,6.3l4.6,10.7c-.66-4.2-1.74-7.25-2.79-11.13l6.63,4.08c.38,1.05,1.09,2.87,1.81,3.37.67.25,1.81.81,1.93,1.57l1.34,8.44c.06.35-.08,1.63-.41,1.57s-1-.24-1.31-.38l-.93-.43c-.19-.09-.14.5.01.65l.96.9-2.47-.18.39,2.04c.08.39,1.41.87,1.54.87ZM74.82,68.21c3.67-4.91,6.11-9.78,7.81-15.09-3.51,4.94-6.23,9.92-7.81,15.09ZM68.93,71.75c4.11-5.42,7.33-10.88,9.77-17.16-4.33,5.25-7.4,11-9.77,17.16Z"/>
    </g>
  </g>
</svg>