<?xml version="1.0" encoding="UTF-8"?>
<svg fill="#FFFFFF" id="b" data-name="Warstwa 2" xmlns="http://www.w3.org/2000/svg" viewBox="0 0 113.74 107.02">
  <defs>
    <style>
      .e {
        fill:#FFFFFF;
      }
    </style>
  </defs>
  <g id="c" data-name="icon-pixarts-survival-series">
    <g id="d" data-name="icon-pixarts-survival-series_846">
      <path class="e" d="M66.87,90.06v-20.76s-19.42.02-19.42.02l-.27,14.93-2.66,3.56c1.81.79,2.74,1.67,2.75,3.29l.1,15.68c-6.68,1.21-6.49-2.35-9.71-2.48l-.95,2.57c-2.19.12-4.83-.14-6.95-.56l-2.52.52,1.13-.74c.21-.14.17-.44.15-.95l-3.12-.07,1.03,1.72-5.88-.02,1.82-2.9c-.37-2.14-.97-4.15-2.59-6.1,2.6-2.84,3.09-6.84-.11-9.86,3.13-2.96,2.89-7.11-.05-9.95,2.94-2.65,3.18-6.95.02-9.78,1.87-1.87,2.28-4.11,1.91-7.17l53.79.06,3.42,3.89,1.15-3.9h12.52c-.29,2.96.23,4.89,1.95,7.01-2.8,2.67-3.05,6.98.09,9.84-3.06,2.94-2.98,7.16-.02,10.22-3.13,2.7-2.68,6.89-.25,9.63-.95,1.25-1.92,3.68-2.25,5l-.91.52-.32.67c-.11.24.81-.06,1.31-.23l1.52,3.07-3.38-.12-.86-4.44-2.32.84c.28,1.02-1.12,3.68-2.36,3.7l-9.25.14-1.32-1.83c-.88.94-1.48,1.63-2.01,1.83s-1.46-1.43-1.67-1.88c-1.11,1.12-1.72,1.78-3.48,1.81l.04-13.82,1.04-1.52c.18-.27-.49-.81-1.11-1.44ZM41.08,85.96v-15.38s-8.75-.22-8.75-.22l-6.16.25-.02,15.4,14.93-.04ZM88.35,85.99l-.04-15.5-14.76-.09.11,15.62,14.69-.03ZM34.76,93.16c-3.02,1-5.46,2.41-7.94,4.35,2.87-.97,5.55-2.5,7.94-4.35ZM87.7,97.38l-6-.75c-1.59-.2-4.05.22-5.93.68l6.83.75c1.82.2,3.47.11,5.1-.68Z"/>
      <path class="e" d="M100.53,57.2l.11-2.88,7.06,8.18.27,1.55,1.4.75,4.38,5.18-2.88,1.8c-.78,1.05-1.75,2.15-3.01,2.18L56.95,11.39,15.64,62.29l-9.94,11.96-1.48-4.22c-1.31.77-2.57,1.18-4.22.38l13.04-16.09c.36.07,1.47.29,1.48-.03l.06-1.94,9.48-11.74c2.93-.69,5.53-1.35,7.93-3.19l-3.21-1.27c.71-2.19,1.88-4.06,3.42-5.8l4.94-5.56,1.74,1.99c.34.39,2.06-.54,2.28-1.01l2.47-5.4.87-1.49c.22-.38-1.12-.55-2.03-.72l6.33-8.04L57.01,0l9.18,11.19c.93,1.13,1.25,2.51,1.15,4.13-.17,2.88,1.78,7.31,4.27,9.3l2.22,2.91-1.39-4.07c-1.98-1.42-2.53-3.61-.68-5.12l8.36,10.02-.21-12.09,10.11.04.13,7.02-3.3-1.35,2.4,4c.38.44,1,1.57.81,2.14-.63,1.82-.19,2.82-.14,4.41l.24,8.33,7.7,9.81-1.74.8,1.34,4.27,1.69,1.19c.42.3.4,1.62.42,2.31l2.24-1.73c0-.28.54-.6-1.25-.29Z"/>
      <path class="e" d="M23.04,58.45l15-18.53.78,5.89,1.22,5.85-.7-13.4,17.71-21.64,33.79,41.61-10.6.06c-.6-1.02-1.5-2.07-2.06-2.34l-1.24,2.61-53.92-.1ZM64.43,48.79l-.79-3.91,1.84-.14-2.49-6.64c-.2,0-1.57-.31-1.81-.68l-4.33-6.53c-2.17,3.12-4.83,6.29-5.88,9.93l-2.48,8.58c2.23-.56,5.05-1.02,6.63-.3,1.81.83,1.9.78,3.77.02,1.32-.53,3.84-.36,5.55-.33ZM75.89,47.22l-3.25-1.93c-.27-.07-1.29.21-1.12.22l2.18,2.19,2.19-.48Z"/>
      <path class="e" d="M14,79.31c2.29-.97,4.41.31,5.18,2.23.78,1.92-.16,4.34-2.39,5.26-1.58.65-3.97-.19-4.93-2.11-.86-1.72-.31-4.34,2.13-5.37Z"/>
      <path class="e" d="M14.76,88.99c2.16-.54,4.27,1.12,4.59,3.2.3,1.95-.88,4.11-3.18,4.67-1.65.41-3.9-.94-4.5-2.8-.69-2.18.61-4.46,3.08-5.07Z"/>
      <path class="e" d="M96.92,79.4c2.09-1.11,4.4.14,5.24,1.89.95,1.96.12,4.26-1.81,5.29-1.79.95-4,.19-5.07-1.49-1.15-1.83-.74-4.42,1.63-5.68Z"/>
      <path class="e" d="M97.44,89.19c2.17-.79,4.27.68,4.87,2.24.87,2.29-.26,4.38-2.27,5.13-1.89.7-4.04-.33-4.96-2.08-.99-1.89-.13-4.39,2.36-5.3Z"/>
      <path class="e" d="M96.95,69.57c2.09-.83,4.29.04,5.14,2.07.71,1.69.2,4.14-1.89,5.08-1.81.81-4.09-.03-5.04-1.77-1.03-1.89-.34-4.53,1.8-5.38Z"/>
      <path class="e" d="M14.15,69.53c2.1-.76,4.28.14,5.03,2.23.65,1.81.08,4.21-2.54,5.11-1.45.5-3.95-.1-4.85-2.46-.58-1.54.19-4.09,2.35-4.88Z"/>
      <path class="e" d="M14.05,104.13l-.9-2.9-.21-.85c-.04-.17.15-.82.3-.73l1.12.65c.25.06.56.18.47.08l-.89-1.05c1.88-1.43,4.37-.06,5.15,1.76,1.15,2.67-.52,4.88-3.26,5.68l-3.44-1.6c-1.02-.47-.83-3.58-.06-4.2.5,1.46.41,2.36,1.71,3.17Z"/>
      <path class="e" d="M94.87,104.28l2.27-.9,1.24,1.28-.67-3.17c-.15-.73,1.14-2.17,1.91-2.22,1.62-.11,3,1.93,3.01,3.21.02,1.75-1.01,3.33-2.5,4.04l-1.31-1.97-1.11,2.4-2.84-2.66Z"/>
    </g>
  </g>
</svg>