<?xml version="1.0" encoding="UTF-8"?>
<svg fill="#FFFFFF" id="b" data-name="Warstwa 2" xmlns="http://www.w3.org/2000/svg" viewBox="0 0 108.11 111.07">
  <defs>
    <style>
      .e {
        fill:#FFFFFF;
      }
    </style>
  </defs>
  <g id="c" data-name="icon-pixarts-survival-arsenal">
    <g id="d" data-name="icon-pixarts-survival-arsenal_50">
      <path class="e" d="M89.81,19.24l-14.98,13.05c-14.34,12.49-26.69,26.53-39.88,40.44l-6.16-5.97c2.9-3.24,5.71-5.92,9.13-8.56,1.39-1.08,3.4-2.06,4.26-3.59s1.61-2.79,2.78-4.02l6.87-7.19c.73.94,1.51,1.69,2.06,1.62s1.02-1.35,1.1-1.91l.45-3.36,26.6-28.35c8.47-4.32,16.76-8.19,26.07-11.39-3.09,10-6.69,18.72-10.78,27.74l-16.21,15.83-2.65,2.57c-2.46-.43-3.58,1.18-3.61,3.33l-16.84,17.23c-2.17,2.22-4.44,0-5.47,1.93-.37.69-.14,2.17.2,3.42l-8.9,9.34-6.14-5.95,39.33-40.45,12.78-15.74ZM77.81,25.15c.87-.03,1.61-1.83,1.19-2.47-.37-.56-1.53-.78-2.48-.43-.75.27-1.54,1.5-1.24,2.05.27.48,1.42.9,2.53.86ZM93.14,26.68c1,.38,2.15-.88,2.08-1.6-.05-.54-.84-1.67-1.39-1.59s-1.34.73-1.53,1.16.34,1.83.84,2.02ZM39.65,61.65c1.55.03,2.35-.15,2.82-.66.41-.45-.31-2.22-.92-2.1-1.1.23-1.89,1.56-1.9,2.75ZM57.53,62.97c.14-.69-1.46-1.7-2.07-1.44-1.59.67-2.69,2.03-2.58,3.7.7.43,2.46.7,3.18.37.61-.28,1.23-1.43,1.46-2.63Z"/>
      <path class="e" d="M45.27,86.84c-3.87,6.56-12.95,1.15-18.33-4.38-4.87-5-8.77-13.05-3.16-16.95l21.49,21.32Z"/>
      <path class="e" d="M.95,95.34c4.14-4.76,19.44,9.71,14.89,14.69-.78.85-3.14,1.4-4.48.76-6.37-3.01-14.07-11.24-10.41-15.45Z"/>
      <path class="e" d="M21.7,95.4l-4.25-1.08,2.25,3.32-2.99,3.03-6.53-6.34,12.32-12.82,6.53,6.57-2.58,2.57c-.58.58-2.45-.05-3.23-.55l1.99,2.04-3.5,3.26Z"/>
    </g>
  </g>
</svg>