<?xml version="1.0" encoding="UTF-8"?>
<svg fill="#FFFFFF" id="b" data-name="Warstwa 2" xmlns="http://www.w3.org/2000/svg" viewBox="0 0 113.92 94.54">
  <defs>
    <style>
      .e {
        fill:#FFFFFF;
      }
    </style>
  </defs>
  <g id="c" data-name="icon-pixarts-survival-series">
    <g id="d" data-name="icon-pixarts-survival-series_410">
      <path class="e" d="M15.68,71.49c-3.1.72-2.59-5.26-6.06-9.99l1.76,11.35c.41,2.65,3.07,4.73,2.65,7.93l-11.75-6.44c-2-1.09-2.77-3.14-1.98-5.26l5.48-14.65c.67-1.8,1.66-4.07,3.22-5.33L49.93,15.98c6.48,1,9.8-3.04,12.74-1.5l-2.06,3.1c3.05-.26,4.38-2.53,6.6-4.43,1.66-1.42,4.6-1.84,6.84-2.89-2.36,0-5.3-.05-7.77.64-1.1.31-2.25,1.34-3.38,1.06-2.69-.68-4.21-.02-7.18.83.69-1.44,1.54-2.62,2.56-3.46l8.81-7.23c2.32-1.9,4.91-2.79,7.89-1.49l11.43,5-4.49,4.44,8.14-2.83,12.04,5.37c1.44.64,2.88,2.8,3.7,4.19l7.3,12.29c1.09,1.84,1.26,3.96-.54,5.53l-18.06,15.67,1.13-7.15c.43-2.7,1.69-5.19,1.8-8.45-2.86,4.21-4.55,9.14-6.95,13.88-1.37,2.7-3.06,4.74-3.36,8.03l-41.16,35.96c-2.43,2.12-5.19,2.64-7.98,1.14l-19.12-10.3-3.19-11.89ZM33.18,67.16c3.26,1.69,5.21,4.26,5.62,7.84l1.66,14.06.82.96c.11.13.35-.28.43-.44l.43-.94.02-14.56c.17-2.22.83-5.17,2.6-6.68l12.66-10.78.22,6.14c.13,3.59-1.78,7.33-.07,11.14l1.27-5.42,3.13-8.95c.9-2.56,1.12-4.96,1.18-7.74l3.57-3.05-.96,9.36c-.27,2.6-2.3,5.48-.92,8.62.88-2.7,1.55-5.79,3.06-8.24,1.24-2,1.52-3.46,1.95-5.79l1.45-7.83,16.88-14.77-1.7,13.39,4.99-11.06,2.27-5.74c.54-1.38,1.68-2.6,2.82-3.61l5.84-5.22-.19-1.13c-.04-.26-1.41-.05-1.65.14l-6.3,4.87c-1.9,1.46-5.27.86-7.43.69l2.93-3.15-3.28,1.24-8.92,3.86,7.18.08-1.56,1.96,5.55.14-19.49,16.22c-1.56,1.3-2.89,2.17-4.89,2.62-.04.88-.6,2.24-1.32,2.6-.83.42-2,.26-3.04.46l-6.85,1.34-5.62,2.51c3.33.09,5.97-1.31,9.59.43l-13.31,11.12c-2.51,2.1-5.52,2.32-8.35.85l-7.59-3.95,4.87-3.9-9.22,2-12.12-5.78c-.39-.19-1.42-.25-1.78-.05-.29.16-.39.87-.47,1.41l12.17,6.55,1.37,6.34,2.5-4.33,8.02,4.16ZM25.45,49.59c2.59.19,3.72-1.34,6.02-1.98l8.03-2.26c-2.62-.39-6.46-1.29-9.01-.25-2.18.89-3.22,1.27-5.41,1.47-3.11.28-6.27,1.41-9.18,2.31l9.54.71Z"/>
    </g>
  </g>
</svg>