<?xml version="1.0" encoding="UTF-8"?>
<svg fill="#FFFFFF" id="b" data-name="Warstwa 2" xmlns="http://www.w3.org/2000/svg" viewBox="0 0 61.8 95.79">
  <defs>
    <style>
      .e {
        fill:#FFFFFF;
      }
    </style>
  </defs>
  <g id="c" data-name="icon-pixarts-survival-series">
    <g id="d" data-name="icon-pixarts-survival-series_1097">
      <path class="e" d="M43.78,38.45l-.56.74c-.1.14-.77-.51-.8-.69-.14-.78.66-2.08,1.38-2.37.82-.34,2.28-.23,2.82.36.61.67.94,2.29.62,3.23-.66,1.9-2.36,2.87-4.09,3.01-1.88.15-3.53-.87-5.16-2.8-3.12,3.04-5.56,7.01-6.16,11.57-.04.27.07,1.29-.21,1.31l-1.36.08c-.36.02-.02-1.07.04-1.45-.88-4.4-3.23-8.3-6.25-11.42-1.29,1.35-2.86,2.63-4.54,2.72-2.67.15-4.93-1.52-4.95-4.12,0-.9.62-2.26,1.29-2.55.78-.34,2.23-.07,2.81.38,1.03.79,1.26,2.3,0,2.87l-.79-1.23c-.19-.3-1.05-.47-1.27-.19s-.39,1.28-.26,1.64c.41,1.18,1.99,1.9,3.23,1.71,1-.15,2.7-1.39,2.66-2.85-.11-4.8-3.19-9.86-7.62-11.54-1.85-.71-3.87.4-4.52,1.71-.68,1.37-.22,3.57,1.4,4.16.43.15,1.68-.36,1.88-.77.23-.48-.49-1.36-1.06-1.83-.05-.13,0-.83.21-.86.32-.05,1.27-.03,1.57.12.94.45,1.42,2.21,1.12,3.06-.44,1.27-1.93,2.25-3.34,2-2.2-.4-3.37-1.96-3.82-4.11-.3-1.45.17-4,2.32-4.78s5.75-.42,7.79,1.03c3.13,2.22,4.21,5.71,6.35,9.13.18-3.53,1.38-6.65,4.13-8.67.43-.31.91-1.51.7-1.67l-12.95-1.17.03-2.05c11.29,1.34,22.7,1.37,33.93-.92,4-.82,7.37-2.17,10.96-4.49.45,1.29-.41,2.85-1.83,3.49-3.73,1.66-7.51,2.86-11.56,3.6l-3.19.58-12.47.92c.29.69.93,1.79,1.36,2.14,2.71,2.23,3.62,5.09,3.72,8.68,1.72-3.25,2.88-6.1,5.16-8.52,2.67-2.82,8.06-3.48,9.99-1.47,1.04,1.08,1.4,2.62,2.15,4.66l1.71-4.9c.55-1.57,1.49-3.02,3.14-3.85-.88,3.43-2,6.21-2.28,9.46-.16,1.88-.4,3.62-1,5.03l-1.25-2.48c-.75,3.93-2.17,7.97-6.74,7.76,3.69-2.87,6.62-6.1,6.17-10.8-1.12,1.65-2.32,3.1-4.39,3.43-1.16.19-2.6-.71-3.07-1.49-.65-1.08-.14-3.17.8-3.58.25-.11,1.31-.14,1.58-.11s.35.76.17.94l-.98.96c-.4.49.71,1.73,1.36,1.7.86-.04,1.84-.86,2-1.72.23-1.3.1-2.73-.53-3.38-.85-.88-2.6-1.32-3.82-.87-4.51,1.66-7.35,6.02-7.73,10.85-.12,1.54,1.07,2.95,2.21,3.33,1.35.45,3.21-.1,3.59-1.5.1-.38-.11-1.4-.32-1.69-.26-.36-1.21.19-1.49.56ZM33.07,42.94l3.29-3.41c.34-.35.87-1.34.65-1.73l-.75-1.34-1.5,2.88c-.64,1.22-1.35,2.39-1.69,3.6ZM27.82,41.51c-.99-1.93-1.62-3.02-2.69-4.45-.14,2.08,1.28,3.49,2.69,4.45Z"/>
      <path class="e" d="M15.78,87.84l-.57,2.08-1.7-.44c-.37-.09-.75.59-1.25,1.43l-1.38-.62c-.48-.22-.67-1.99-.17-2.29,2.36-1.41,5.33-2.58,8.38-2.94l-1.93,2.23c-1.82,2.1,1.59,1.92,6.37-3.8.65-.05,1.52,1.72,1.09,2.39l-2.78,4.31c4.38-2.07,3.03-5.1,5.78-6.27l-.46-3.75,1.1-3.55-.45-.05-1.05,2.68c-.63-.88-1-2.15-.88-3.21l.94-8.47,8.33.02.82,8.73c-1.53-1.07-2.25-1.95-3.49-3.47-.29,2.17,2.24,3.18,2.52,6.83l1.02,1.48.4-.58c1.18-1.72,3.01,7.18,8.77,7.94l-2.06-3.59,7.64,2.6c.35.12.92.82,1,1.13.39,1.53-3.11,3.53-6.05,4.28-9.94,2.55-20.17,2.47-30.06-.22-.4-.11-1.08-.74-1.22-1.08s.57-1.49.77-1.19l.76,1.13c.12.18.76.07.93.05l-1.09-3.76ZM39.29,90.56l.83.74c.1.09.32-.02.32-.04l-1.52-3.98c-1.57-.56-2.45-1.91-3.81-3.41.05,1.82,3.13,4.15,1.92,3.97l-1.19-.17-.66,1.73c1.22-.05,3.9.97,4.1,1.15Z"/>
      <path class="e" d="M14.75,15.48c8.16.86,16.35,1.23,24.73.64.61-.04,1.67-.13,2.04.13,1.09.78-.41,2.98.65,3.59,1.3-1.87,2.61-3.57,4.55-4.53,1.18-.58,2.53.05,2.92.98,1.09-2.61,6.47-2.05,11.06-4.79-.01,5.75-5.69,6.87-11.44,8.25-10.51,1.91-21.02,2.45-31.58.76l-2.03-.72.03-.84c.01-.29-.65-.68-.9-.86l-.03-2.62Z"/>
      <path class="e" d="M8.05,9.89c9.53,2.51,18.98,2.94,28.69,2.43,1.45-.08,2.37.15,3.2,1.93C30.95,15.37,1.23,14.1.02,7.32-.42,4.8,5.26,2.66,9.42,1.92,21.21-.19,33.11-.61,44.69.9l-.43,1.71c-.09.37-1.16,0-1.6-.03l-11.27-.6c-6.86-.37-24.31.63-28.42,5.29,1.45,1.3,2.97,2.06,5.08,2.62Z"/>
      <path class="e" d="M29.36,65.65c.2-2.5-3.05-3.25-2.93-4.12l.21-1.47c-.74.03-1.64,1.06-1.69,2.01-.03.7.91,1.59,1.85,2.4l-.89.82c-1.41-.99-2.35-1.89-2.83-3.17-.43-1.15.55-2.76,1.58-3.83,4,1.18,8.3,1.18,12.53.08.94.43,1.92,2.09,1.88,3.07-.14,3.33-5.24,5.07-9.72,4.19ZM37.09,62.17c-.11-1.03-1.23-2.33-1.91-2.05-.37.63-.85,1.8-.93,2.42-.06.48,1.26.93,1.72.85.39-.06,1.17-.78,1.13-1.21ZM32.87,62.86l-1.42.41c-.15.04-.72-.59-.77-.45l-.52,1.45,2.39-.18c.37-.03.48-1.17.32-1.23Z"/>
      <path class="e" d="M47.39,13.39l.6-2.16c3.71-.68,7.42-1.29,10.61-3.65-.32-.97-1.52-2.26-2.49-2.51l-8.6-2.16c.68-1.91,1.97-1.41,3.32-1.17,4.46.79,11.08,2.3,10.95,5.62-.13,3.26-9.77,5.52-14.41,6.04Z"/>
      <path class="e" d="M32.91,52.72l2.21-6.28c3.25,3.15,7.27,2.67,10.05-.32,1.26-1.36,2.8-2.39,4.5-2-4.43,5.27-10.22,8.16-16.77,8.6Z"/>
      <path class="e" d="M11.36,17.01l-1.78,2.11-7.42-3.16-1.12-4.52,7.49,3.1c.58.82,1.72,1.96,2.83,2.48Z"/>
      <path class="e" d="M38.2,53.78c-.46,4.14-7.87,4.21-12.7,2.69-.74-.23-1.62-1.9-1.78-2.66,5.02,1.2,9.48,1.33,14.48-.03Z"/>
      <path class="e" d="M25.35,46.79c-.86.68-3.11,1.21-4.21.47l-4.2-2.8c3.17.38,5.01-.14,7.13-1.88,1.13,1.27,2.02,2.65,1.8,3.73l-.03.24.49-.18c.19-.07.74.44.8.64l1.91,5.69c-3.35-.33-6.28-1.22-8.93-2.28l.12-1.37-.17-.08-1.13.85-6.62-5.27c2.81-1.58,4.19,2.51,7.95,4.15l.32.11c1.79-.03,3.97-.5,5.04-1.82l-.29-.19Z"/>
      <path class="e" d="M6.27,28.37c.96,3.89,1.3,4.06-.46,8.23-1.11-1.62-1.05-3.68-1.23-5.96-.22-2.86-1.65-5.52-2.29-8.67,2.57,1.32,3.35,3.86,3.98,6.4Z"/>
      <path class="e" d="M41.84,46.88c-1.8,1.34-4.55.76-5.78-1.19.25-.92,1.22-2.31,1.91-3.04,2.46,1.67,3.94,1.91,7.04,1.87l-3.17,2.35Z"/>
      <path class="e" d="M5.93,20.07c-.05.16-.96,1.14-1.25,1l-3.67-1.82c-.55-.27-.69-1.96-.28-2.4l5.39,2.97.33.06,6.02,1.89c.15.05.37,1.04.22,1.09-.22.07-.87.25-1.18.17l-6.04-1.64.76-1.06-.3-.24Z"/>
      <path class="e" d="M50.01,95.79l-.92-1.93,4.1-2.98c.64,2.32-.88,4.33-3.17,4.91Z"/>
      <path class="e" d="M12.02,93.43c.35.3.15,1.47-.09,2.28-2.03-.34-4.2-2.33-2.86-4.81l2.95,2.53Z"/>
      <polygon class="e" points="38.22 30.42 36.05 27 40.61 26.77 38.22 30.42"/>
      <path class="e" d="M13.77,42c-2.46.35-5.42-1.79-5.09-4.69l5.09,4.69Z"/>
      <polygon class="e" points="25.77 27.03 23.65 30.37 21.34 26.72 25.77 27.03"/>
      <polygon class="e" points="45.49 34.06 42.16 34.79 44.56 30.74 45.49 34.06"/>
      <polygon class="e" points="19.84 34.76 16.65 34.06 17.21 30.66 19.84 34.76"/>
    </g>
  </g>
</svg>