<?xml version="1.0" encoding="UTF-8"?>
<svg fill="#FFFFFF" id="b" data-name="Warstwa 2" xmlns="http://www.w3.org/2000/svg" viewBox="0 0 105.4 62.21">
  <defs>
    <style>
      .e {
        fill:#FFFFFF;
      }
    </style>
  </defs>
  <g id="c" data-name="icon-pixarts-survival-series">
    <g id="d" data-name="icon-pixarts-survival-series_900">
      <path class="e" d="M74.02,57.69c-21.82,9.74-45.18,2.99-62.23-12.87l1.86-.63c.34-.11.02-1.32-.23-1.55l-1.46-1.34c-.39-.36-1.31.71-1.95,1.72-3.7-3.35-6.98-7.35-10.01-11.98C5.86,22.11,13.37,14.97,22.33,9.3l2.9-.36.12,1.43c1.86-.1,3.09.41,4.25,1.78l1-2.88-.39-1.25c-.09-.28-.59-.14-1.07-.11.02-.3.16-.93-.03-1.03l-1.22-.65c14.41-7.73,31.79-8.29,46.69-1.52-.26.71-.64,1.68-.39,1.96.57.65,1.85,1.42,2.72,1.84,0-1.46-.01-1.79.22-2.61,11.61,5.6,21.1,14,28.29,25-2.69,4.94-6.51,9-10.7,12.87s-8.18,7.25-13.15,10.2l-1.25-1.47-4.19,1.13c-1.34.36-2.23,2.38-2.08,4.08ZM79.79,29.58c-.74-13.5-10.61-23.88-23.76-25.37-10.24-1.16-19.89,3.24-25.51,11.33-5.7,8.2-6.46,18.92-1.86,27.91,5.89,11.54,18.99,17.32,31.29,13.94,12.12-3.33,20.57-14.68,19.84-27.82ZM95.01,32.29l1.27.5c.14.05.14-.18.12-.32-.02-.14-.16-.9-.12-1.04l1.21-4.11c-.73.41-1.07.72-1.34.58l-1.46-.77,1.11,2.08c-.9,1.23-1.66,2.21-2.39,4.35l1.59-1.27Z"/>
      <path class="e" d="M65.52,49.34c-9.37,7.5-23.54,4.75-30.41-4.66-.03-.75,1.18-1.89,1.54-1.88l.06-2.84-4.45-.09c-5.2-12.33,1.22-26.44,14.24-30.23,2.46.82,3.9,2.62,5.61,4.72.86-.59,2.03-2.21,1.91-2.88l-1.51-2.65c7.98-.3,14.89,3.67,19.32,10.29l-3.41,3.05c-.16.85.07,2.61.3,3.69l2.49-1.35c.77,1.02,1.6,1.54,3.2,1.12,2.38,7.82-.51,16.67-6.81,22.37l-.7-2.92c-.15-.63-2.01-1.64-2.33-1.09-.84,1.59-.03,3.5.95,5.35ZM41.28,26.84c-2.62,7.26,1.69,14.67,8.88,16.35,7.19,1.68,14.21-3.41,14.84-11,.37-4.41-1.31-8.5-4.43-10.9-3.34-2.57-7.44-3.59-11.54-2.04,2.69,2.11,2.88,5.88.62,8.21-2.22,2.29-5.75,2.34-8.37-.61Z"/>
    </g>
  </g>
</svg>