<?xml version="1.0" encoding="UTF-8"?>
<svg fill="#FFFFFF" id="b" data-name="Warstwa 2" xmlns="http://www.w3.org/2000/svg" viewBox="0 0 107.64 103.64">
  <defs>
    <style>
      .e {
        fill:#FFFFFF;
      }
    </style>
  </defs>
  <g id="c" data-name="icon-pixarts-survival-arsenal">
    <g id="d" data-name="icon-pixarts-survival-arsenal_126">
      <path class="e" d="M75.7,73.81l-1.05,2.11-2.08-.7c-.53-.18-.53-1.83-.66-2.36l-1.24,1.08c-.29.25-1.21-.06-1.53-.28l-1.82-1.22c-.43-.29-.16-1.92-.12-2.56-.02-.21-.95-.34-1.04-.07l-.59,1.71-3.98-2.62.44-1.15c.1-.25-.45-1.02-.63-.82l-1.16,1.19-5.12-2.58-.18-2.96-1.49,1.96-9.37-2.34.04-2.56-1.9,2.41c-3.4-1.57-5.38-1.64-5.23-4.35.01-.19-.55-.34-.69-.2s-.67.82-.85.9c-.95.45-2.78-1.55-2.78-2.72l-1.81-.26,2.09-12.02c.27-1.52.2-3.46.05-5.22l-3.25,15.41c-.68-.3-2-1.46-2.32-2.19l-.4-17.53c-.1-4.24-1.26-8.29-2.42-12.19-.88,3.86,1.54,8.13.15,9.31-.33.28-1.54.21-1.83-.21-.74-1.07-.86-2.55-.43-3.85l-1.37.27c-.46.09-2.1-2.32-2.11-2.77,0-.53.34-1.18.83-2.51l-2.22.7-2.38-3.65,3.53-7.69,4.17-2.5-3.26-.74,5.98-3.24c1.49,1.97,2.35,3.72,3.38,5.96l3.29,3.89c1.09-2.16-.77-5.8,0-5.59l-1.76-.47c-.08-1.65-.56-3.54-1.68-4.99L35.66.25c.39,3.7,1.8,7.13,4.53,9.92l1.21,4.04,2.84,1.76-1.13-4.04,4.83,2.34,1.43,5.73-3.01,1.35,3.71.82.81,3.46-2.21,1.06,2.6.52,2.31,7.8,3.17-2.96-2.09-.23,1.52-4.78,2.94-1.3c-.25-.62-1.38-.74-2.13-.39-.96-2.22,1.69-4.49,3.25-4.6.34-.02.5-1.49.21-1.43l-2.09.37,1.45-5.43,4.41-2.42c-.15,2.49-.3,4.22.2,7.12l2.43-4.17,1.68-5.24c1.34-3.01,3.7-5.57,3.18-9.53l11.49,5.78c2.33,1.17,4.53,3,5.47,5.23l-2.1,4.07-1.73-.06c.68,1.64.85,2.33.35,3.69-.46,1.25-1.11,1.81-2.63,2.34l.87,1.54c.22.38-.32,1.45-.46,1.88l-.48,1.49c-.13.4-1.22.44-1.72.49l1.01,1.73c.23.4-.92,1.47-.94,1.95l-.31,6.25c-.42,8.42-.51,16.55-.08,24.88l.8,15.45-1.69-2.46-.39,2.03c-.1.5-1.77.43-2.19.15s-.43-.55-1.27-2.61ZM76.76,51.12l-2.94-14.36c-.41,9.27,2.34,17.87,5.18,26.33.24-4.21-1.38-7.8-2.24-11.98ZM49.85,56.2l4.61-3.48c.61-.46,1.5-1.51,2.17-2.41l-3.5,2.17-7.45,5.02,4.17-1.29Z"/>
      <path class="e" d="M81.5,78.28l3.54,23.05-4.67-1.75c-.57-.21-1.44-2.02-1.96-1.72l-2.58,1.47c-.75-3.11-2.09-5.97-4.48-8.69l-1.16,4.31c-.57,2.1-1.31,3.79-1.2,6.29.02.54-.33,1.77-.57,1.67-1.94-.27-3.84-.1-5.8.36l-3.77-6.4-.54,6.76c-2.36-3.87-5.23-6.55-9.48-7.21l-1.26-2.24c-1.88-.41-2.32-1.65-2.77-3.37l-1.52-5.78-2.81-10.86-.17,7.94c-.04,1.87.34,2.83,1.85,4.01.59,3.51-.31,7.66-1.31,11.19l-3.18,2.62-.77-4.72-1.19-5.89c-1.39,4.82-2.43,8.34-5.8,11.58l-.63-5.74c-2.1,2.69-3.32,5.45-7.11,6.03l3.47-23.49,1.67-23.37c2.29,1.16,1.57,6.24,2.35,4.64l.76-1.57.8,12.23.96-10.96,3.06,2.07.38,2.69,1.44-2.2c1.16.85,2.29,1.84,2.77,2.47l1.34-.51c1.28-.48-1.49,3.54.53,5.31l1.38-4.69c3.43.42,6.77,1.23,9.7,2.38l-.4,3.27,2.12-2.47,5.46,2.88-.4,2.9c.64-.28,1.22-.89,1.97-1.91l3.41,1.94-.12,3.02,1.73-1.83,4.07,2.19-.32,1.22c-.07.26.49,1.14.62.9l.89-1.57,2.05.57c.64.18.8,1.75,1.07,2.77l1.25-1.78c.6-.85,3.13.07,3.75.63l1.56-.66ZM62.68,94.03l-2.13-5.8-2.78-9.28c-.18,2.58.36,4.67.86,7.06.65,3.09,1.39,6.03,4.04,8.01ZM76.59,86.57l1.56,5.8c.61,2.26,3.29-.18-1.56-5.8Z"/>
      <path class="e" d="M99.69,59.97c-.44,2.23.27,3.2,1.27,5.04l-2.49,2.8c-1.05-.84-3.12-1.56-3.61-.82-.92,1.41-.75,2.69-.62,4.99l-2.78-.96-1.96,8.85c-.07.32-.38.91-.52,1.14s-.73-.84-.75-.97l-1.85-16.61-3.69-12.41c-.69-2.31-.37-16.48.34-21.43l1.58-.23c.39-.06-.52-1.48-.89-1.84l1.13-4.22,2.06.94-1.19-2.35c-.48-.95,1.28-3.71,1.25-3.72l1.78,1.04-.97-2.78,1.91-4.12,2.71,6.25,2.36,8.81,1.67,4.9c-1.4,3.09-2.72,5.82-1.31,9.06l1.95-3.54,1.15,2.65-.61,1.01c-.16.26.57.66.77.77-.52.25-1.19.63-1.36.46l-1.16-1.24c-.06.13-.19,1.22-.16,1.64l.25,3.81,2.11,2.94c-.07-1.85-.24-2.54-.84-4.75l2.82-1.05,7.58,18.03-3.14-1.45c-.46.23-1.13,1.5-1.38,2.3l-3.43-2.92ZM87.15,54.07c.7-2.7,1.06-5.28.88-7.73-1.67,4.24-2.5,8.25-2.18,12.74l1.29-5.01Z"/>
      <path class="e" d="M20.34,68.33l-1.83,7.76c-1.42-2.18-2.02-3.51-2.78-5.41l-1.63.35c-.47.1-.76-1.17-.98-1.69l-1.21-2.89-3.17,7.31-1.7-7.67c-.12-.53-1.85-1.06-1.72-1.51l.57-1.98c.72-2.51,2.05-4.34,1.3-6.76l-3.73,4.78-3.45.79,3.77-8.55,3.33-7.86,1.7.89c.1-.82.19-2.18.42-2.76l1.36-3.46,1.68,2.06c.19-2.38-.71-4.68-1.87-6.83l4.38-14.44,2.24,4.07-.92,1.26c-.19.26.39.97.59.96.17-.25.75-1.58.95-1.34l.98,1.17c1.26,1.5,1.47,2.79.68,4.74.92-.23,2.13-.55,2.46-.1.45.62.49,1.99.37,2.84.88.37,2.65,1.92,2.7,3.43l.3,10.91c-.71,5.49-2.7,10.74-4.3,16.22l-1.54-1.78-1.28,2.02c-.24.37-1.46-.38-1.71-.74l-1.85-2.61,1.24,4.64,1.76,1.58c1.11-.48,1.93-.68,2.51-.67l-2.03,1.14,2.39.13ZM21.69,51c.68-3.17-.41-5.97-1.79-8.49l1.79,8.49Z"/>
      <path class="e" d="M57.79,6.52l-10.33-.34-4.71-1.12c-2.37-.56-4.32-1.67-5.24-3.95,9.92,5.51,22.21,5.25,32.33-.42.23.29-.27,1.77-.83,1.99l-5.07,2.02-3.07,1.14c-.86.32-2.06.72-3.08.69Z"/>
    </g>
  </g>
</svg>