<?xml version="1.0" encoding="UTF-8"?>
<svg fill="#FFFFFF" id="b" data-name="Warstwa 2" xmlns="http://www.w3.org/2000/svg" viewBox="0 0 104.43 113.61">
  <defs>
    <style>
      .e {
        fill:#FFFFFF;
      }
    </style>
  </defs>
  <g id="c" data-name="icon-pixarts-survival-series">
    <g id="d" data-name="icon-pixarts-survival-series_1844">
      <path class="e" d="M94.57,54.71l-4.44,5.7c-.67.7-2.96.82-4.25.9l1.49-4.19,1.99.56-1.34-1.69,5.25-2.82.12,1.05c.02.35,1.07.62,1.19.49Z"/>
      <path class="e" d="M94.57,54.71l.03-1.33c0-.3-1.06-.36-1.34-.21.03-.56-.42-1.63-.72-1.51l-6.27,2.48-1.91-6.89-.83-5.43c-.61,3.36-.45,6.36-.41,9.81-4.88-4.98-6.98-4.61-12.97-1.89l-4.27-3.86c.43-1.62-.03-3.1-.8-4.29-.25-.39-1.46-.86-1.68-.51-.17.28-.49.86-.29,1.12l1.23,1.57c-.83-.37-2.28-1.13-3.05-1.82l-6.83-6.19c1-2.53,1.05-4.48,1.37-6.88l.21-1.61c.05-.41-.31-.44-.99.23l-3.11-3.19c1.36-.89.96-1.19-.33-.64-1.11-.74-3.16-2.29-3.82-3.4l.75-5.45c-2.53,1.2-1.19,5.24-6.78,6.28-.86-1.33-.9-3.54.46-5.14l4.26-4.99c.63-.74,2.51-1.32,3.44-1.62l-.87-1.3,6.08-6.75c.75-.84,3.37-.94,4.79-1.02l-2.17,5.05-4.98,3.07-2.4,1.07c2.4.21,4.07-.89,5.95-1.7l3.04-.12c3.65,2.17,5.09,5.74,5.3,5.74l1.98.05c3.07.07,5.7-.29,8.23-1.88l16.26,14.24c-3.93,6.74.62,9.44-.22,10.5l-1.83,2.33,4.14-1.4,4.49,4.55-1.11,5.67c2.15-1.31,2.56-3.61,3.1-5.67l4.15-1.69.3,1.58c.08.41-.91.83-1.34,1.04-.22.11-.44.98-.19,1l1.81.12-6.22,7.46c-.24.29-1.03.73-1.33.84-.22.08-.66-.65-.85-.8l-1.13-.88c-.22-.17-.96.7-.78.92l.83,1.02c.24.29.96,1.22.73,1.51l-1.1.83ZM55.42,2.25c-.25.3-.49.81-.28,1,.24.23.94.66,1.01.38l.36-1.3c.05-.18-.97-.22-1.09-.08ZM58.34,12.38c1.16.03,1.59-.67,1.39-1.41l-1.39,1.41ZM69.66,22.14l-.86-2.89-.22,3.59,1.08-.7ZM70.82,26.25c.52-2.19.47-4.42-.64-6.5l.64,6.5ZM80.09,20.91l.65,1.24c.12.23.84-.12.92-.37.08-.27.17-.96-.09-.95s-1.5.08-1.48.08ZM61.88,38.44c-.25.31-.62.9-.45,1.09s1.02.67,1.06.42l.18-1.23c.02-.17-.68-.41-.79-.28ZM74.8,42.18l-.26-2.07c-.04-.32-1.26.25-1.32.43.53.75.76,2.5.38,3.4-.17.32,1.03.61,1.32.35.22-.19.64-.59.51-.85s-.59-.93-.63-1.26ZM88.15,52.15l.04-2.52c-.53.48-.9.79-.75,1.08l.71,1.44Z"/>
      <path class="e" d="M58.92,58.45l-26.01,30.01-5.37,5.63,2.33-10.65c-2.46,1.84-1.63,6.55-4.71,10.52l-4.23,1.73c.7.43,1.27.68,1.57,1.12.5.75.22,1.93-.05,2.65l-.86,2.27-7.87,10.22c-1.41,1.83-3.79,2.22-5.64.76l-3.17-2.51c1-.57,1.77-1.56.95-2.41l-1.21,2.18-1.86-1.99,8.18-11.28c-3.84,2.93-6.46,6.37-9.55,10.02-1.36-1.22-2.02-3.87-.7-5.31l7.51-8.21,14.48-15.89c1.3-1.43,6.71-2.93,9.78-2.87l1.31-2.63c-1.2-1.15-2.06-3.11-1.84-4.86l22.58-26.13,5.27,4.41-.88,2.46c.6-.43,1.55-1.57,1.92-1.19.4.43,1.47,1.55,1.46,1.54l-1.03,1.07c-.23.24.22,1.19.37,1.23,1.4-1.05,2.7-.92,3.87.45l-4.47,4.84c-.35-.43-.86-1.19-1.04-1l-.79.82c-.18.19.43.88.7,1.16.25.26-.27,1.01-.56,1.33l-.45.49ZM60.24,52.06l.87-1.06c.13-.16-.82-.32-.99-.2l-.76.53-.67,1.13c-.1.18.78.53.91.37l.63-.77ZM47.79,54.89l-3.35-1.87c-.16,1.06.34,1.51,1.13,2.21.21.35.8,1.53,1.04,1.2l1.17-1.55ZM56.34,55.7c.63.14,1.8.24,1.8-.2l.02-2.62-4.86,3.89.29.71,2.75-1.79ZM58.87,57.79l-1.31-.99c-.09.81-.13,1.15.08,1.19l.95.17.28-.38ZM39.54,65.58l.5.36,2.32-5.58-.5-.36-2.32,5.57ZM44.73,69.39c1.89,1.22,3.95-.68,3.97-1.77l.1-3.56c-.75,0-2.1.49-2.26,1.06-.14.48-.02,1.48.04,2.19l-1.85,2.08ZM18.92,99.24l-.85,1.17c-.11.15.81.5.87.33.21-.62.4-1.13-.01-1.5Z"/>
      <path class="e" d="M85.69,9.79l7.77,7.33c1.57,1.48-.86,4.68-2.63,4.78l-11.9-10.5c.62-1.22,1.75-2.74,3.09-3.33.78-.35,2.66.96,3.15,1.6-.43.43-.96.95-1.18,1.34s0,1.53.33,2.18l1.36-3.4Z"/>
      <polygon class="e" points="67.41 11.93 64.22 9.65 59.6 5.57 61.8 0 73.8 10.55 67.41 11.93"/>
      <path class="e" d="M98.44,39.94l-6.24-5.98c-1.51-1.45-.34-5.07.26-6.97l11.5,10.48c-1.64,1.37-3.52,2.16-5.52,2.47Z"/>
      <path class="e" d="M52.45,30.63l-.09,3.57-10.35-8.85-.71-1.44c-.19-.38.88-.9,1.32-1.19,2.22-1.46,4.25-.91,6.12.86,3.38,3.2.15,4.71,1.3,6.81.2.37.56.45,2.41.25Z"/>
      <path class="e" d="M81.2,53l3.35,2.86c.24,1.96-.18,3.55-1.25,5.59l-10.85-9.97,5.57-.23c.25-.01,1.14.02,1.16.28l.06.91c.28-.05,1.56.22,1.97.56Z"/>
    </g>
  </g>
</svg>