<?xml version="1.0" encoding="UTF-8"?>
<svg fill="#FFFFFF" id="b" data-name="Warstwa 2" xmlns="http://www.w3.org/2000/svg" viewBox="0 0 109.91 84.36">
  <defs>
    <style>
      .e {
        fill:#FFFFFF;
      }
    </style>
  </defs>
  <g id="c" data-name="icon-pixarts-survival-series">
    <g id="d" data-name="icon-pixarts-survival-series_893">
      <path class="e" d="M70.85,83.14c-1.03.79-2.69-.43-3.17-1.87-1.15-.47-3.18.7-3.44,2.62l-6.5.31c-.19,0-.89-.76-1.05-.66s-.62.56-.8.49l-1.21-.42c-.27-.1-.79.37-1.26.73l-14.4-1.12c-.68-5.6-.9-10.2-2.17-15.87-1.5,5.19-1.89,9.2-2.67,14.79l-8.12-2.25,1.02-2.42c.24-.58-.65-1.86-1.15-2.53-.18.03-.86.36-1.12.52-.33.2-.04,1.25.18,1.55l.72,1c.21.3-.53,1.25-.89,1.21-.97-.1-2.27-2.4-2.15-3.48l1.8-16.37c.46-4.16,2.22-8.61,6.39-10.32l12.08-4.94c1.61-.66,3.07-2.17,3.29-3.4.4-2.16-.09-3.44-1.46-5.02s-1.8-4.26-3.04-5.97c-6.08-8.4-1.1-9.09-1.4-12.57-.36-4.2-.58-7.83,2.33-11.59l3.78,4.81c.09-1.83.12-3.51-.14-4.6l-.57-2.44c-.42-1.79,9.03-5.78,17.29-1.38,3.48,1.85,6.31,5.08,6.48,9.14l.34,8.18c.69,1.21,1.38,2.73,1.41,4.21-.56,2.64-1.51,4.37-3.36,5.93l-3.98,7.99c-1.23,2.46-.1,5.37,2.35,6.43l12.94,5.63c4.58,1.99,6.05,7.53,6.13,12.03l-1.37.97c.3-.21,3.51,7.8,2.71,13.54l-7.31-1.48,6.83,3.44c-1.08.96-2.71,1.88-3.25,1.81l-1.69-1.82,1.03,2.22-3.3,1.05c-.29.09-1.34-.12-1.36-.42-.15-1.73,1.77-2.47,1.17-3.14l-1.37-1.53-1.52.88c-.37.21-1.21-1.13-1.3-1.59l-1.68-7.96-1.27,4.46-1.5-1.07c-.25-.18-.72.47-1.15,1.12.62-.03,2.81.79,2.73,1.63l-.88,9.47ZM74.68,52.45l.43-4.31-2.96.51,2.53,3.81ZM76.55,55.91l.82-2.41h-2.69c.29,1.03.09,2.19-.33,3.7l1.01-1.21c.16-.2.83-.09,1.2-.07ZM66.54,69.29c-1.24-1.83-2.25-2.22-3.59-3.13-1.53-1.04-2.94-2.4-4.66-2.9l4.61,4.12c.98.88,2.22,1.58,3.64,1.9Z"/>
      <path class="e" d="M107.76,68.49l-6.53,2.15-2.42-11.31-1.71,11.98-6.4.8-.75-6.78-.91-6.65c-.88-6.44-4.28-11.43-10.21-13.89l-5.49-2.28,4.74-2.2c2.57-1.19,1.49-3.88.56-5.8l-2.31-4.74c-2.51-2.11-2.77-5.57-.85-8.19-.45-3.15-.27-6.21.89-9.07,2.33-3.76,6.26-5.19,10.67-5.02,5.41.21,10.44,3.74,10.17,9.87l-2.98-1.43-2.89,2.49c-.28.19.06,1.5.46,1.67.48.2,1.29.03,2.18-.2l3.08-.78c.17,2.17.28,3.07.83,4.02,1.62,2.8-.52,4.62-1.57,6.64l-3.49,6.65c-.79,1.5.57,3.66,2.08,4.31l8.07,3.49c2.75,1.19,4.98,3.78,5.31,6.77l1.6,14.28c.13,1.2-1.06,2.86-2.13,3.21Z"/>
      <path class="e" d="M3.36,65.54l-1.15,2.81-.71-1.33c-.11-.21-.61-.06-1.31.02-.29-1.79-.24-3.93.15-5.88l.39-1.98c2.33,0,3.89-.67,4.63-3.54l-2.42,1.6c-.26.17-.89.36-1.18.38-.39.02-1.11-1.15-1.05-1.57l1.01-6.44c.24-1.54,2.09-3.87,3.46-4.49l9.45-4.28c.92-.42,2.12-1.71,2.26-2.57.19-1.15-.6-2.43-1.12-3.52l-2.43-5.14c-2.43-2.09-3.22-5.43-.96-7.94-.55-3.18-.38-6.27,1.1-9.31,1.17,1.22,2.57,1.78,4.43,1.35-.43-1.08-2.22-3.53-.49-4.64,3.62-2.34,9.02-2.06,12.64.31,4.08,2.67,4.82,7.59,3.96,12.13,2.13,2.7,1.38,6.07-.81,8.4l-2.99,6.01c-.94,1.88-.15,3.82,1.7,4.71l4.01,1.93-5.8,2.45c-5.21,2.2-8.69,6.8-9.42,12.51l-1.84,14.39-6.23-1c-.52-4.29-.71-7.21-1.86-11.63l-2.23,11.22-3.84-1.27c.68-.69,1.03-.95.9-1.12l-.93-1.21,2.12-.79-1.56-3.29-.16,2.09c-.04.47-1,.7-1.74.66ZM10.81,56.1c2.88-1.49,5.12-3.26,7.16-5.71-1.84.15-2.75,1.39-3.95,2.44s-2.38,1.93-3.21,3.27Z"/>
    </g>
  </g>
</svg>