<?xml version="1.0" encoding="UTF-8"?>
<svg fill="#FFFFFF" id="b" data-name="Warstwa 2" xmlns="http://www.w3.org/2000/svg" viewBox="0 0 105.62 105.48">
  <defs>
    <style>
      .e {
        fill:#FFFFFF;
      }
    </style>
  </defs>
  <g id="c" data-name="icon-pixarts-survival-arsenal">
    <g id="d" data-name="icon-pixarts-survival-arsenal_39">
      <path class="e" d="M27.66,77.25l-1.6-8.81-1.67,5.56c-.98-.22-2.43-.9-3.15-1.76l.09-51.04,5.89-4.92,1.53,20.51c1.13-7.61,1.21-14.51,1.43-22.26,3.16-2.1,6.62-3.59,10.47-4.47l.02,28.92c-8.42,7.38-8.34,20.17,0,27.53l-.05,28.92c-3.7-1-6.67-2.39-10.25-4.29l.37-11.33c-1.26.32-2.78-.91-3.08-2.56Z"/>
      <path class="e" d="M84.27,36.93l.08,46.63c-2.07,2.41-4.38,4.19-7.14,5.99l-1.92-17.78c-.96,7.01-1,13.09-1.34,20.09l-9.05,3.62.02-28.87c8.45-7.5,8.39-20.18.02-27.65V9.96c3.88,1.18,6.95,2.5,10.49,4.28.31,3.96.29,7.4-.94,11.06l2.78,2.71.71,11.18,1.79-7.09c.11-.42,1.6-.39,1.74-.04l.65,1.65c1.16.58,2.13,1.45,2.13,3.21Z"/>
      <path class="e" d="M62.86,37.23c-6.57-3.84-13.54-3.91-20.16.02l.04-27.82c6.44-1.72,13.21-1.75,20.11-.09v27.89Z"/>
      <path class="e" d="M50.94,97.43l-1.14-5.66-.83,5.52-6.25-1.35-.02-27.81c6.3,3.93,13.55,4.22,20.12.04l.04,27.79c-3.86,1.01-7.36,1.31-11.93,1.48Z"/>
      <path class="e" d="M54.45,68.74c-9.67,1.04-18.04-6.96-17.77-16.49s8.79-16.61,18.02-15.52c8.18.96,14.09,7.99,14.18,15.78s-5.69,15.29-14.43,16.23ZM52.08,38.72c-.98.52-1.23,2-.72,2.63.4.49,1.88.78,2.39.41s.96-1.52.71-2.1c-.27-.65-1.78-1.26-2.39-.94ZM43.34,42.28c-.9.35-1.23,1.77-.83,2.49.34.61,1.77,1.15,2.31.74.64-.49,1.1-1.76.84-2.39-.24-.57-1.64-1.1-2.31-.84ZM60.94,42.29c-.93.42-1.27,1.8-.85,2.5.38.64,1.73,1.13,2.37.76s1.05-1.77.73-2.38c-.28-.53-1.7-1.12-2.24-.88ZM50.92,44.3c-5.18,1.16-7.78,6.06-6.49,10.82,1.17,4.31,5.7,7.08,10.32,6.06,4.53-1,7.51-5.64,6.48-10.29s-5.36-7.69-10.31-6.59ZM39.81,51.03c-.91.1-1.42,1.9-.94,2.62.35.52,1.46.88,2.1.68.59-.19,1.2-1.53,1.02-2.13s-1.36-1.25-2.19-1.16ZM64.8,50.95c-1.03.33-1.69,1.58-1.39,2.24.36.78,1.52,1.51,2.16,1.27.78-.29,1.44-1.57,1.24-2.27-.16-.57-1.44-1.42-2.01-1.24ZM43.1,59.94c-.68.26-1.03,1.99-.62,2.46s1.55.95,2.14.72,1.13-1.69.94-2.29c-.2-.64-1.41-1.3-2.46-.9ZM60.9,59.88c-.73.33-1.19,1.89-.85,2.47.39.65,1.82,1.11,2.38.71.67-.47,1.04-1.74.78-2.41-.24-.62-1.58-1.11-2.31-.78ZM52.04,63.69c-.91.37-1.18,1.95-.67,2.54.45.52,1.92.84,2.44.48s.87-1.62.67-2.21-1.71-1.1-2.43-.81Z"/>
      <path class="e" d="M19.31,55.92l-.15,25.6c-14.64-16.37-14.3-41.33,0-57.85l.2,20.79-.06,11.46Z"/>
      <path class="e" d="M86.52,81.52l-.18-57.98c14.38,16.42,14.9,41.12.18,57.98Z"/>
      <path class="e" d="M54.48,105.43l-.12-5.68c11.52-.85,22.24-4.86,30.76-13.33l4.41,4.08c-9.55,8.88-21.37,14.34-35.05,14.92Z"/>
      <path class="e" d="M35.36,102.17l-2.88-1.15c-6.08-2.42-11.11-5.74-16.17-10.35l4.15-4.17c8.44,8.23,19.08,12.5,30.83,13.15l.02,5.83c-5.42-.39-10.68-1.21-15.94-3.31Z"/>
      <path class="e" d="M89.42,14.79l-4.34,4.14c-8.4-8.22-19-12.42-30.68-13.14l-.04-5.79c8.55.2,16.58,2.66,23.95,6.78l.48,1.77c.11.4,1.74-.55,2.12-.32,2.49,1.47,5.81,4.16,8.51,6.55Z"/>
      <path class="e" d="M99.65,51.08c-.42-11.59-4.72-21.69-12.34-30.1l4.18-4.06c8.63,9.45,13.59,21.54,14.07,34.3l-5.91-.14Z"/>
      <path class="e" d="M5.93,51.17l-5.93.02c.52-12.65,5.29-24.64,14.06-34.1l4.22,3.85c-7.53,8.47-11.99,18.62-12.35,30.22Z"/>
      <path class="e" d="M16.24,14.9c3.26-3.21,6.76-5.8,10.72-8.11l3.37,2.25-.03-4.06C37.25,2.21,43.91-.08,51.32.07l-.07,5.76c-11.73.53-22.2,4.57-30.77,13.09l-4.25-4.02Z"/>
      <path class="e" d="M98.52,70.76c-.33,1.87.03,4.5.78,6.41-1.97,4.05-4.36,7.32-7.67,11.2l-4.27-4.04c7.71-8.4,11.91-18.67,12.26-30.09h6c-.37,5.09-1.12,9.67-2.55,14.6l-4.56,1.92Z"/>
      <path class="e" d="M14.06,88.44c-3.13-3.6-5.86-7.11-7.52-11.29,1.76-2.9,1.73-5.84-.52-8.35-1.16-1.29-2.34-2.41-4.15-3.21C.62,62.07.19,58.1,0,54.2h5.87c.44,11.26,4.6,21.67,12.39,30.11l-4.2,4.13Z"/>
      <path class="e" d="M50.41,47.09c3.45-1.41,7.09.34,8.19,3.54s-.21,6.54-3.59,7.86c-2.91,1.14-6.45-.04-7.93-3.56-1.07-2.54-.14-6.42,3.34-7.84Z"/>
    </g>
  </g>
</svg>